<?xml version="1.0" encoding="UTF-8" standalone="no"?>
<!-- Created with Inkscape (http://www.inkscape.org/) -->
<svg xmlns:dc="http://purl.org/dc/elements/1.1/" xmlns:cc="http://web.resource.org/cc/" xmlns:rdf="http://www.w3.org/1999/02/22-rdf-syntax-ns#" xmlns:svg="http://www.w3.org/2000/svg" xmlns="http://www.w3.org/2000/svg" xmlns:sodipodi="http://sodipodi.sourceforge.net/DTD/sodipodi-0.dtd" xmlns:inkscape="http://www.inkscape.org/namespaces/inkscape" width="944.63861" height="487.73849" id="svg2" inkscape:label="Pozadí" sodipodi:version="0.32" inkscape:version="0.44.1" version="1.0" sodipodi:docbase="D:\_petr_\School\INKSCAPE\svg\08.Dopravni prostredky a znacky" sodipodi:docname="auto_1.svg" inkscape:export-filename="D:\gt 40.2.png" inkscape:export-xdpi="90" inkscape:export-ydpi="90">
  <defs id="defs5747"/>
  <sodipodi:namedview id="base" pagecolor="#ffffff" bordercolor="#666666" borderopacity="1.0" inkscape:pageopacity="0.0" inkscape:pageshadow="2" inkscape:zoom="0.74990477" inkscape:cx="526.18109" inkscape:cy="372.04724" inkscape:document-units="px" inkscape:current-layer="layer1" inkscape:window-width="1028" inkscape:window-height="753" inkscape:window-x="-4" inkscape:window-y="-4"/>
  <g inkscape:label="Vrstva 1" inkscape:groupmode="layer" id="layer1" transform="translate(-50.78471,-123.982)">
    <g id="g2814" inkscape:export-filename="/media/KINGSTON/inkscape/8.b/Bilek/auto.png" inkscape:export-xdpi="90" inkscape:export-ydpi="90">
      <path id="path7689" d="M 168.77331,366.45255 L 212.59842,382.30418 L 436.38624,505.38748 L 437.31869,492.33319 L 421.46705,478.34645 L 423.33195,440.11603 L 444.77828,415.87235 L 483.0087,414.00746 L 515.64442,435.45379 L 556.67219,488.60339 L 579.05097,535.22586 L 592.10526,567.86158 L 634.99792,586.51056 L 725.4455,606.092 L 793.51429,599.56485 L 881.16452,566.92913 L 952.96311,522.17157 L 989.32863,476.48155 L 994.92332,450.37298 L 989.32863,423.33195 L 947.36841,358.0605 L 908.20555,319.83008 L 852.25859,286.26191 L 685.35018,231.24741 L 685.35018,226.58516 L 691.87733,226.58516 L 692.80977,214.46332 L 684.41773,206.07128 L 679.52237,202.10837 L 666.7012,210.03419 L 664.37007,217.02756 L 605.62577,177.39846 L 584.41255,165.74285 L 530.3305,149.19188 L 467.62329,138.46871 L 444.07894,138.93493 L 418.20348,127.74554 L 377.64194,124.48197 L 326.12412,131.70845 L 301.64732,124.9482 L 276.93742,125.18131 L 200.7097,138.00248 L 121.91774,153.15478 L 76.460837,164.34418 L 61.541649,172.26999 L 55.247617,181.12826 L 51.284707,202.57459 L 60.6092,255.95731 L 64.572109,263.18379 L 62.007874,252.69374 L 61.075424,237.77455 L 65.504558,225.65271 L 73.430377,220.52424 L 86.484666,223.5547 L 104.2012,239.40634 L 124.48197,267.84604 L 141.03295,309.34003 L 153.85412,344.7731 L 168.77331,366.45255 z " style="fill:#fc0;fill-rule:evenodd;stroke:black;stroke-width:1px;stroke-linecap:butt;stroke-linejoin:miter;stroke-opacity:1"/>
      <path id="path7598" d="M 709.12143,562.44599 L 734.17639,566.07237 L 753.29729,567.39105 L 768.46214,568.38006 L 793.84677,568.38006 L 795.82479,569.36907 L 794.17644,572.66578 L 772.41818,599.3691 L 751.31926,601.67679 L 726.2643,600.35811 L 716.70385,593.7647 L 711.75879,580.57787 L 709.12143,562.44599 z " style="fill:gray;fill-rule:evenodd;stroke:black;stroke-width:1px;stroke-linecap:butt;stroke-linejoin:miter;stroke-opacity:1"/>
      <path id="path7600" d="M 734.34123,568.05039 L 755.60498,569.53391 L 755.60498,576.29215 L 752.80278,581.40205 L 748.51707,587.17128 L 744.56102,592.77568 L 739.61596,595.57788 L 735.49508,595.90755 L 731.20936,593.27019 L 729.89068,587.83062 L 729.56101,582.06139 L 731.53903,574.1493 L 734.34123,568.05039 z " style="fill:#b3b3b3;fill-opacity:1;fill-rule:evenodd;stroke:black;stroke-width:1px;stroke-linecap:butt;stroke-linejoin:miter;stroke-opacity:1"/>
      <path id="path7604" d="M 735.33024,595.90755 L 727.08848,594.75371 L 720.00056,588.48997 L 719.34122,579.42402 L 720.49507,572.83061 L 723.79177,566.73171 L 734.6709,567.55588 L 731.8687,573.48995 L 729.89068,582.06139 L 729.72584,587.50095 L 731.20936,593.10535 L 735.33024,595.90755 z " style="fill:#b3b3b3;fill-rule:evenodd;stroke:black;stroke-width:1px;stroke-linecap:butt;stroke-linejoin:miter;stroke-opacity:1"/>
      <path id="path7606" d="M 748.51707,587.99546 L 750.82476,594.58887 L 754.94564,597.88558 L 759.06652,598.87459 L 761.86872,596.5669 L 764.67092,591.62184 L 764.34125,586.34711 L 761.04455,583.21524 L 756.75883,582.39106 L 752.14344,581.56688 L 748.51707,587.99546 z " style="fill:#b3b3b3;fill-opacity:1;fill-rule:evenodd;stroke:black;stroke-width:1px;stroke-linecap:butt;stroke-linejoin:miter;stroke-opacity:1"/>
      <path id="path7608" d="M 758.40718,598.38008 L 756.26432,596.23722 L 755.11048,590.30315 L 757.0885,585.68777 L 761.20938,584.20425 L 763.68191,585.68777 L 764.17642,590.79766 L 761.86872,595.90755 L 758.40718,598.38008 z " style="fill:#b3b3b3;fill-opacity:1;fill-rule:evenodd;stroke:black;stroke-width:1px;stroke-linecap:butt;stroke-linejoin:miter;stroke-opacity:1"/>
      <path id="path7614" d="M 626.13966,480.67758 L 624.74098,476.48155 L 625.67343,468.55574 L 638.2615,459.69747 L 663.43762,451.30543 L 687.21508,442.91338 L 695.1409,444.31206 L 736.16866,479.74513 L 766.93949,511.91463 L 740.83091,521.23912 L 720.31703,532.42851 L 692.34355,520.30667 L 647.58599,496.99544 L 626.13966,480.67758 z " style="fill:#999;fill-rule:evenodd;stroke:black;stroke-width:1px;stroke-linecap:butt;stroke-linejoin:miter;stroke-opacity:1"/>
      <path id="path7616" d="M 766.47326,510.51595 L 782.79113,530.56361 L 772.06796,534.75963 L 747.82428,538.95565 C 744.87255,538.95565 746.26938,538.95565 743.62826,538.95565 L 718.45213,532.89473 L 736.16866,523.10402 L 766.47326,510.51595 z " style="fill:#fe6a00;fill-opacity:1;fill-rule:evenodd;stroke:black;stroke-width:1px;stroke-linecap:butt;stroke-linejoin:miter;stroke-opacity:1"/>
      <path id="path7618" d="M 683.48528,511.91463 L 718.45213,496.06299 L 701.66804,457.36635 L 691.87733,458.29879 L 647.11976,475.54911 L 645.25486,484.40737 L 648.98466,497.46166 L 679.28926,514.71197 L 683.48528,511.91463 z " style="fill:#ccc;fill-rule:evenodd;stroke:black;stroke-width:1px;stroke-linecap:butt;stroke-linejoin:miter;stroke-opacity:1"/>
      <path id="path7620" d="M 628.47078,484.40737 L 629.86945,472.28553 L 645.25486,460.16369 L 685.35018,447.1094 L 702.13427,457.36635 L 693.276,458.76502 L 648.51844,474.61666 L 644.78864,483.0087 L 648.51844,497.46166 L 628.47078,484.40737 z " style="fill:none;fill-rule:evenodd;stroke:black;stroke-width:1px;stroke-linecap:butt;stroke-linejoin:miter;stroke-opacity:1"/>
      <path id="path7624" d="M 888.7919,369.5887 L 896.04465,362.99529 L 933.95677,347.1711 L 940.22051,349.80846 L 959.3414,377.50079 L 978.13263,416.40192 L 954.72602,427.28105 L 918.46225,393.65465 L 894.3963,374.86343 L 888.7919,369.5887 z " style="fill:#999;fill-opacity:1;fill-rule:evenodd;stroke:black;stroke-width:1px;stroke-linecap:butt;stroke-linejoin:miter;stroke-opacity:1"/>
      <path id="path7626" d="M 955.05569,427.61072 L 971.53922,443.76458 L 975.82493,440.79754 L 984.72604,429.91841 L 981.42933,421.67665 L 978.13263,416.40192 L 955.05569,427.61072 z " style="fill:#fe6a00;fill-opacity:1;fill-rule:evenodd;stroke:black;stroke-width:1px;stroke-linecap:butt;stroke-linejoin:miter;stroke-opacity:1"/>
      <path id="path7630" d="M 900.98971,379.47881 L 912.19851,370.24804 L 941.20952,360.35792 L 948.46228,364.97331 L 949.45129,378.81947 L 943.18755,395.63267 L 926.04468,401.56674 L 918.13258,393.98432 L 900.98971,379.47881 z " style="fill:#ccc;fill-opacity:1;fill-rule:evenodd;stroke:black;stroke-width:1px;stroke-linecap:butt;stroke-linejoin:miter;stroke-opacity:1"/>
      <path id="path7632" d="M 900.98971,380.13816 L 889.12157,369.91837 L 896.70399,363.32496 L 933.29743,347.1711 L 948.79195,364.64364 L 941.53919,360.02825 L 911.86884,370.90738 L 900.98971,380.13816 z " style="fill:none;fill-rule:evenodd;stroke:black;stroke-width:1px;stroke-linecap:butt;stroke-linejoin:miter;stroke-opacity:1"/>
      <path id="path7634" d="M 783.62698,597.0614 L 801.42919,577.28117 L 810.65997,562.77566 L 831.42922,559.14928 L 815.9347,580.90754 L 806.70392,589.80865 L 791.20941,595.08338 L 783.62698,597.0614 z " style="fill:none;fill-rule:evenodd;stroke:black;stroke-width:1px;stroke-linecap:butt;stroke-linejoin:miter;stroke-opacity:1"/>
      <path id="path7636" d="M 828.79185,565.41302 L 838.02263,573.65479 L 815.60503,583.54491 L 828.79185,565.41302 z " style="fill:#806600;fill-rule:evenodd;stroke:black;stroke-width:1px;stroke-linecap:butt;stroke-linejoin:miter;stroke-opacity:1"/>
      <path id="path7638" d="M 829.78086,565.41302 L 844.28637,577.94051 L 845.60505,581.23721 L 879.23145,565.41302 L 878.24244,563.10533 L 862.08858,548.59983 L 833.40724,557.8306 L 829.78086,565.41302 z " style="fill:black;fill-rule:evenodd;stroke:black;stroke-width:1px;stroke-linecap:butt;stroke-linejoin:miter;stroke-opacity:1"/>
      <path id="path7640" d="M 862.41825,548.59983 L 868.02265,546.6218 L 877.5831,555.85258 L 873.62705,558.16027 L 862.41825,548.59983 z " style="fill:#806600;fill-rule:evenodd;stroke:black;stroke-width:1px;stroke-linecap:butt;stroke-linejoin:miter;stroke-opacity:1"/>
      <path id="path7644" d="M 886.05988,561.80066 C 886.05988,561.87836 886.05988,561.95607 886.05988,561.80066 z " style="fill:none;fill-rule:evenodd;stroke:black;stroke-width:1px;stroke-linecap:butt;stroke-linejoin:miter;stroke-opacity:1"/>
      <path id="path7646" d="M 884.89432,561.80066 L 913.10091,546.41525 L 911.70223,542.68545 L 900.04662,532.66162 L 880.69829,541.51989 L 868.34334,546.41525 L 884.89432,560.40198 L 884.89432,561.80066 z " style="fill:black;fill-rule:evenodd;stroke:black;stroke-width:1px;stroke-linecap:butt;stroke-linejoin:miter;stroke-opacity:1"/>
      <path id="path7650" d="M 910.76978,541.28678 L 900.27973,532.66162 L 921.25984,522.63779 L 930.58433,515.41131 L 941.07438,521.47223 L 930.81744,529.39805 L 910.76978,541.28678 z " style="fill:#806600;fill-rule:evenodd;stroke:black;stroke-width:1px;stroke-linecap:butt;stroke-linejoin:miter;stroke-opacity:1"/>
      <path id="path7652" d="M 942.47306,522.63779 L 965.08495,498.62722 L 948.53398,508.65105 L 948.06775,506.55304 L 931.05055,515.64442 L 942.47306,522.63779 z " style="fill:#540;fill-rule:evenodd;stroke:black;stroke-width:1px;stroke-linecap:butt;stroke-linejoin:miter;stroke-opacity:1"/>
      <path id="path7654" d="M 781.15934,433.822 L 826.84935,473.91732 L 863.44798,513.08019 L 879.99896,531.49606 L 880.93141,541.753 L 915.19892,525.43514 L 915.19892,519.84044 L 883.02942,483.0087 L 838.03874,441.2816 L 815.19374,421.46705 L 781.15934,433.822 z " style="fill:black;fill-rule:evenodd;stroke:black;stroke-width:1px;stroke-linecap:butt;stroke-linejoin:miter;stroke-opacity:1"/>
      <path id="path7656" d="M 821.72088,419.36904 L 891.65457,480.91069 L 911.70223,504.22192 L 921.25984,517.0431 L 921.25984,522.63779 L 949.69954,504.68814 L 949.69954,501.19146 L 934.08101,483.47492 L 893.28636,440.58226 L 851.09303,405.84853 L 821.72088,419.36904 z " style="fill:black;fill-rule:evenodd;stroke:black;stroke-width:1px;stroke-linecap:butt;stroke-linejoin:miter;stroke-opacity:1"/>
      <path id="path7658" d="M 582.78077,318.43141 C 582.78077,318.276 582.78077,318.12059 582.78077,318.43141 z " style="fill:none;fill-rule:evenodd;stroke:black;stroke-width:1px;stroke-linecap:butt;stroke-linejoin:miter;stroke-opacity:1"/>
      <path id="path7660" d="M 582.31454,316.56651 L 697.47202,378.57439 L 762.27724,400.48694 L 791.64939,421.46705 L 794.44674,428.46042 L 811.23083,421.93327 L 807.03481,415.87235 L 760.41234,383.23663 L 672.29589,335.2155 L 617.74761,308.64069 L 600.4973,313.30294 L 582.31454,316.56651 z " style="fill:black;fill-rule:evenodd;stroke:black;stroke-width:1px;stroke-linecap:butt;stroke-linejoin:miter;stroke-opacity:1"/>
      <path id="path7663" d="M 624.27476,306.7758 L 681.62038,334.74927 L 752.95275,372.97969 L 814.96062,414.47368 L 817.29175,419.13593 L 832.67716,414.47368 L 827.08246,407.94654 L 795.84541,386.03398 L 767.40571,352.93203 L 652.71446,296.05263 L 639.66017,301.64732 L 624.27476,306.7758 z " style="fill:black;fill-rule:evenodd;stroke:black;stroke-width:1px;stroke-linecap:butt;stroke-linejoin:miter;stroke-opacity:1"/>
      <path id="path7665" d="M 696.53957,399.55449 L 716.58723,425.19685 L 734.30377,451.77165 L 753.41898,443.84583 L 726.84417,416.33858 L 698.40447,396.75715 L 696.53957,399.55449 z " style="fill:black;fill-rule:evenodd;stroke:black;stroke-width:1px;stroke-linecap:butt;stroke-linejoin:miter;stroke-opacity:1"/>
      <path id="path7667" d="M 644.32242,403.28429 L 640.59262,381.37173 L 625.67343,360.39163 L 676.02569,371.11479 L 697.0058,379.04061 L 762.27724,401.41939 L 793.98052,422.86572 L 794.44674,427.99419 L 722.18193,458.29879 L 654.11313,409.81143 L 644.32242,403.28429 z " style="fill:#b5913d;fill-opacity:1;fill-rule:evenodd;stroke:black;stroke-width:1px;stroke-linecap:butt;stroke-linejoin:miter;stroke-opacity:1"/>
      <path id="path7669" d="M 644.78864,365.98632 L 669.03232,379.50683 L 696.53957,399.08827 L 696.07335,379.04061 L 672.76212,370.18234 L 644.78864,365.98632 z " style="fill:#fc0;fill-opacity:1;fill-rule:evenodd;stroke:black;stroke-width:1px;stroke-linecap:butt;stroke-linejoin:miter;stroke-opacity:1"/>
      <path id="path7671" d="M 698.40447,397.22337 L 697.93825,379.97306 L 763.20969,402.35184 L 794.44674,423.33195 L 794.44674,427.99419 L 753.41898,443.37961 L 727.3104,415.87235 L 698.40447,397.22337 z " style="fill:#141111;fill-opacity:1;fill-rule:evenodd;stroke:black;stroke-width:1px;stroke-linecap:butt;stroke-linejoin:miter;stroke-opacity:1"/>
      <path id="path7673" d="M 775.79776,360.85785 L 777.66265,333.3506 L 772.53418,312.37049 L 867.64401,366.45255 L 900.27973,386.96643 L 832.67716,413.54123 L 828.01491,407.94654 L 795.84541,385.10153 L 775.79776,360.85785 z " style="fill:#fc0;fill-opacity:1;fill-rule:evenodd;stroke:black;stroke-width:1px;stroke-linecap:butt;stroke-linejoin:miter;stroke-opacity:1"/>
      <path id="path7675" d="M 775.33153,317.49896 L 796.77786,341.27642 L 815.42685,376.24326 L 821.02154,402.81807 L 832.67716,414.00746 L 856.45461,404.21674 L 837.33941,372.51347 L 815.42685,347.33734 L 786.52092,320.76253 L 775.33153,317.49896 z " style="fill:#b5913d;fill-opacity:1;fill-rule:evenodd;stroke:black;stroke-width:1px;stroke-linecap:butt;stroke-linejoin:miter;stroke-opacity:1"/>
      <path id="path7677" d="M 787.45337,321.22876 L 817.29175,349.20223 L 838.27185,372.51347 L 856.92084,403.75051 L 898.41483,386.5002 L 854.12349,358.52673 L 787.45337,321.22876 z " style="fill:#a97017;fill-opacity:1;fill-rule:evenodd;stroke:black;stroke-width:1px;stroke-linecap:butt;stroke-linejoin:miter;stroke-opacity:1"/>
      <path id="path7679" d="M 516.11065,331.4857 L 531.49606,339.41152 L 592.10526,372.04724 L 672.76212,421.46705 L 723.5806,459.23124 L 900.27973,385.56775 L 770.66929,310.97182 L 693.74222,276.00497 L 667.63365,290.92416 L 623.80853,306.7758 L 548.74637,323.55988 L 516.11065,331.4857 z " style="fill:none;fill-rule:evenodd;stroke:black;stroke-width:1px;stroke-linecap:butt;stroke-linejoin:miter;stroke-opacity:1"/>
      <path id="path7683" d="M 812.16328,421.46705 L 808.43348,416.33858 L 759.94612,383.23663 L 671.36344,334.28305 L 619.14629,308.64069 L 624.27476,306.30957 L 751.55408,372.04724 L 816.3593,415.40613 L 817.75797,420.06838 L 812.16328,421.46705 z " style="fill:none;fill-rule:evenodd;stroke:black;stroke-width:1px;stroke-linecap:butt;stroke-linejoin:miter;stroke-opacity:1"/>
      <path id="path7685" d="M 722.64815,459.23124 C 722.64815,459.07584 722.64815,458.92043 722.64815,459.23124 z " style="fill:none;fill-rule:evenodd;stroke:black;stroke-width:1px;stroke-linecap:butt;stroke-linejoin:miter;stroke-opacity:1"/>
      <path id="path7687" d="M 723.11438,459.23124 L 775.79776,508.65105 L 811.23083,555.73974 L 810.29838,561.33443 L 831.27849,558.07086 L 881.16452,540.82055 L 915.19892,526.36759 L 951.56444,505.38748 L 985.13261,483.47492 L 989.32863,474.61666 L 953.89556,431.72399 L 900.74595,386.03398 L 723.11438,459.23124 z " style="fill:none;fill-rule:evenodd;stroke:black;stroke-width:1px;stroke-linecap:butt;stroke-linejoin:miter;stroke-opacity:1"/>
      <path id="path7691" d="M 605.62577,177.39846 C 605.47036,177.24306 605.31496,177.08765 605.62577,177.39846 z " style="fill:none;fill-rule:evenodd;stroke:black;stroke-width:1px;stroke-linecap:butt;stroke-linejoin:miter;stroke-opacity:1"/>
      <path id="path7693" d="M 214.46332,368.78367 L 211.66597,337.54662 L 224.25404,332.88437 L 229.38251,327.7559 L 224.25404,284.39701 L 209.33485,276.93742 L 225.18649,227.51761 L 248.96394,190.68587 L 272.7414,179.9627 L 374.37836,168.30709 L 433.58889,186.48984 L 433.58889,189.28719 L 366.91877,209.80108 L 364.58765,215.862 L 377.17571,328.22213 L 380.90551,357.12805 L 397.6896,365.5201 L 397.22337,421.46705 L 407.01409,476.48155 L 214.46332,368.78367 z " style="fill:none;fill-rule:evenodd;stroke:black;stroke-width:1px;stroke-linecap:butt;stroke-linejoin:miter;stroke-opacity:1"/>
      <path id="path7695" d="M 146.16142,322.16121 L 194.41566,339.17841 L 306.07646,402.11873 L 306.54268,410.27766 L 190.21964,345.47244 L 149.42499,332.18504 L 146.16142,322.16121 z " style="fill:black;fill-rule:evenodd;stroke:black;stroke-width:1px;stroke-linecap:butt;stroke-linejoin:miter;stroke-opacity:1"/>
      <path id="path7697" d="M 150.12433,333.58371 C 150.04662,333.58371 149.96892,333.58371 150.12433,333.58371 z " style="fill:none;fill-rule:evenodd;stroke:black;stroke-width:1px;stroke-linecap:butt;stroke-linejoin:miter;stroke-opacity:1"/>
      <path id="path7699" d="M 150.12433,334.51616 L 190.21964,348.03667 L 306.7758,412.37567 L 310.50559,422.63261 L 189.28719,353.39826 L 152.92167,342.67509 L 150.12433,334.51616 z " style="fill:black;fill-rule:evenodd;stroke:black;stroke-width:1px;stroke-linecap:butt;stroke-linejoin:miter;stroke-opacity:1"/>
      <path id="path7701" d="M 372.28035,437.78491 L 419.83526,463.42727 L 420.06838,472.75176 L 377.17571,449.90675 L 375.77704,442.21405 L 372.28035,437.78491 z " style="fill:black;fill-rule:evenodd;stroke:black;stroke-width:1px;stroke-linecap:butt;stroke-linejoin:miter;stroke-opacity:1"/>
      <path id="path7703" d="M 377.87505,452.23787 L 421.23394,475.08288 L 422.63261,483.0087 L 377.64194,459.93058 L 377.87505,452.23787 z " style="fill:black;fill-rule:evenodd;stroke:black;stroke-width:1px;stroke-linecap:butt;stroke-linejoin:miter;stroke-opacity:1"/>
      <path id="path7705" d="M 352.46581,429.15976 L 353.86448,435.6869 L 343.37443,429.39287 L 342.20887,423.09884 L 309.10692,404.91608 L 307.70824,405.84853 L 309.34003,415.40613 L 312.6036,421.93327 L 324.25922,427.76108 L 324.49233,423.56506 L 316.10029,417.03792 L 315.63406,418.43659 L 320.29631,421.70016 L 315.40095,419.83526 L 311.67115,415.40613 L 311.67115,410.27766 L 329.38769,420.5346 L 332.41815,433.12267 L 336.14795,434.98756 L 333.11749,421.93327 L 339.64463,426.1293 L 341.27642,432.42333 L 354.56382,438.95047 L 355.96249,447.1094 L 358.52673,447.1094 L 355.72938,429.85909 L 352.46581,429.15976 z " style="fill:black;fill-rule:evenodd;stroke:black;stroke-width:1px;stroke-linecap:butt;stroke-linejoin:miter;stroke-opacity:1"/>
      <path id="path7707" d="M 359.45918,432.88955 C 359.53688,432.88955 359.61459,432.88955 359.45918,432.88955 z " style="fill:none;fill-rule:evenodd;stroke:black;stroke-width:1px;stroke-linecap:butt;stroke-linejoin:miter;stroke-opacity:1"/>
      <path id="path7709" d="M 359.69229,432.88955 L 372.04724,439.64981 L 374.84459,444.31206 L 376.01015,453.40344 L 375.54393,455.73456 L 370.88168,454.10277 L 361.32408,448.04185 L 359.45918,443.84583 L 358.52673,435.22068 L 359.69229,432.88955 z " style="fill:black;fill-rule:evenodd;stroke:black;stroke-width:1px;stroke-linecap:butt;stroke-linejoin:miter;stroke-opacity:1"/>
      <path id="path7711" d="M 361.09096,437.08557 L 362.95586,446.41007 L 372.04724,451.53854 L 372.04724,442.68027 L 361.09096,437.08557 z " style="fill:#fc0;fill-opacity:1;fill-rule:evenodd;stroke:black;stroke-width:1px;stroke-linecap:butt;stroke-linejoin:miter;stroke-opacity:1"/>
      <path id="path7713" d="M 340.11086,320.76253 L 340.57708,314.93473 L 310.27248,313.76916 L 306.30957,310.27248 L 306.7758,303.97845 L 311.90427,299.08309 L 329.6208,295.12018 L 348.26979,293.48839 L 355.96249,298.15064 L 359.9254,302.81289 L 359.45918,310.03937 L 354.56382,314.93473 L 349.66846,316.10029 L 349.43535,321.69498 L 344.07376,321.46187 L 340.11086,320.76253 z " style="fill:none;fill-rule:evenodd;stroke:black;stroke-width:1px;stroke-linecap:butt;stroke-linejoin:miter;stroke-opacity:1"/>
      <path id="path7715" d="M 229.61562,328.22213 L 224.02093,284.1639 M 224.02093,284.1639 L 174.36801,262.01823 L 169.47265,262.95068 L 164.34418,267.84604 L 165.97596,292.08972 L 171.33755,311.67115 L 184.39183,323.32677 L 211.89909,338.01284 L 224.95338,332.88437 L 229.61562,328.22213" style="fill:none;fill-rule:evenodd;stroke:black;stroke-width:1px;stroke-linecap:butt;stroke-linejoin:miter;stroke-opacity:1"/>
      <path id="path7717" d="M 224.72026,328.92146 L 215.862,333.58371 L 209.56796,334.04993 L 204.90572,325.42478 L 202.34148,290.92416 L 207.70307,282.76523 L 219.82491,282.99834 L 224.25404,287.19436 L 225.65271,328.22213 L 224.72026,328.92146 z " style="fill:black;fill-rule:evenodd;stroke:black;stroke-width:1px;stroke-linecap:butt;stroke-linejoin:miter;stroke-opacity:1"/>
      <path id="path7719" d="M 470.18752,138.46871 L 460.62992,143.83029 L 453.63655,151.28989 L 454.33589,153.3879 L 486.7385,160.84749 L 510.74906,169.47265 L 522.17157,168.5402 L 563.19933,158.98259 L 530.79672,149.19188 L 470.18752,138.46871 z " style="fill:none;fill-rule:evenodd;stroke:black;stroke-width:1px;stroke-linecap:butt;stroke-linejoin:miter;stroke-opacity:1"/>
      <path id="path7721" d="M 540.35433,187.65541 L 522.8709,176.46602 L 496.99544,166.44219 L 447.1094,153.3879 L 398.85516,145.46208 L 370.18234,151.523 L 438.25114,163.87795 L 482.54248,178.0978 L 502.35702,187.42229 L 511.91463,195.58122 L 534.52652,190.68587 L 540.35433,187.65541 z " style="fill:black;fill-rule:evenodd;stroke:black;stroke-width:1px;stroke-linecap:butt;stroke-linejoin:miter;stroke-opacity:1"/>
      <path id="path7723" d="M 503.98881,196.51367 L 470.18752,204.90572 L 457.83257,194.18255 L 423.33195,180.19581 L 358.75984,163.87795 L 331.71881,160.14815 L 359.69229,153.62101 L 413.77434,161.0806 L 465.05905,175.76668 L 490.23518,186.72296 L 503.98881,196.51367 z " style="fill:black;fill-rule:evenodd;stroke:black;stroke-width:1px;stroke-linecap:butt;stroke-linejoin:miter;stroke-opacity:1"/>
      <path id="path7725" d="M 152.45545,148.25943 L 167.14152,158.28326 L 171.80377,159.2157 L 251.52818,163.17861 L 271.57584,156.88458 L 195.58123,152.45545 L 193.01699,151.28989 L 181.8276,141.49917 L 152.45545,148.25943 z " style="fill:black;fill-rule:evenodd;stroke:black;stroke-width:1px;stroke-linecap:butt;stroke-linejoin:miter;stroke-opacity:1"/>
      <path id="path7727" d="M 187.88852,140.79983 L 198.37857,150.35744 L 201.64215,151.75611 L 281.13344,155.71902 L 303.046,151.05677 L 230.78118,146.39453 L 227.2845,144.76274 L 215.39577,135.67136 L 187.88852,140.79983 z " style="fill:black;fill-rule:evenodd;stroke:black;stroke-width:1px;stroke-linecap:butt;stroke-linejoin:miter;stroke-opacity:1"/>
      <path id="path7729" d="M 258.28844,173.90178 L 423.56506,140.79983 L 384.16908,142.66473 L 335.2155,149.42499 L 264.11624,162.9455 L 197.91235,177.63158 L 258.28844,173.90178 z " style="fill:#333;fill-rule:evenodd;stroke:black;stroke-width:1px;stroke-linecap:butt;stroke-linejoin:miter;stroke-opacity:1"/>
      <path id="path7731" d="M 222.15603,193.48321 L 205.13883,203.74016 L 192.31765,216.32822 L 184.15872,218.19312 L 173.66867,215.16266 L 166.20907,207.00373 L 168.07397,201.87526 L 181.59449,192.78388 L 219.82491,191.3852 L 222.15603,193.48321 z " style="fill:none;fill-rule:evenodd;stroke:black;stroke-width:1px;stroke-linecap:butt;stroke-linejoin:miter;stroke-opacity:1"/>
      <path id="path7733" d="M 213.29776,197.67924 L 213.29776,195.115 L 211.43286,193.2501 L 183.92561,193.71633 L 180.66204,193.2501 L 168.30709,201.87526 L 166.20907,207.00373 L 173.90178,215.16266 L 184.39183,217.96001 L 192.31765,216.09511 L 205.37194,203.74016 L 213.29776,197.67924 z " style="fill:none;fill-rule:evenodd;stroke:black;stroke-width:1px;stroke-linecap:butt;stroke-linejoin:miter;stroke-opacity:1"/>
      <path id="path7735" d="M 211.89909,196.51367 L 210.73353,193.48321 M 210.73353,193.48321 L 194.18255,193.94944 L 194.41566,199.31102 L 200.7097,206.30439 L 212.59842,198.14546 L 211.89909,196.51367" style="fill:black;fill-rule:evenodd;stroke:black;stroke-width:1px;stroke-linecap:butt;stroke-linejoin:miter;stroke-opacity:1"/>
      <path id="path7737" d="M 364.58765,218.19312 L 377.17571,326.35723 M 377.17571,326.35723 L 414.93991,334.74927 L 468.55574,334.74927 L 538.95565,327.28968 L 638.2615,302.57977 L 693.74222,276.00497 L 712.85743,260.15333 L 709.12764,246.63282 L 683.95151,230.78118 L 603.76087,176.2329 L 582.78077,165.50974 L 582.78077,173.90178 L 549.21259,187.88852 L 483.47492,202.80771 L 420.06838,213.9971 L 364.58765,218.19312" style="fill:#333;fill-rule:evenodd;stroke:black;stroke-width:1px;stroke-linecap:butt;stroke-linejoin:miter;stroke-opacity:1"/>
      <path id="path7741" d="M 365.98632,322.62743 L 355.26316,213.9971 L 257.82221,191.61832 L 235.44343,228.91628 L 225.65271,258.28844 L 228.91629,268.54538 L 307.70824,301.1811 L 346.40489,292.32283 L 358.99295,301.64732 L 359.9254,311.43804 L 350.60091,317.49896 L 365.98632,322.62743 z " style="fill:#333;fill-rule:evenodd;stroke:black;stroke-width:1px;stroke-linecap:butt;stroke-linejoin:miter;stroke-opacity:1"/>
      <path id="path7743" d="M 436.38624,497.46166 L 437.78491,470.42063 L 449.90675,447.57563 L 470.88686,428.46042 L 492.79942,421.00083 L 483.47492,413.07501 L 444.77828,415.87235 L 422.86572,439.64981 L 422.3995,480.67758 L 438.25114,491.86697 L 436.38624,497.46166 z " style="fill:black;fill-rule:evenodd;stroke:black;stroke-width:1px;stroke-linecap:butt;stroke-linejoin:miter;stroke-opacity:1"/>
      <path id="path7751" d="M 69.933692,245.93348 L 65.737671,263.18379 L 64.572109,286.26191 L 68.76813,313.30294 L 80.656858,347.10422 L 95.342933,369.48301 L 114.92437,386.03398 L 126.81309,383.70286 L 138.46871,361.32407 L 137.30315,326.59034 L 131.00912,283.23145 L 124.48197,267.61293 L 100.23829,237.54144 L 76.227724,237.54144 L 69.875414,246.22487" style="fill:#333;fill-rule:evenodd;stroke:black;stroke-width:1px;stroke-linecap:butt;stroke-linejoin:miter;stroke-opacity:1"/>
      <path id="path7753" d="M 439.88292,526.6007 L 437.5518,509.81661 L 437.5518,491.16763 L 437.78491,470.65375 L 449.20742,447.1094 L 481.84314,436.38624 L 521.23912,449.20741 L 543.15167,470.65375 L 557.83775,490.00207 L 579.75031,536.39142 L 586.04434,561.80066 L 574.85495,583.71322 L 539.65499,607.49067 L 508.41794,602.82842 L 482.07625,589.77414 L 449.90675,551.54372 L 439.88292,526.6007 z " style="fill:#333;fill-rule:evenodd;stroke:black;stroke-width:1px;stroke-linecap:butt;stroke-linejoin:miter;stroke-opacity:1"/>
      <path id="path7755" d="M 508.41794,604.2271 L 541.51989,611.22047 L 564.59801,605.85888 L 587.2099,589.77414 L 603.99399,574.85495 L 591.87215,569.49336 L 587.2099,562.26688 L 575.08806,583.94633 L 539.8881,607.49067 L 508.41794,604.2271 z " style="fill:#333;fill-rule:evenodd;stroke:black;stroke-width:1px;stroke-linecap:butt;stroke-linejoin:miter;stroke-opacity:1"/>
      <path id="path7757" d="M 116.32304,385.80087 L 140.33361,385.80087 L 160.14815,380.6724 L 166.6753,365.5201 L 153.85412,345.70555 L 132.40779,287.19436 L 137.30315,329.15458 L 138.46871,361.7903 L 127.27932,383.46974 L 116.32304,385.80087 z " style="fill:#333;fill-rule:evenodd;stroke:black;stroke-width:1px;stroke-linecap:butt;stroke-linejoin:miter;stroke-opacity:1"/>
      <path id="path7759" d="M 76.460837,237.77455 C 76.538541,237.77455 76.616245,237.77455 76.460837,237.77455 z " style="fill:none;fill-rule:evenodd;stroke:black;stroke-width:1px;stroke-linecap:butt;stroke-linejoin:miter;stroke-opacity:1"/>
      <path id="path7761" d="M 76.227724,237.77455 L 89.98135,226.58516 L 103.03564,238.00766 L 76.227724,237.77455 z " style="fill:black;fill-rule:evenodd;stroke:black;stroke-width:1px;stroke-linecap:butt;stroke-linejoin:miter;stroke-opacity:1"/>
      <path id="path9551" d="M 452.00476,445.94384 L 471.11997,428.46042 L 493.73187,421.23394 L 514.94509,434.75445 L 538.48943,465.05905 L 521.70534,449.44053 L 482.07625,436.38624 L 452.00476,445.94384 z " style="fill:#333;fill-rule:evenodd;stroke:black;stroke-width:1px;stroke-linecap:butt;stroke-linejoin:miter;stroke-opacity:1"/>
      <path id="path9555" d="M 448.352,482.33604 L 455.60475,460.57778 L 479.34103,450.68766 L 524.17623,464.53383 L 550.54988,493.54484 L 570.33011,539.69872 L 570.33011,572.66578 L 545.27515,597.0614 L 499.78061,589.14931 L 456.26409,545.63279 L 445.71463,503.43495 L 448.352,482.33604 z " style="fill:white;fill-rule:evenodd;stroke:black;stroke-width:1px;stroke-linecap:butt;stroke-linejoin:miter;stroke-opacity:1"/>
      <path id="path9557" d="M 110.76932,259.47872 L 130.54955,304.97326 L 134.5056,363.65463 L 119.34075,374.86343 L 98.241834,359.03924 L 75.824235,315.52272 L 69.890164,283.87435 L 72.527529,266.07213 L 78.461599,248.92926 L 97.582493,245.63256 L 110.76932,259.47872 z " style="fill:white;fill-rule:evenodd;stroke:black;stroke-width:1px;stroke-linecap:butt;stroke-linejoin:miter;stroke-opacity:1"/>
      <path transform="matrix(0.341075,0.940036,-0.940036,0.341075,348.994,110.6929)" sodipodi:open="true" sodipodi:end="6.0642989" sodipodi:start="0" d="M 102.85723,299.69855 A 5.2747293,4.2857175 0 1 1 102.73137,298.76793" sodipodi:ry="4.2857175" sodipodi:rx="5.2747293" sodipodi:cy="299.69855" sodipodi:cx="97.582497" id="path9561" style="fill:black;fill-opacity:1;fill-rule:evenodd;stroke:none;stroke-width:5;stroke-miterlimit:4;stroke-dasharray:none;stroke-opacity:1" sodipodi:type="arc"/>
      <path id="path9563" d="M 101.53854,301.34689 C 101.9781,301.34689 101.9781,301.34689 101.53854,301.34689 z " style="fill:none;fill-rule:evenodd;stroke:black;stroke-width:1px;stroke-linecap:butt;stroke-linejoin:miter;stroke-opacity:1"/>
      <path id="path9565" d="M 102.52755,301.67656 L 115.3847,269.69851" style="fill:none;fill-rule:evenodd;stroke:black;stroke-width:1px;stroke-linecap:butt;stroke-linejoin:miter;stroke-opacity:1"/>
      <path id="path9567" d="M 107.14294,256.18202 L 99.890187,302.00623 L 95.60447,245.96223" style="fill:none;fill-rule:evenodd;stroke:black;stroke-width:1px;stroke-linecap:butt;stroke-linejoin:miter;stroke-opacity:1"/>
      <path id="path9569" d="M 83.406658,247.94025 L 99.230846,302.99524 L 72.857199,265.08312" style="fill:none;fill-rule:evenodd;stroke:black;stroke-width:1px;stroke-linecap:butt;stroke-linejoin:miter;stroke-opacity:1"/>
      <path id="path9571" d="M 70.219835,280.90731 L 94.285788,300.68754 C 95.578396,301.46311 98.748328,303.52797 98.901176,303.98425 L 71.868188,296.40183" style="fill:none;fill-rule:evenodd;stroke:black;stroke-width:1px;stroke-linecap:butt;stroke-linejoin:miter;stroke-opacity:1"/>
      <path id="path9573" d="M 75.494564,314.20404 L 99.560517,305.6326 L 82.417646,329.03922" style="fill:none;fill-rule:evenodd;stroke:black;stroke-width:1px;stroke-linecap:butt;stroke-linejoin:miter;stroke-opacity:1"/>
      <path id="path9575" d="M 100.21986,307.61063 L 92.307764,347.83044" style="fill:none;fill-rule:evenodd;stroke:black;stroke-width:1px;stroke-linecap:butt;stroke-linejoin:miter;stroke-opacity:1"/>
      <path id="path9577" d="M 102.85722,307.9403 L 101.20887,361.6766" style="fill:none;fill-rule:evenodd;stroke:black;stroke-width:1px;stroke-linecap:butt;stroke-linejoin:miter;stroke-opacity:1"/>
      <path id="path9579" d="M 119.34075,373.87441 L 101.20887,306.29194 L 130.54955,365.63265" style="fill:none;fill-rule:evenodd;stroke:black;stroke-width:1px;stroke-linecap:butt;stroke-linejoin:miter;stroke-opacity:1"/>
      <path id="path9581" d="M 101.86821,308.92931 L 134.17593,350.13813" style="fill:none;fill-rule:evenodd;stroke:black;stroke-width:1px;stroke-linecap:butt;stroke-linejoin:miter;stroke-opacity:1"/>
      <path id="path9583" d="M 102.52755,306.95129 C 102.52755,307.39085 102.52755,307.39085 102.52755,306.95129 z " style="fill:none;fill-rule:evenodd;stroke:black;stroke-width:1px;stroke-linecap:butt;stroke-linejoin:miter;stroke-opacity:1"/>
      <path id="path9585" d="M 132.1979,329.36889 L 102.19788,306.95129 L 130.87922,306.95129" style="fill:none;fill-rule:evenodd;stroke:black;stroke-width:1px;stroke-linecap:butt;stroke-linejoin:miter;stroke-opacity:1"/>
      <path id="path9587" d="M 101.20887,305.96227 C 101.64843,305.96227 101.64843,305.96227 101.20887,305.96227 z " style="fill:none;fill-rule:evenodd;stroke:black;stroke-width:1px;stroke-linecap:butt;stroke-linejoin:miter;stroke-opacity:1"/>
      <path id="path9589" d="M 101.53854,305.96227 L 124.61548,293.76446" style="fill:none;fill-rule:evenodd;stroke:black;stroke-width:1px;stroke-linecap:butt;stroke-linejoin:miter;stroke-opacity:1"/>
      <path id="path9591" d="M 100.54953,303.65458 L 120.65943,283.87434" style="fill:none;fill-rule:evenodd;stroke:black;stroke-width:1px;stroke-linecap:butt;stroke-linejoin:miter;stroke-opacity:1"/>
      <path transform="matrix(-0.835791,0.131272,0.549048,1.110237,637.1953,-124.3368)" sodipodi:open="true" sodipodi:end="6.0642989" sodipodi:start="0" d="M 513.77952,526.95038 A 9.0913801,8.2754869 0 1 1 513.5626,525.15342" sodipodi:ry="8.2754869" sodipodi:rx="9.0913801" sodipodi:cy="526.95038" sodipodi:cx="504.68814" id="path9593" style="fill:black;fill-opacity:1;fill-rule:evenodd;stroke:none;stroke-width:5;stroke-miterlimit:4;stroke-dasharray:none;stroke-opacity:1" sodipodi:type="arc"/>
      <path id="path9595" d="M 507.25238,524.26958 C 507.5632,524.26958 507.5632,524.26958 507.25238,524.26958 z " style="fill:none;fill-rule:evenodd;stroke:black;stroke-width:1px;stroke-linecap:butt;stroke-linejoin:miter;stroke-opacity:1"/>
      <path id="path9597" d="M 507.25238,524.03646 L 542.45234,486.03916" style="fill:none;fill-rule:evenodd;stroke:black;stroke-width:1px;stroke-linecap:butt;stroke-linejoin:miter;stroke-opacity:1"/>
      <path id="path9599" d="M 505.15437,527.06692 L 530.09739,471.35308" style="fill:none;fill-rule:evenodd;stroke:black;stroke-width:1px;stroke-linecap:butt;stroke-linejoin:miter;stroke-opacity:1"/>
      <path id="path9601" d="M 503.52258,525.66825 L 514.01264,461.56237" style="fill:none;fill-rule:evenodd;stroke:black;stroke-width:1px;stroke-linecap:butt;stroke-linejoin:miter;stroke-opacity:1"/>
      <path id="path9603" d="M 504.92126,526.13448 L 501.42457,457.59946" style="fill:none;fill-rule:evenodd;stroke:black;stroke-width:1px;stroke-linecap:butt;stroke-linejoin:miter;stroke-opacity:1"/>
      <path id="path9605" d="M 502.35702,524.03646 L 483.0087,451.77165" style="fill:none;fill-rule:evenodd;stroke:black;stroke-width:1px;stroke-linecap:butt;stroke-linejoin:miter;stroke-opacity:1"/>
      <path id="path9607" d="M 503.75569,525.90136 L 456.90012,459.69747" style="fill:none;fill-rule:evenodd;stroke:black;stroke-width:1px;stroke-linecap:butt;stroke-linejoin:miter;stroke-opacity:1"/>
      <path id="path9609" d="M 500.95835,523.33713 L 448.27497,486.97161" style="fill:none;fill-rule:evenodd;stroke:black;stroke-width:1px;stroke-linecap:butt;stroke-linejoin:miter;stroke-opacity:1"/>
      <path id="path9611" d="M 502.35702,525.90136 L 447.80874,511.21529" style="fill:none;fill-rule:evenodd;stroke:black;stroke-width:1px;stroke-linecap:butt;stroke-linejoin:miter;stroke-opacity:1"/>
      <path id="path9613" d="M 502.82325,527.99937 C 502.74554,527.99937 502.66784,527.99937 502.82325,527.99937 z " style="fill:none;fill-rule:evenodd;stroke:black;stroke-width:1px;stroke-linecap:butt;stroke-linejoin:miter;stroke-opacity:1"/>
      <path id="path9615" d="M 503.05636,528.23249 L 452.00476,531.72917" style="fill:none;fill-rule:evenodd;stroke:black;stroke-width:1px;stroke-linecap:butt;stroke-linejoin:miter;stroke-opacity:1"/>
      <path id="path9617" d="M 504.22192,528.23249 L 463.19415,552.47617" style="fill:none;fill-rule:evenodd;stroke:black;stroke-width:1px;stroke-linecap:butt;stroke-linejoin:miter;stroke-opacity:1"/>
      <path id="path9619" d="M 504.45503,530.09738 L 479.97824,569.26025" style="fill:none;fill-rule:evenodd;stroke:black;stroke-width:1px;stroke-linecap:butt;stroke-linejoin:miter;stroke-opacity:1"/>
      <path id="path9621" d="M 507.01927,531.72917 L 500.0259,588.60857" style="fill:none;fill-rule:evenodd;stroke:black;stroke-width:1px;stroke-linecap:butt;stroke-linejoin:miter;stroke-opacity:1"/>
      <path id="path9623" d="M 508.18483,531.96228 C 508.18483,532.03999 508.18483,532.11769 508.18483,531.96228 z " style="fill:none;fill-rule:evenodd;stroke:black;stroke-width:1px;stroke-linecap:butt;stroke-linejoin:miter;stroke-opacity:1"/>
      <path id="path9625" d="M 508.65105,532.1954 L 522.17157,593.73704" style="fill:none;fill-rule:evenodd;stroke:black;stroke-width:1px;stroke-linecap:butt;stroke-linejoin:miter;stroke-opacity:1"/>
      <path id="path9627" d="M 510.28284,532.1954 L 550.61127,591.40592" style="fill:none;fill-rule:evenodd;stroke:black;stroke-width:1px;stroke-linecap:butt;stroke-linejoin:miter;stroke-opacity:1"/>
      <path id="path9629" d="M 508.65105,528.93182 L 570.89204,572.29071" style="fill:none;fill-rule:evenodd;stroke:black;stroke-width:1px;stroke-linecap:butt;stroke-linejoin:miter;stroke-opacity:1"/>
      <path id="path9631" d="M 509.5835,530.56361 L 571.12515,549.67882" style="fill:none;fill-rule:evenodd;stroke:black;stroke-width:1px;stroke-linecap:butt;stroke-linejoin:miter;stroke-opacity:1"/>
      <path id="path9633" d="M 507.95172,529.39805 L 564.36489,527.30004" style="fill:none;fill-rule:evenodd;stroke:black;stroke-width:1px;stroke-linecap:butt;stroke-linejoin:miter;stroke-opacity:1"/>
      <path id="path9635" d="M 507.7186,526.83381 L 556.43908,507.01927" style="fill:none;fill-rule:evenodd;stroke:black;stroke-width:1px;stroke-linecap:butt;stroke-linejoin:miter;stroke-opacity:1"/>
      <path id="path3981" d="M 66.203895,262.01823 L 69.001243,247.09904 L 78.325735,237.77455 L 90.447575,226.58516 L 75.528387,220.05802 L 65.271446,224.72026 L 60.6092,237.77455 L 61.541649,255.49109 L 66.203895,262.01823 z " style="fill:black;fill-rule:evenodd;stroke:black;stroke-width:1px;stroke-linecap:butt;stroke-linejoin:miter;stroke-opacity:1"/>
    </g>
  </g>
  <metadata>
    <rdf:RDF>
      <cc:Work>
        <dc:format>image/svg+xml</dc:format>
        <dc:type rdf:resource="http://purl.org/dc/dcmitype/StillImage"/>
        <cc:license rdf:resource="http://creativecommons.org/licenses/publicdomain/"/>
        <dc:publisher>
          <cc:Agent rdf:about="http://openclipart.org/">
            <dc:title>Open Clip Art Library</dc:title>
          </cc:Agent>
        </dc:publisher>
        <dc:title>yellow car</dc:title>
        <dc:date>2007-01-07T04:32:39</dc:date>
        <dc:description>Yellow sports car.</dc:description>
        <dc:source>http://openclipart.org/detail/2827/yellow-car-by-machovka</dc:source>
        <dc:creator>
          <cc:Agent>
            <dc:title>Machovka</dc:title>
          </cc:Agent>
        </dc:creator>
        <dc:subject>
          <rdf:Bag>
            <rdf:li>vehicle</rdf:li>
            <rdf:li>car</rdf:li>
            <rdf:li>yellow</rdf:li>
          </rdf:Bag>
        </dc:subject>
      </cc:Work>
      <cc:License rdf:about="http://creativecommons.org/licenses/publicdomain/">
        <cc:permits rdf:resource="http://creativecommons.org/ns#Reproduction"/>
        <cc:permits rdf:resource="http://creativecommons.org/ns#Distribution"/>
        <cc:permits rdf:resource="http://creativecommons.org/ns#DerivativeWorks"/>
      </cc:License>
    </rdf:RDF>
  </metadata>
</svg>
