<?xml version="1.0" encoding="UTF-8" standalone="no"?>
<!-- Created with Inkscape (http://www.inkscape.org/) -->
<svg xmlns:dc="http://purl.org/dc/elements/1.1/" xmlns:cc="http://creativecommons.org/ns#" xmlns:rdf="http://www.w3.org/1999/02/22-rdf-syntax-ns#" xmlns:svg="http://www.w3.org/2000/svg" xmlns="http://www.w3.org/2000/svg" xmlns:sodipodi="http://sodipodi.sourceforge.net/DTD/sodipodi-0.dtd" xmlns:inkscape="http://www.inkscape.org/namespaces/inkscape" width="716.12109" height="575.0304" id="svg2" version="1.1" inkscape:version="0.47 r22583" sodipodi:docname="fall14.svg">
  <defs id="defs4">
    <inkscape:perspective sodipodi:type="inkscape:persp3d" inkscape:vp_x="0 : 526.18109 : 1" inkscape:vp_y="0 : 1000 : 0" inkscape:vp_z="744.09448 : 526.18109 : 1" inkscape:persp3d-origin="372.04724 : 350.78739 : 1" id="perspective10"/>
    <inkscape:perspective id="perspective2824" inkscape:persp3d-origin="0.5 : 0.33333333 : 1" inkscape:vp_z="1 : 0.5 : 1" inkscape:vp_y="0 : 1000 : 0" inkscape:vp_x="0 : 0.5 : 1" sodipodi:type="inkscape:persp3d"/>
    <inkscape:perspective id="perspective3612" inkscape:persp3d-origin="0.5 : 0.33333333 : 1" inkscape:vp_z="1 : 0.5 : 1" inkscape:vp_y="0 : 1000 : 0" inkscape:vp_x="0 : 0.5 : 1" sodipodi:type="inkscape:persp3d"/>
  </defs>
  <sodipodi:namedview id="base" pagecolor="#ffffff" bordercolor="#666666" borderopacity="1.0" inkscape:pageopacity="0.0" inkscape:pageshadow="2" inkscape:zoom="0.74256944" inkscape:cx="377.58734" inkscape:cy="287.51517" inkscape:document-units="px" inkscape:current-layer="layer1" showgrid="false" inkscape:window-width="1024" inkscape:window-height="693" inkscape:window-x="-9" inkscape:window-y="-9" inkscape:window-maximized="1"/>
  <g inkscape:label="Layer 1" inkscape:groupmode="layer" id="layer1" transform="translate(-51.401876,-118.23794)">
    <g id="g4053" style="fill:#aa4400">
      <g transform="matrix(0.28995135,-0.23734727,-0.23734727,-0.28995135,529.47869,445.93705)" id="g3999" style="fill:#552200">
        <path sodipodi:nodetypes="ccsssssscsssssssssssscscscccssscccsccccscsssssscsscssssssscsscssssccssscsccsssssscssccsssccssc" style="fill:#552200;stroke:#000000;stroke-width:5.50000000000000000;stroke-linecap:butt;stroke-linejoin:miter;stroke-miterlimit:4;stroke-opacity:1;stroke-dasharray:none" d="m 54.220066,658.03443 18.484113,1.23228 c 0,0 -1.232274,-8.62592 7.393645,-19.71639 8.62592,-11.09047 103.511036,-101.04649 123.227426,-117.06605 19.71638,-16.01957 82.56237,-69.00736 88.72374,-69.00736 6.16137,0 29.57458,13.55502 34.50368,25.87776 4.92909,12.32274 20.94866,39.43278 28.34231,43.1296 7.39364,3.69682 50.52324,24.64548 61.61371,24.64548 11.09046,0 4.92909,-20.94866 4.92909,-20.94866 0,0 34.50368,14.78729 40.66505,13.55502 6.16137,-1.23228 1.23228,-8.62592 7.39365,-7.39365 6.16137,1.23228 17.25184,11.09047 30.80685,4.9291 13.55502,-6.16137 -2.46455,-14.78729 14.78729,-19.71639 17.25184,-4.9291 14.78729,2.46455 23.41321,-3.69682 8.62592,-6.16137 -8.62592,-4.9291 9.8582,-6.16137 18.48411,-1.23228 18.48411,-1.23228 19.71639,-7.39365 1.23227,-6.16137 -12.32275,-4.92909 8.62591,-6.16137 20.94867,-1.23227 22.18094,2.46455 32.03913,-1.23227 9.8582,-3.69683 -7.39364,-8.62592 9.8582,-6.16137 17.25184,2.46454 8.62592,11.09046 25.87776,3.69682 17.25184,-7.39365 34.50367,-17.25184 38.2005,-20.94866 3.69682,-3.69683 4.92909,-7.39365 4.92909,-7.39365 0,0 -27.11003,3.69682 -36.96822,-2.46455 -9.8582,-6.16137 -18.48412,-12.32274 -18.48412,-12.32274 0,0 -7.39364,2.46455 -12.32274,-2.46455 -4.92909,-4.92909 -9.85819,-12.32274 -9.85819,-12.32274 l -14.78729,-2.46455 -11.09047,-11.09047 c 0,0 -13.55502,-7.39364 -19.71639,-9.85819 -6.16137,-2.46455 6.16137,-8.62592 0,-12.32274 -6.16137,-3.69682 -18.48411,-7.39365 -23.41321,-11.09047 -4.92909,-3.69682 -4.92909,-4.9291 -4.92909,-4.9291 l 19.75492,-24.99562 -4.96763,-11.9726 c 0,0 18.48411,-2.46455 27.11003,-20.94867 8.62592,-18.48411 8.62592,-32.03912 8.62592,-32.03912 l -13.55502,-6.16138 12.32274,-29.57458 -6.7775,-2.46455 c 0,0 9.24205,-12.32274 8.00978,-17.25184 -1.23228,-4.92909 -3.69682,-8.62591 -3.69682,-8.62591 0,0 17.25184,-27.11004 17.25184,-29.57459 0,-2.46454 -4.9291,-6.16137 -1.84842,-11.09046 3.08069,-4.9291 0.61614,-0.61614 9.24206,-6.77751 8.62592,-6.16137 2.46455,-13.55502 7.39365,-21.5648 4.92909,-8.00978 3.69682,-8.00978 7.39364,-16.6357 3.69682,-8.62592 8.62592,-15.40343 8.62592,-24.02935 0,-8.62592 0,-14.78729 0,-14.78729 0,0 -50.52324,57.91689 -54.22007,57.91689 -3.69682,0 -4.31295,2.46455 -7.39364,-1.23228 -3.08069,-3.69682 -3.69682,-3.69682 -3.69682,-3.69682 0,0 -22.18094,20.94866 -27.72617,20.94866 -5.54524,0 -4.31296,-6.77751 -9.24206,-8.62592 -4.9291,-1.84841 -3.08069,-1.84841 -15.40343,4.9291 -12.32274,6.77751 3.08069,11.7066 -6.16137,9.85819 -9.24206,-1.84841 -4.31296,-7.39364 -11.09047,-4.31296 -6.7775,3.08069 -9.24205,1.84841 -16.6357,8.00979 -7.39364,6.16137 -7.39364,9.24205 -7.39364,6.16137 0,-3.08069 -7.39365,-26.4939 -7.39365,-26.4939 0,0 -30.19072,8.62592 -37.58436,16.01957 -7.39365,7.39364 -12.32275,12.93888 -12.32275,14.78729 0,1.84841 -2.46454,4.92909 -2.46454,4.92909 0,0 -4.31296,-4.92909 -7.39365,-4.92909 -3.08068,0 0,-6.77751 -13.55502,3.08068 -13.55501,9.8582 -30.19071,17.25184 -30.19071,20.33253 0,3.08068 2.46454,5.54523 0,3.08068 -2.46455,-2.46455 -20.94867,-38.81664 -20.94867,-38.81664 l -3.69682,1.84842 c 0,0 -4.92909,-28.95845 -8.62592,-35.73596 -3.69682,-6.7775 -6.77751,-1.84841 -6.77751,-12.32274 0,-10.47433 0,-8.00978 0,-18.48411 0,-10.47433 -3.69682,-22.797075 -3.69682,-22.797075 0,0 -28.95844,43.745735 -35.73595,54.836205 -6.77751,11.09047 -5.54523,17.25184 -5.54523,17.25184 l -5.54524,-1.23228 c 0,0 -6.77751,-1.84841 -11.09047,10.47433 -4.31296,12.32275 -10.47433,35.11982 -11.7066,38.81664 -1.23228,3.69682 -1.23228,5.54524 -3.69682,5.54524 -2.46455,0 -2.46455,-4.31296 -4.9291,-3.08069 -2.46455,1.23227 -8.00978,-0.61614 -8.62592,8.00978 -0.61614,8.62592 6.77751,67.15895 4.31296,72.70418 -2.46455,5.54524 -3.69682,5.54524 -3.69682,5.54524 0,0 -11.70661,-3.69683 -12.32275,-0.61614 -0.61613,3.08068 -8.00978,9.24205 -3.08068,15.40343 4.9291,6.16137 11.09047,14.78729 11.09047,14.78729 l -8.62592,0 c 0,0 26.49389,31.42299 21.5648,34.50367 -4.9291,3.08069 -5.54524,-0.61613 -7.39365,5.54524 -1.84841,6.16137 3.69682,14.17115 9.85819,19.71639 6.16138,5.54523 44.97801,44.97801 44.97801,44.97801 l -0.61613,6.7775 c 0,0 -140.47926,104.12718 -140.47926,106.59172 0,2.46455 -83.794652,79.48169 -86.2592,86.87534 -2.464549,7.39364 -6.161371,19.10025 -5.545234,17.86797 z" id="path4001"/>
        <path style="fill:#552200;stroke:#000000;stroke-width:3;stroke-linecap:butt;stroke-linejoin:miter;stroke-miterlimit:4;stroke-opacity:1;stroke-dasharray:none" d="m 246.10338,347.20531 c 0,0 -7.98173,-53.21154 -11.9726,-81.1476 -3.99086,-27.93606 -15.96346,-18.62404 -3.99086,-51.88126 11.97259,-33.25721 5.32115,-73.16587 9.31202,-87.79904 3.99086,-14.63317 25.27548,-115.735102 25.27548,-115.735102" id="path4003" transform="translate(51.401877,93.983525)"/>
        <path style="fill:#552200;stroke:#000000;stroke-width:1px;stroke-linecap:butt;stroke-linejoin:miter;stroke-opacity:1" d="m 400.41685,214.17645 c 0,0 34.5875,9.31202 61.19327,-1.33028 26.60577,-10.64231 45.22981,-3.99087 54.54183,-7.98174 9.31202,-3.99086 15.96346,-7.98173 15.96346,-7.98173" id="path4005" transform="translate(51.401877,93.983525)"/>
        <path sodipodi:nodetypes="cssc" style="fill:#552200;stroke:#000000;stroke-width:1px;stroke-linecap:butt;stroke-linejoin:miter;stroke-opacity:1" d="m 358.54243,236.8991 c 0,0 -21.97943,-20.06207 -8.67655,-50.65871 13.30289,-30.59663 21.28462,-27.93605 30.59664,-50.55096 9.31202,-22.6149 30.59664,-59.862984 30.59664,-59.862984" id="path4007" transform="translate(51.401877,93.983525)"/>
        <path style="fill:#552200;stroke:#000000;stroke-width:1px;stroke-linecap:butt;stroke-linejoin:miter;stroke-opacity:1" d="m 333.79465,419.73714 c 0,0 -14.63317,-17.29375 -2.66058,-42.56924 11.9726,-25.27548 15.96347,-25.27548 11.9726,-38.57836 -3.99087,-13.30289 -6.65144,-63.85385 -6.65144,-63.85385" id="path4009"/>
        <path style="fill:#552200;stroke:#000000;stroke-width:1px;stroke-linecap:butt;stroke-linejoin:miter;stroke-opacity:1" d="m 305.96636,295.32405 c 0,0 55.87212,15.96347 71.83558,9.31202 15.96347,-6.65144 23.9452,-18.62404 45.22981,-25.27548 21.28462,-6.65144 18.62404,0 29.26635,1.33029 10.64231,1.33029 15.96346,2.66058 15.96346,2.66058" id="path4011" transform="translate(51.401877,93.983525)"/>
        <path transform="matrix(2.6687501,0,0,2.6687501,51.401877,-721.99778)" id="path4013" d="m 235.95337,445.12285 c 0,0 -39.53813,7.65254 -58.66948,3.18856 -19.13136,-4.46398 -61.85805,-8.92796 -66.95974,-9.56568 -5.1017,-0.63771 -14.667377,-3.18856 -14.667377,-3.18856" style="fill:#552200;stroke:#000000;stroke-width:1px;stroke-linecap:butt;stroke-linejoin:miter;stroke-opacity:1"/>
        <path transform="matrix(2.6687501,0,0,2.6687501,51.401877,-721.99778)" id="path4015" d="m 90.555079,437.47031 c 0,0 15.942791,-6.37712 22.319911,-17.21822 6.37712,-10.8411 0.63771,-12.75424 14.02966,-21.04449 13.39195,-8.29025 19.76907,-8.92797 23.59534,-14.02966 3.82627,-5.10169 35.07415,-36.98729 40.81356,-43.3644 5.7394,-6.37712 11.47881,-5.1017 14.02966,-10.20339 2.55084,-5.1017 11.47881,-19.76907 11.47881,-19.76907" style="fill:#552200;stroke:#000000;stroke-width:1px;stroke-linecap:butt;stroke-linejoin:miter;stroke-opacity:1"/>
      </g>
      <g transform="matrix(0.25173725,0.27754977,-0.27754977,0.25173725,329.46655,280.05855)" id="g3873" style="fill:#803300">
        <path sodipodi:nodetypes="ccsssssscsssssssssssscscscccssscccsccccscsssssscsscssssssscsscssssccssscsccsssssscssccsssccssc" style="fill:#803300;stroke:#000000;stroke-width:5.50000000000000000;stroke-linecap:butt;stroke-linejoin:miter;stroke-miterlimit:4;stroke-opacity:1;stroke-dasharray:none" d="m 54.220066,658.03443 18.484113,1.23228 c 0,0 -1.232274,-8.62592 7.393645,-19.71639 8.62592,-11.09047 103.511036,-101.04649 123.227426,-117.06605 19.71638,-16.01957 82.56237,-69.00736 88.72374,-69.00736 6.16137,0 29.57458,13.55502 34.50368,25.87776 4.92909,12.32274 20.94866,39.43278 28.34231,43.1296 7.39364,3.69682 50.52324,24.64548 61.61371,24.64548 11.09046,0 4.92909,-20.94866 4.92909,-20.94866 0,0 34.50368,14.78729 40.66505,13.55502 6.16137,-1.23228 1.23228,-8.62592 7.39365,-7.39365 6.16137,1.23228 17.25184,11.09047 30.80685,4.9291 13.55502,-6.16137 -2.46455,-14.78729 14.78729,-19.71639 17.25184,-4.9291 14.78729,2.46455 23.41321,-3.69682 8.62592,-6.16137 -8.62592,-4.9291 9.8582,-6.16137 18.48411,-1.23228 18.48411,-1.23228 19.71639,-7.39365 1.23227,-6.16137 -12.32275,-4.92909 8.62591,-6.16137 20.94867,-1.23227 22.18094,2.46455 32.03913,-1.23227 9.8582,-3.69683 -7.39364,-8.62592 9.8582,-6.16137 17.25184,2.46454 8.62592,11.09046 25.87776,3.69682 17.25184,-7.39365 34.50367,-17.25184 38.2005,-20.94866 3.69682,-3.69683 4.92909,-7.39365 4.92909,-7.39365 0,0 -27.11003,3.69682 -36.96822,-2.46455 -9.8582,-6.16137 -18.48412,-12.32274 -18.48412,-12.32274 0,0 -7.39364,2.46455 -12.32274,-2.46455 -4.92909,-4.92909 -9.85819,-12.32274 -9.85819,-12.32274 l -14.78729,-2.46455 -11.09047,-11.09047 c 0,0 -13.55502,-7.39364 -19.71639,-9.85819 -6.16137,-2.46455 6.16137,-8.62592 0,-12.32274 -6.16137,-3.69682 -18.48411,-7.39365 -23.41321,-11.09047 -4.92909,-3.69682 -4.92909,-4.9291 -4.92909,-4.9291 l 19.75492,-24.99562 -4.96763,-11.9726 c 0,0 18.48411,-2.46455 27.11003,-20.94867 8.62592,-18.48411 8.62592,-32.03912 8.62592,-32.03912 l -13.55502,-6.16138 12.32274,-29.57458 -6.7775,-2.46455 c 0,0 9.24205,-12.32274 8.00978,-17.25184 -1.23228,-4.92909 -3.69682,-8.62591 -3.69682,-8.62591 0,0 17.25184,-27.11004 17.25184,-29.57459 0,-2.46454 -4.9291,-6.16137 -1.84842,-11.09046 3.08069,-4.9291 0.61614,-0.61614 9.24206,-6.77751 8.62592,-6.16137 2.46455,-13.55502 7.39365,-21.5648 4.92909,-8.00978 3.69682,-8.00978 7.39364,-16.6357 3.69682,-8.62592 8.62592,-15.40343 8.62592,-24.02935 0,-8.62592 0,-14.78729 0,-14.78729 0,0 -50.52324,57.91689 -54.22007,57.91689 -3.69682,0 -4.31295,2.46455 -7.39364,-1.23228 -3.08069,-3.69682 -3.69682,-3.69682 -3.69682,-3.69682 0,0 -22.18094,20.94866 -27.72617,20.94866 -5.54524,0 -4.31296,-6.77751 -9.24206,-8.62592 -4.9291,-1.84841 -3.08069,-1.84841 -15.40343,4.9291 -12.32274,6.77751 3.08069,11.7066 -6.16137,9.85819 -9.24206,-1.84841 -4.31296,-7.39364 -11.09047,-4.31296 -6.7775,3.08069 -9.24205,1.84841 -16.6357,8.00979 -7.39364,6.16137 -7.39364,9.24205 -7.39364,6.16137 0,-3.08069 -7.39365,-26.4939 -7.39365,-26.4939 0,0 -30.19072,8.62592 -37.58436,16.01957 -7.39365,7.39364 -12.32275,12.93888 -12.32275,14.78729 0,1.84841 -2.46454,4.92909 -2.46454,4.92909 0,0 -4.31296,-4.92909 -7.39365,-4.92909 -3.08068,0 0,-6.77751 -13.55502,3.08068 -13.55501,9.8582 -30.19071,17.25184 -30.19071,20.33253 0,3.08068 2.46454,5.54523 0,3.08068 -2.46455,-2.46455 -20.94867,-38.81664 -20.94867,-38.81664 l -3.69682,1.84842 c 0,0 -4.92909,-28.95845 -8.62592,-35.73596 -3.69682,-6.7775 -6.77751,-1.84841 -6.77751,-12.32274 0,-10.47433 0,-8.00978 0,-18.48411 0,-10.47433 -3.69682,-22.797075 -3.69682,-22.797075 0,0 -28.95844,43.745735 -35.73595,54.836205 -6.77751,11.09047 -5.54523,17.25184 -5.54523,17.25184 l -5.54524,-1.23228 c 0,0 -6.77751,-1.84841 -11.09047,10.47433 -4.31296,12.32275 -10.47433,35.11982 -11.7066,38.81664 -1.23228,3.69682 -1.23228,5.54524 -3.69682,5.54524 -2.46455,0 -2.46455,-4.31296 -4.9291,-3.08069 -2.46455,1.23227 -8.00978,-0.61614 -8.62592,8.00978 -0.61614,8.62592 6.77751,67.15895 4.31296,72.70418 -2.46455,5.54524 -3.69682,5.54524 -3.69682,5.54524 0,0 -11.70661,-3.69683 -12.32275,-0.61614 -0.61613,3.08068 -8.00978,9.24205 -3.08068,15.40343 4.9291,6.16137 11.09047,14.78729 11.09047,14.78729 l -8.62592,0 c 0,0 26.49389,31.42299 21.5648,34.50367 -4.9291,3.08069 -5.54524,-0.61613 -7.39365,5.54524 -1.84841,6.16137 3.69682,14.17115 9.85819,19.71639 6.16138,5.54523 44.97801,44.97801 44.97801,44.97801 l -0.61613,6.7775 c 0,0 -140.47926,104.12718 -140.47926,106.59172 0,2.46455 -83.794652,79.48169 -86.2592,86.87534 -2.464549,7.39364 -6.161371,19.10025 -5.545234,17.86797 z" id="path3875"/>
        <path style="fill:#803300;stroke:#000000;stroke-width:3;stroke-linecap:butt;stroke-linejoin:miter;stroke-miterlimit:4;stroke-opacity:1;stroke-dasharray:none" d="m 246.10338,347.20531 c 0,0 -7.98173,-53.21154 -11.9726,-81.1476 -3.99086,-27.93606 -15.96346,-18.62404 -3.99086,-51.88126 11.97259,-33.25721 5.32115,-73.16587 9.31202,-87.79904 3.99086,-14.63317 25.27548,-115.735102 25.27548,-115.735102" id="path3877" transform="translate(51.401877,93.983525)"/>
        <path style="fill:#803300;stroke:#000000;stroke-width:1px;stroke-linecap:butt;stroke-linejoin:miter;stroke-opacity:1" d="m 400.41685,214.17645 c 0,0 34.5875,9.31202 61.19327,-1.33028 26.60577,-10.64231 45.22981,-3.99087 54.54183,-7.98174 9.31202,-3.99086 15.96346,-7.98173 15.96346,-7.98173" id="path3879" transform="translate(51.401877,93.983525)"/>
        <path sodipodi:nodetypes="cssc" style="fill:#803300;stroke:#000000;stroke-width:1px;stroke-linecap:butt;stroke-linejoin:miter;stroke-opacity:1" d="m 358.54243,236.8991 c 0,0 -21.97943,-20.06207 -8.67655,-50.65871 13.30289,-30.59663 21.28462,-27.93605 30.59664,-50.55096 9.31202,-22.6149 30.59664,-59.862984 30.59664,-59.862984" id="path3881" transform="translate(51.401877,93.983525)"/>
        <path style="fill:#803300;stroke:#000000;stroke-width:1px;stroke-linecap:butt;stroke-linejoin:miter;stroke-opacity:1" d="m 333.79465,419.73714 c 0,0 -14.63317,-17.29375 -2.66058,-42.56924 11.9726,-25.27548 15.96347,-25.27548 11.9726,-38.57836 -3.99087,-13.30289 -6.65144,-63.85385 -6.65144,-63.85385" id="path3883"/>
        <path style="fill:#803300;stroke:#000000;stroke-width:1px;stroke-linecap:butt;stroke-linejoin:miter;stroke-opacity:1" d="m 305.96636,295.32405 c 0,0 55.87212,15.96347 71.83558,9.31202 15.96347,-6.65144 23.9452,-18.62404 45.22981,-25.27548 21.28462,-6.65144 18.62404,0 29.26635,1.33029 10.64231,1.33029 15.96346,2.66058 15.96346,2.66058" id="path3885" transform="translate(51.401877,93.983525)"/>
        <path transform="matrix(2.6687501,0,0,2.6687501,51.401877,-721.99778)" id="path3887" d="m 235.95337,445.12285 c 0,0 -39.53813,7.65254 -58.66948,3.18856 -19.13136,-4.46398 -61.85805,-8.92796 -66.95974,-9.56568 -5.1017,-0.63771 -14.667377,-3.18856 -14.667377,-3.18856" style="fill:#803300;stroke:#000000;stroke-width:1px;stroke-linecap:butt;stroke-linejoin:miter;stroke-opacity:1"/>
        <path transform="matrix(2.6687501,0,0,2.6687501,51.401877,-721.99778)" id="path3889" d="m 90.555079,437.47031 c 0,0 15.942791,-6.37712 22.319911,-17.21822 6.37712,-10.8411 0.63771,-12.75424 14.02966,-21.04449 13.39195,-8.29025 19.76907,-8.92797 23.59534,-14.02966 3.82627,-5.10169 35.07415,-36.98729 40.81356,-43.3644 5.7394,-6.37712 11.47881,-5.1017 14.02966,-10.20339 2.55084,-5.1017 11.47881,-19.76907 11.47881,-19.76907" style="fill:#803300;stroke:#000000;stroke-width:1px;stroke-linecap:butt;stroke-linejoin:miter;stroke-opacity:1"/>
      </g>
      <g id="g3855" transform="matrix(0.13246962,-0.35051008,0.35051008,0.13246962,35.404816,487.5683)" style="fill:#aa4400">
        <path id="path3857" d="m 54.220066,658.03443 18.484113,1.23228 c 0,0 -1.232274,-8.62592 7.393645,-19.71639 8.62592,-11.09047 103.511036,-101.04649 123.227426,-117.06605 19.71638,-16.01957 82.56237,-69.00736 88.72374,-69.00736 6.16137,0 29.57458,13.55502 34.50368,25.87776 4.92909,12.32274 20.94866,39.43278 28.34231,43.1296 7.39364,3.69682 50.52324,24.64548 61.61371,24.64548 11.09046,0 4.92909,-20.94866 4.92909,-20.94866 0,0 34.50368,14.78729 40.66505,13.55502 6.16137,-1.23228 1.23228,-8.62592 7.39365,-7.39365 6.16137,1.23228 17.25184,11.09047 30.80685,4.9291 13.55502,-6.16137 -2.46455,-14.78729 14.78729,-19.71639 17.25184,-4.9291 14.78729,2.46455 23.41321,-3.69682 8.62592,-6.16137 -8.62592,-4.9291 9.8582,-6.16137 18.48411,-1.23228 18.48411,-1.23228 19.71639,-7.39365 1.23227,-6.16137 -12.32275,-4.92909 8.62591,-6.16137 20.94867,-1.23227 22.18094,2.46455 32.03913,-1.23227 9.8582,-3.69683 -7.39364,-8.62592 9.8582,-6.16137 17.25184,2.46454 8.62592,11.09046 25.87776,3.69682 17.25184,-7.39365 34.50367,-17.25184 38.2005,-20.94866 3.69682,-3.69683 4.92909,-7.39365 4.92909,-7.39365 0,0 -27.11003,3.69682 -36.96822,-2.46455 -9.8582,-6.16137 -18.48412,-12.32274 -18.48412,-12.32274 0,0 -7.39364,2.46455 -12.32274,-2.46455 -4.92909,-4.92909 -9.85819,-12.32274 -9.85819,-12.32274 l -14.78729,-2.46455 -11.09047,-11.09047 c 0,0 -13.55502,-7.39364 -19.71639,-9.85819 -6.16137,-2.46455 6.16137,-8.62592 0,-12.32274 -6.16137,-3.69682 -18.48411,-7.39365 -23.41321,-11.09047 -4.92909,-3.69682 -4.92909,-4.9291 -4.92909,-4.9291 l 19.75492,-24.99562 -4.96763,-11.9726 c 0,0 18.48411,-2.46455 27.11003,-20.94867 8.62592,-18.48411 8.62592,-32.03912 8.62592,-32.03912 l -13.55502,-6.16138 12.32274,-29.57458 -6.7775,-2.46455 c 0,0 9.24205,-12.32274 8.00978,-17.25184 -1.23228,-4.92909 -3.69682,-8.62591 -3.69682,-8.62591 0,0 17.25184,-27.11004 17.25184,-29.57459 0,-2.46454 -4.9291,-6.16137 -1.84842,-11.09046 3.08069,-4.9291 0.61614,-0.61614 9.24206,-6.77751 8.62592,-6.16137 2.46455,-13.55502 7.39365,-21.5648 4.92909,-8.00978 3.69682,-8.00978 7.39364,-16.6357 3.69682,-8.62592 8.62592,-15.40343 8.62592,-24.02935 0,-8.62592 0,-14.78729 0,-14.78729 0,0 -50.52324,57.91689 -54.22007,57.91689 -3.69682,0 -4.31295,2.46455 -7.39364,-1.23228 -3.08069,-3.69682 -3.69682,-3.69682 -3.69682,-3.69682 0,0 -22.18094,20.94866 -27.72617,20.94866 -5.54524,0 -4.31296,-6.77751 -9.24206,-8.62592 -4.9291,-1.84841 -3.08069,-1.84841 -15.40343,4.9291 -12.32274,6.77751 3.08069,11.7066 -6.16137,9.85819 -9.24206,-1.84841 -4.31296,-7.39364 -11.09047,-4.31296 -6.7775,3.08069 -9.24205,1.84841 -16.6357,8.00979 -7.39364,6.16137 -7.39364,9.24205 -7.39364,6.16137 0,-3.08069 -7.39365,-26.4939 -7.39365,-26.4939 0,0 -30.19072,8.62592 -37.58436,16.01957 -7.39365,7.39364 -12.32275,12.93888 -12.32275,14.78729 0,1.84841 -2.46454,4.92909 -2.46454,4.92909 0,0 -4.31296,-4.92909 -7.39365,-4.92909 -3.08068,0 0,-6.77751 -13.55502,3.08068 -13.55501,9.8582 -30.19071,17.25184 -30.19071,20.33253 0,3.08068 2.46454,5.54523 0,3.08068 -2.46455,-2.46455 -20.94867,-38.81664 -20.94867,-38.81664 l -3.69682,1.84842 c 0,0 -4.92909,-28.95845 -8.62592,-35.73596 -3.69682,-6.7775 -6.77751,-1.84841 -6.77751,-12.32274 0,-10.47433 0,-8.00978 0,-18.48411 0,-10.47433 -3.69682,-22.797075 -3.69682,-22.797075 0,0 -28.95844,43.745735 -35.73595,54.836205 -6.77751,11.09047 -5.54523,17.25184 -5.54523,17.25184 l -5.54524,-1.23228 c 0,0 -6.77751,-1.84841 -11.09047,10.47433 -4.31296,12.32275 -10.47433,35.11982 -11.7066,38.81664 -1.23228,3.69682 -1.23228,5.54524 -3.69682,5.54524 -2.46455,0 -2.46455,-4.31296 -4.9291,-3.08069 -2.46455,1.23227 -8.00978,-0.61614 -8.62592,8.00978 -0.61614,8.62592 6.77751,67.15895 4.31296,72.70418 -2.46455,5.54524 -3.69682,5.54524 -3.69682,5.54524 0,0 -11.70661,-3.69683 -12.32275,-0.61614 -0.61613,3.08068 -8.00978,9.24205 -3.08068,15.40343 4.9291,6.16137 11.09047,14.78729 11.09047,14.78729 l -8.62592,0 c 0,0 26.49389,31.42299 21.5648,34.50367 -4.9291,3.08069 -5.54524,-0.61613 -7.39365,5.54524 -1.84841,6.16137 3.69682,14.17115 9.85819,19.71639 6.16138,5.54523 44.97801,44.97801 44.97801,44.97801 l -0.61613,6.7775 c 0,0 -140.47926,104.12718 -140.47926,106.59172 0,2.46455 -83.794652,79.48169 -86.2592,86.87534 -2.464549,7.39364 -6.161371,19.10025 -5.545234,17.86797 z" style="fill:#aa4400;stroke:#000000;stroke-width:5.50000000000000000;stroke-linecap:butt;stroke-linejoin:miter;stroke-miterlimit:4;stroke-opacity:1;stroke-dasharray:none" sodipodi:nodetypes="ccsssssscsssssssssssscscscccssscccsccccscsssssscsscssssssscsscssssccssscsccsssssscssccsssccssc"/>
        <path transform="translate(51.401877,93.983525)" id="path3859" d="m 246.10338,347.20531 c 0,0 -7.98173,-53.21154 -11.9726,-81.1476 -3.99086,-27.93606 -15.96346,-18.62404 -3.99086,-51.88126 11.97259,-33.25721 5.32115,-73.16587 9.31202,-87.79904 3.99086,-14.63317 25.27548,-115.735102 25.27548,-115.735102" style="fill:#aa4400;stroke:#000000;stroke-width:3;stroke-linecap:butt;stroke-linejoin:miter;stroke-miterlimit:4;stroke-opacity:1;stroke-dasharray:none"/>
        <path transform="translate(51.401877,93.983525)" id="path3861" d="m 400.41685,214.17645 c 0,0 34.5875,9.31202 61.19327,-1.33028 26.60577,-10.64231 45.22981,-3.99087 54.54183,-7.98174 9.31202,-3.99086 15.96346,-7.98173 15.96346,-7.98173" style="fill:#aa4400;stroke:#000000;stroke-width:1px;stroke-linecap:butt;stroke-linejoin:miter;stroke-opacity:1"/>
        <path transform="translate(51.401877,93.983525)" id="path3863" d="m 358.54243,236.8991 c 0,0 -21.97943,-20.06207 -8.67655,-50.65871 13.30289,-30.59663 21.28462,-27.93605 30.59664,-50.55096 9.31202,-22.6149 30.59664,-59.862984 30.59664,-59.862984" style="fill:#aa4400;stroke:#000000;stroke-width:1px;stroke-linecap:butt;stroke-linejoin:miter;stroke-opacity:1" sodipodi:nodetypes="cssc"/>
        <path id="path3865" d="m 333.79465,419.73714 c 0,0 -14.63317,-17.29375 -2.66058,-42.56924 11.9726,-25.27548 15.96347,-25.27548 11.9726,-38.57836 -3.99087,-13.30289 -6.65144,-63.85385 -6.65144,-63.85385" style="fill:#aa4400;stroke:#000000;stroke-width:1px;stroke-linecap:butt;stroke-linejoin:miter;stroke-opacity:1"/>
        <path transform="translate(51.401877,93.983525)" id="path3867" d="m 305.96636,295.32405 c 0,0 55.87212,15.96347 71.83558,9.31202 15.96347,-6.65144 23.9452,-18.62404 45.22981,-25.27548 21.28462,-6.65144 18.62404,0 29.26635,1.33029 10.64231,1.33029 15.96346,2.66058 15.96346,2.66058" style="fill:#aa4400;stroke:#000000;stroke-width:1px;stroke-linecap:butt;stroke-linejoin:miter;stroke-opacity:1"/>
        <path style="fill:#aa4400;stroke:#000000;stroke-width:1px;stroke-linecap:butt;stroke-linejoin:miter;stroke-opacity:1" d="m 235.95337,445.12285 c 0,0 -39.53813,7.65254 -58.66948,3.18856 -19.13136,-4.46398 -61.85805,-8.92796 -66.95974,-9.56568 -5.1017,-0.63771 -14.667377,-3.18856 -14.667377,-3.18856" id="path3869" transform="matrix(2.6687501,0,0,2.6687501,51.401877,-721.99778)"/>
        <path style="fill:#aa4400;stroke:#000000;stroke-width:1px;stroke-linecap:butt;stroke-linejoin:miter;stroke-opacity:1" d="m 90.555079,437.47031 c 0,0 15.942791,-6.37712 22.319911,-17.21822 6.37712,-10.8411 0.63771,-12.75424 14.02966,-21.04449 13.39195,-8.29025 19.76907,-8.92797 23.59534,-14.02966 3.82627,-5.10169 35.07415,-36.98729 40.81356,-43.3644 5.7394,-6.37712 11.47881,-5.1017 14.02966,-10.20339 2.55084,-5.1017 11.47881,-19.76907 11.47881,-19.76907" id="path3871" transform="matrix(2.6687501,0,0,2.6687501,51.401877,-721.99778)"/>
      </g>
      <g transform="matrix(-0.07776748,-0.36654841,0.36654841,-0.07776748,144.89378,708.81531)" id="g3634" style="fill:#aa4400">
        <path sodipodi:nodetypes="ccsssssscsssssssssssscscscccssscccsccccscsssssscsscssssssscsscssssccssscsccsssssscssccsssccssc" style="fill:#aa4400;stroke:#000000;stroke-width:5.50000000000000000;stroke-linecap:butt;stroke-linejoin:miter;stroke-miterlimit:4;stroke-opacity:1;stroke-dasharray:none" d="m 54.220066,658.03443 18.484113,1.23228 c 0,0 -1.232274,-8.62592 7.393645,-19.71639 8.62592,-11.09047 103.511036,-101.04649 123.227426,-117.06605 19.71638,-16.01957 82.56237,-69.00736 88.72374,-69.00736 6.16137,0 29.57458,13.55502 34.50368,25.87776 4.92909,12.32274 20.94866,39.43278 28.34231,43.1296 7.39364,3.69682 50.52324,24.64548 61.61371,24.64548 11.09046,0 4.92909,-20.94866 4.92909,-20.94866 0,0 34.50368,14.78729 40.66505,13.55502 6.16137,-1.23228 1.23228,-8.62592 7.39365,-7.39365 6.16137,1.23228 17.25184,11.09047 30.80685,4.9291 13.55502,-6.16137 -2.46455,-14.78729 14.78729,-19.71639 17.25184,-4.9291 14.78729,2.46455 23.41321,-3.69682 8.62592,-6.16137 -8.62592,-4.9291 9.8582,-6.16137 18.48411,-1.23228 18.48411,-1.23228 19.71639,-7.39365 1.23227,-6.16137 -12.32275,-4.92909 8.62591,-6.16137 20.94867,-1.23227 22.18094,2.46455 32.03913,-1.23227 9.8582,-3.69683 -7.39364,-8.62592 9.8582,-6.16137 17.25184,2.46454 8.62592,11.09046 25.87776,3.69682 17.25184,-7.39365 34.50367,-17.25184 38.2005,-20.94866 3.69682,-3.69683 4.92909,-7.39365 4.92909,-7.39365 0,0 -27.11003,3.69682 -36.96822,-2.46455 -9.8582,-6.16137 -18.48412,-12.32274 -18.48412,-12.32274 0,0 -7.39364,2.46455 -12.32274,-2.46455 -4.92909,-4.92909 -9.85819,-12.32274 -9.85819,-12.32274 l -14.78729,-2.46455 -11.09047,-11.09047 c 0,0 -13.55502,-7.39364 -19.71639,-9.85819 -6.16137,-2.46455 6.16137,-8.62592 0,-12.32274 -6.16137,-3.69682 -18.48411,-7.39365 -23.41321,-11.09047 -4.92909,-3.69682 -4.92909,-4.9291 -4.92909,-4.9291 l 19.75492,-24.99562 -4.96763,-11.9726 c 0,0 18.48411,-2.46455 27.11003,-20.94867 8.62592,-18.48411 8.62592,-32.03912 8.62592,-32.03912 l -13.55502,-6.16138 12.32274,-29.57458 -6.7775,-2.46455 c 0,0 9.24205,-12.32274 8.00978,-17.25184 -1.23228,-4.92909 -3.69682,-8.62591 -3.69682,-8.62591 0,0 17.25184,-27.11004 17.25184,-29.57459 0,-2.46454 -4.9291,-6.16137 -1.84842,-11.09046 3.08069,-4.9291 0.61614,-0.61614 9.24206,-6.77751 8.62592,-6.16137 2.46455,-13.55502 7.39365,-21.5648 4.92909,-8.00978 3.69682,-8.00978 7.39364,-16.6357 3.69682,-8.62592 8.62592,-15.40343 8.62592,-24.02935 0,-8.62592 0,-14.78729 0,-14.78729 0,0 -50.52324,57.91689 -54.22007,57.91689 -3.69682,0 -4.31295,2.46455 -7.39364,-1.23228 -3.08069,-3.69682 -3.69682,-3.69682 -3.69682,-3.69682 0,0 -22.18094,20.94866 -27.72617,20.94866 -5.54524,0 -4.31296,-6.77751 -9.24206,-8.62592 -4.9291,-1.84841 -3.08069,-1.84841 -15.40343,4.9291 -12.32274,6.77751 3.08069,11.7066 -6.16137,9.85819 -9.24206,-1.84841 -4.31296,-7.39364 -11.09047,-4.31296 -6.7775,3.08069 -9.24205,1.84841 -16.6357,8.00979 -7.39364,6.16137 -7.39364,9.24205 -7.39364,6.16137 0,-3.08069 -7.39365,-26.4939 -7.39365,-26.4939 0,0 -30.19072,8.62592 -37.58436,16.01957 -7.39365,7.39364 -12.32275,12.93888 -12.32275,14.78729 0,1.84841 -2.46454,4.92909 -2.46454,4.92909 0,0 -4.31296,-4.92909 -7.39365,-4.92909 -3.08068,0 0,-6.77751 -13.55502,3.08068 -13.55501,9.8582 -30.19071,17.25184 -30.19071,20.33253 0,3.08068 2.46454,5.54523 0,3.08068 -2.46455,-2.46455 -20.94867,-38.81664 -20.94867,-38.81664 l -3.69682,1.84842 c 0,0 -4.92909,-28.95845 -8.62592,-35.73596 -3.69682,-6.7775 -6.77751,-1.84841 -6.77751,-12.32274 0,-10.47433 0,-8.00978 0,-18.48411 0,-10.47433 -3.69682,-22.797075 -3.69682,-22.797075 0,0 -28.95844,43.745735 -35.73595,54.836205 -6.77751,11.09047 -5.54523,17.25184 -5.54523,17.25184 l -5.54524,-1.23228 c 0,0 -6.77751,-1.84841 -11.09047,10.47433 -4.31296,12.32275 -10.47433,35.11982 -11.7066,38.81664 -1.23228,3.69682 -1.23228,5.54524 -3.69682,5.54524 -2.46455,0 -2.46455,-4.31296 -4.9291,-3.08069 -2.46455,1.23227 -8.00978,-0.61614 -8.62592,8.00978 -0.61614,8.62592 6.77751,67.15895 4.31296,72.70418 -2.46455,5.54524 -3.69682,5.54524 -3.69682,5.54524 0,0 -11.70661,-3.69683 -12.32275,-0.61614 -0.61613,3.08068 -8.00978,9.24205 -3.08068,15.40343 4.9291,6.16137 11.09047,14.78729 11.09047,14.78729 l -8.62592,0 c 0,0 26.49389,31.42299 21.5648,34.50367 -4.9291,3.08069 -5.54524,-0.61613 -7.39365,5.54524 -1.84841,6.16137 3.69682,14.17115 9.85819,19.71639 6.16138,5.54523 44.97801,44.97801 44.97801,44.97801 l -0.61613,6.7775 c 0,0 -140.47926,104.12718 -140.47926,106.59172 0,2.46455 -83.794652,79.48169 -86.2592,86.87534 -2.464549,7.39364 -6.161371,19.10025 -5.545234,17.86797 z" id="path2830"/>
        <path style="fill:#aa4400;stroke:#000000;stroke-width:3;stroke-linecap:butt;stroke-linejoin:miter;stroke-miterlimit:4;stroke-opacity:1;stroke-dasharray:none" d="m 246.10338,347.20531 c 0,0 -7.98173,-53.21154 -11.9726,-81.1476 -3.99086,-27.93606 -15.96346,-18.62404 -3.99086,-51.88126 11.97259,-33.25721 5.32115,-73.16587 9.31202,-87.79904 3.99086,-14.63317 25.27548,-115.735102 25.27548,-115.735102" id="path3620" transform="translate(51.401877,93.983525)"/>
        <path style="fill:#aa4400;stroke:#000000;stroke-width:1px;stroke-linecap:butt;stroke-linejoin:miter;stroke-opacity:1" d="m 400.41685,214.17645 c 0,0 34.5875,9.31202 61.19327,-1.33028 26.60577,-10.64231 45.22981,-3.99087 54.54183,-7.98174 9.31202,-3.99086 15.96346,-7.98173 15.96346,-7.98173" id="path3622" transform="translate(51.401877,93.983525)"/>
        <path sodipodi:nodetypes="cssc" style="fill:#aa4400;stroke:#000000;stroke-width:1px;stroke-linecap:butt;stroke-linejoin:miter;stroke-opacity:1" d="m 358.54243,236.8991 c 0,0 -21.97943,-20.06207 -8.67655,-50.65871 13.30289,-30.59663 21.28462,-27.93605 30.59664,-50.55096 9.31202,-22.6149 30.59664,-59.862984 30.59664,-59.862984" id="path3624" transform="translate(51.401877,93.983525)"/>
        <path style="fill:#aa4400;stroke:#000000;stroke-width:1px;stroke-linecap:butt;stroke-linejoin:miter;stroke-opacity:1" d="m 333.79465,419.73714 c 0,0 -14.63317,-17.29375 -2.66058,-42.56924 11.9726,-25.27548 15.96347,-25.27548 11.9726,-38.57836 -3.99087,-13.30289 -6.65144,-63.85385 -6.65144,-63.85385" id="path3626"/>
        <path style="fill:#aa4400;stroke:#000000;stroke-width:1px;stroke-linecap:butt;stroke-linejoin:miter;stroke-opacity:1" d="m 305.96636,295.32405 c 0,0 55.87212,15.96347 71.83558,9.31202 15.96347,-6.65144 23.9452,-18.62404 45.22981,-25.27548 21.28462,-6.65144 18.62404,0 29.26635,1.33029 10.64231,1.33029 15.96346,2.66058 15.96346,2.66058" id="path3628" transform="translate(51.401877,93.983525)"/>
        <path transform="matrix(2.6687501,0,0,2.6687501,51.401877,-721.99778)" id="path3851" d="m 235.95337,445.12285 c 0,0 -39.53813,7.65254 -58.66948,3.18856 -19.13136,-4.46398 -61.85805,-8.92796 -66.95974,-9.56568 -5.1017,-0.63771 -14.667377,-3.18856 -14.667377,-3.18856" style="fill:#aa4400;stroke:#000000;stroke-width:1px;stroke-linecap:butt;stroke-linejoin:miter;stroke-opacity:1"/>
        <path transform="matrix(2.6687501,0,0,2.6687501,51.401877,-721.99778)" id="path3853" d="m 90.555079,437.47031 c 0,0 15.942791,-6.37712 22.319911,-17.21822 6.37712,-10.8411 0.63771,-12.75424 14.02966,-21.04449 13.39195,-8.29025 19.76907,-8.92797 23.59534,-14.02966 3.82627,-5.10169 35.07415,-36.98729 40.81356,-43.3644 5.7394,-6.37712 11.47881,-5.1017 14.02966,-10.20339 2.55084,-5.1017 11.47881,-19.76907 11.47881,-19.76907" style="fill:#aa4400;stroke:#000000;stroke-width:1px;stroke-linecap:butt;stroke-linejoin:miter;stroke-opacity:1"/>
      </g>
      <g id="g3891" transform="matrix(-0.25173725,0.27754977,0.27754977,0.25173725,333.37205,119.35517)" style="fill:#552200">
        <path id="path3893" d="m 54.220066,658.03443 18.484113,1.23228 c 0,0 -1.232274,-8.62592 7.393645,-19.71639 8.62592,-11.09047 103.511036,-101.04649 123.227426,-117.06605 19.71638,-16.01957 82.56237,-69.00736 88.72374,-69.00736 6.16137,0 29.57458,13.55502 34.50368,25.87776 4.92909,12.32274 20.94866,39.43278 28.34231,43.1296 7.39364,3.69682 50.52324,24.64548 61.61371,24.64548 11.09046,0 4.92909,-20.94866 4.92909,-20.94866 0,0 34.50368,14.78729 40.66505,13.55502 6.16137,-1.23228 1.23228,-8.62592 7.39365,-7.39365 6.16137,1.23228 17.25184,11.09047 30.80685,4.9291 13.55502,-6.16137 -2.46455,-14.78729 14.78729,-19.71639 17.25184,-4.9291 14.78729,2.46455 23.41321,-3.69682 8.62592,-6.16137 -8.62592,-4.9291 9.8582,-6.16137 18.48411,-1.23228 18.48411,-1.23228 19.71639,-7.39365 1.23227,-6.16137 -12.32275,-4.92909 8.62591,-6.16137 20.94867,-1.23227 22.18094,2.46455 32.03913,-1.23227 9.8582,-3.69683 -7.39364,-8.62592 9.8582,-6.16137 17.25184,2.46454 8.62592,11.09046 25.87776,3.69682 17.25184,-7.39365 34.50367,-17.25184 38.2005,-20.94866 3.69682,-3.69683 4.92909,-7.39365 4.92909,-7.39365 0,0 -27.11003,3.69682 -36.96822,-2.46455 -9.8582,-6.16137 -18.48412,-12.32274 -18.48412,-12.32274 0,0 -7.39364,2.46455 -12.32274,-2.46455 -4.92909,-4.92909 -9.85819,-12.32274 -9.85819,-12.32274 l -14.78729,-2.46455 -11.09047,-11.09047 c 0,0 -13.55502,-7.39364 -19.71639,-9.85819 -6.16137,-2.46455 6.16137,-8.62592 0,-12.32274 -6.16137,-3.69682 -18.48411,-7.39365 -23.41321,-11.09047 -4.92909,-3.69682 -4.92909,-4.9291 -4.92909,-4.9291 l 19.75492,-24.99562 -4.96763,-11.9726 c 0,0 18.48411,-2.46455 27.11003,-20.94867 8.62592,-18.48411 8.62592,-32.03912 8.62592,-32.03912 l -13.55502,-6.16138 12.32274,-29.57458 -6.7775,-2.46455 c 0,0 9.24205,-12.32274 8.00978,-17.25184 -1.23228,-4.92909 -3.69682,-8.62591 -3.69682,-8.62591 0,0 17.25184,-27.11004 17.25184,-29.57459 0,-2.46454 -4.9291,-6.16137 -1.84842,-11.09046 3.08069,-4.9291 0.61614,-0.61614 9.24206,-6.77751 8.62592,-6.16137 2.46455,-13.55502 7.39365,-21.5648 4.92909,-8.00978 3.69682,-8.00978 7.39364,-16.6357 3.69682,-8.62592 8.62592,-15.40343 8.62592,-24.02935 0,-8.62592 0,-14.78729 0,-14.78729 0,0 -50.52324,57.91689 -54.22007,57.91689 -3.69682,0 -4.31295,2.46455 -7.39364,-1.23228 -3.08069,-3.69682 -3.69682,-3.69682 -3.69682,-3.69682 0,0 -22.18094,20.94866 -27.72617,20.94866 -5.54524,0 -4.31296,-6.77751 -9.24206,-8.62592 -4.9291,-1.84841 -3.08069,-1.84841 -15.40343,4.9291 -12.32274,6.77751 3.08069,11.7066 -6.16137,9.85819 -9.24206,-1.84841 -4.31296,-7.39364 -11.09047,-4.31296 -6.7775,3.08069 -9.24205,1.84841 -16.6357,8.00979 -7.39364,6.16137 -7.39364,9.24205 -7.39364,6.16137 0,-3.08069 -7.39365,-26.4939 -7.39365,-26.4939 0,0 -30.19072,8.62592 -37.58436,16.01957 -7.39365,7.39364 -12.32275,12.93888 -12.32275,14.78729 0,1.84841 -2.46454,4.92909 -2.46454,4.92909 0,0 -4.31296,-4.92909 -7.39365,-4.92909 -3.08068,0 0,-6.77751 -13.55502,3.08068 -13.55501,9.8582 -30.19071,17.25184 -30.19071,20.33253 0,3.08068 2.46454,5.54523 0,3.08068 -2.46455,-2.46455 -20.94867,-38.81664 -20.94867,-38.81664 l -3.69682,1.84842 c 0,0 -4.92909,-28.95845 -8.62592,-35.73596 -3.69682,-6.7775 -6.77751,-1.84841 -6.77751,-12.32274 0,-10.47433 0,-8.00978 0,-18.48411 0,-10.47433 -3.69682,-22.797075 -3.69682,-22.797075 0,0 -28.95844,43.745735 -35.73595,54.836205 -6.77751,11.09047 -5.54523,17.25184 -5.54523,17.25184 l -5.54524,-1.23228 c 0,0 -6.77751,-1.84841 -11.09047,10.47433 -4.31296,12.32275 -10.47433,35.11982 -11.7066,38.81664 -1.23228,3.69682 -1.23228,5.54524 -3.69682,5.54524 -2.46455,0 -2.46455,-4.31296 -4.9291,-3.08069 -2.46455,1.23227 -8.00978,-0.61614 -8.62592,8.00978 -0.61614,8.62592 6.77751,67.15895 4.31296,72.70418 -2.46455,5.54524 -3.69682,5.54524 -3.69682,5.54524 0,0 -11.70661,-3.69683 -12.32275,-0.61614 -0.61613,3.08068 -8.00978,9.24205 -3.08068,15.40343 4.9291,6.16137 11.09047,14.78729 11.09047,14.78729 l -8.62592,0 c 0,0 26.49389,31.42299 21.5648,34.50367 -4.9291,3.08069 -5.54524,-0.61613 -7.39365,5.54524 -1.84841,6.16137 3.69682,14.17115 9.85819,19.71639 6.16138,5.54523 44.97801,44.97801 44.97801,44.97801 l -0.61613,6.7775 c 0,0 -140.47926,104.12718 -140.47926,106.59172 0,2.46455 -83.794652,79.48169 -86.2592,86.87534 -2.464549,7.39364 -6.161371,19.10025 -5.545234,17.86797 z" style="fill:#552200;stroke:#000000;stroke-width:5.50000000000000000;stroke-linecap:butt;stroke-linejoin:miter;stroke-miterlimit:4;stroke-opacity:1;stroke-dasharray:none" sodipodi:nodetypes="ccsssssscsssssssssssscscscccssscccsccccscsssssscsscssssssscsscssssccssscsccsssssscssccsssccssc"/>
        <path transform="translate(51.401877,93.983525)" id="path3895" d="m 246.10338,347.20531 c 0,0 -7.98173,-53.21154 -11.9726,-81.1476 -3.99086,-27.93606 -15.96346,-18.62404 -3.99086,-51.88126 11.97259,-33.25721 5.32115,-73.16587 9.31202,-87.79904 3.99086,-14.63317 25.27548,-115.735102 25.27548,-115.735102" style="fill:#552200;stroke:#000000;stroke-width:3;stroke-linecap:butt;stroke-linejoin:miter;stroke-miterlimit:4;stroke-opacity:1;stroke-dasharray:none"/>
        <path transform="translate(51.401877,93.983525)" id="path3897" d="m 400.41685,214.17645 c 0,0 34.5875,9.31202 61.19327,-1.33028 26.60577,-10.64231 45.22981,-3.99087 54.54183,-7.98174 9.31202,-3.99086 15.96346,-7.98173 15.96346,-7.98173" style="fill:#552200;stroke:#000000;stroke-width:1px;stroke-linecap:butt;stroke-linejoin:miter;stroke-opacity:1"/>
        <path transform="translate(51.401877,93.983525)" id="path3899" d="m 358.54243,236.8991 c 0,0 -21.97943,-20.06207 -8.67655,-50.65871 13.30289,-30.59663 21.28462,-27.93605 30.59664,-50.55096 9.31202,-22.6149 30.59664,-59.862984 30.59664,-59.862984" style="fill:#552200;stroke:#000000;stroke-width:1px;stroke-linecap:butt;stroke-linejoin:miter;stroke-opacity:1" sodipodi:nodetypes="cssc"/>
        <path id="path3901" d="m 333.79465,419.73714 c 0,0 -14.63317,-17.29375 -2.66058,-42.56924 11.9726,-25.27548 15.96347,-25.27548 11.9726,-38.57836 -3.99087,-13.30289 -6.65144,-63.85385 -6.65144,-63.85385" style="fill:#552200;stroke:#000000;stroke-width:1px;stroke-linecap:butt;stroke-linejoin:miter;stroke-opacity:1"/>
        <path transform="translate(51.401877,93.983525)" id="path3903" d="m 305.96636,295.32405 c 0,0 55.87212,15.96347 71.83558,9.31202 15.96347,-6.65144 23.9452,-18.62404 45.22981,-25.27548 21.28462,-6.65144 18.62404,0 29.26635,1.33029 10.64231,1.33029 15.96346,2.66058 15.96346,2.66058" style="fill:#552200;stroke:#000000;stroke-width:1px;stroke-linecap:butt;stroke-linejoin:miter;stroke-opacity:1"/>
        <path style="fill:#552200;stroke:#000000;stroke-width:1px;stroke-linecap:butt;stroke-linejoin:miter;stroke-opacity:1" d="m 235.95337,445.12285 c 0,0 -39.53813,7.65254 -58.66948,3.18856 -19.13136,-4.46398 -61.85805,-8.92796 -66.95974,-9.56568 -5.1017,-0.63771 -14.667377,-3.18856 -14.667377,-3.18856" id="path3905" transform="matrix(2.6687501,0,0,2.6687501,51.401877,-721.99778)"/>
        <path style="fill:#552200;stroke:#000000;stroke-width:1px;stroke-linecap:butt;stroke-linejoin:miter;stroke-opacity:1" d="m 90.555079,437.47031 c 0,0 15.942791,-6.37712 22.319911,-17.21822 6.37712,-10.8411 0.63771,-12.75424 14.02966,-21.04449 13.39195,-8.29025 19.76907,-8.92797 23.59534,-14.02966 3.82627,-5.10169 35.07415,-36.98729 40.81356,-43.3644 5.7394,-6.37712 11.47881,-5.1017 14.02966,-10.20339 2.55084,-5.1017 11.47881,-19.76907 11.47881,-19.76907" id="path3907" transform="matrix(2.6687501,0,0,2.6687501,51.401877,-721.99778)"/>
      </g>
      <g transform="matrix(-0.13246962,-0.35051008,-0.35051008,0.13246962,627.43378,326.86492)" id="g3909" style="fill:#ff9955">
        <path sodipodi:nodetypes="ccsssssscsssssssssssscscscccssscccsccccscsssssscsscssssssscsscssssccssscsccsssssscssccsssccssc" style="fill:#ff9955;stroke:#000000;stroke-width:5.50000000000000000;stroke-linecap:butt;stroke-linejoin:miter;stroke-miterlimit:4;stroke-opacity:1;stroke-dasharray:none" d="m 54.220066,658.03443 18.484113,1.23228 c 0,0 -1.232274,-8.62592 7.393645,-19.71639 8.62592,-11.09047 103.511036,-101.04649 123.227426,-117.06605 19.71638,-16.01957 82.56237,-69.00736 88.72374,-69.00736 6.16137,0 29.57458,13.55502 34.50368,25.87776 4.92909,12.32274 20.94866,39.43278 28.34231,43.1296 7.39364,3.69682 50.52324,24.64548 61.61371,24.64548 11.09046,0 4.92909,-20.94866 4.92909,-20.94866 0,0 34.50368,14.78729 40.66505,13.55502 6.16137,-1.23228 1.23228,-8.62592 7.39365,-7.39365 6.16137,1.23228 17.25184,11.09047 30.80685,4.9291 13.55502,-6.16137 -2.46455,-14.78729 14.78729,-19.71639 17.25184,-4.9291 14.78729,2.46455 23.41321,-3.69682 8.62592,-6.16137 -8.62592,-4.9291 9.8582,-6.16137 18.48411,-1.23228 18.48411,-1.23228 19.71639,-7.39365 1.23227,-6.16137 -12.32275,-4.92909 8.62591,-6.16137 20.94867,-1.23227 22.18094,2.46455 32.03913,-1.23227 9.8582,-3.69683 -7.39364,-8.62592 9.8582,-6.16137 17.25184,2.46454 8.62592,11.09046 25.87776,3.69682 17.25184,-7.39365 34.50367,-17.25184 38.2005,-20.94866 3.69682,-3.69683 4.92909,-7.39365 4.92909,-7.39365 0,0 -27.11003,3.69682 -36.96822,-2.46455 -9.8582,-6.16137 -18.48412,-12.32274 -18.48412,-12.32274 0,0 -7.39364,2.46455 -12.32274,-2.46455 -4.92909,-4.92909 -9.85819,-12.32274 -9.85819,-12.32274 l -14.78729,-2.46455 -11.09047,-11.09047 c 0,0 -13.55502,-7.39364 -19.71639,-9.85819 -6.16137,-2.46455 6.16137,-8.62592 0,-12.32274 -6.16137,-3.69682 -18.48411,-7.39365 -23.41321,-11.09047 -4.92909,-3.69682 -4.92909,-4.9291 -4.92909,-4.9291 l 19.75492,-24.99562 -4.96763,-11.9726 c 0,0 18.48411,-2.46455 27.11003,-20.94867 8.62592,-18.48411 8.62592,-32.03912 8.62592,-32.03912 l -13.55502,-6.16138 12.32274,-29.57458 -6.7775,-2.46455 c 0,0 9.24205,-12.32274 8.00978,-17.25184 -1.23228,-4.92909 -3.69682,-8.62591 -3.69682,-8.62591 0,0 17.25184,-27.11004 17.25184,-29.57459 0,-2.46454 -4.9291,-6.16137 -1.84842,-11.09046 3.08069,-4.9291 0.61614,-0.61614 9.24206,-6.77751 8.62592,-6.16137 2.46455,-13.55502 7.39365,-21.5648 4.92909,-8.00978 3.69682,-8.00978 7.39364,-16.6357 3.69682,-8.62592 8.62592,-15.40343 8.62592,-24.02935 0,-8.62592 0,-14.78729 0,-14.78729 0,0 -50.52324,57.91689 -54.22007,57.91689 -3.69682,0 -4.31295,2.46455 -7.39364,-1.23228 -3.08069,-3.69682 -3.69682,-3.69682 -3.69682,-3.69682 0,0 -22.18094,20.94866 -27.72617,20.94866 -5.54524,0 -4.31296,-6.77751 -9.24206,-8.62592 -4.9291,-1.84841 -3.08069,-1.84841 -15.40343,4.9291 -12.32274,6.77751 3.08069,11.7066 -6.16137,9.85819 -9.24206,-1.84841 -4.31296,-7.39364 -11.09047,-4.31296 -6.7775,3.08069 -9.24205,1.84841 -16.6357,8.00979 -7.39364,6.16137 -7.39364,9.24205 -7.39364,6.16137 0,-3.08069 -7.39365,-26.4939 -7.39365,-26.4939 0,0 -30.19072,8.62592 -37.58436,16.01957 -7.39365,7.39364 -12.32275,12.93888 -12.32275,14.78729 0,1.84841 -2.46454,4.92909 -2.46454,4.92909 0,0 -4.31296,-4.92909 -7.39365,-4.92909 -3.08068,0 0,-6.77751 -13.55502,3.08068 -13.55501,9.8582 -30.19071,17.25184 -30.19071,20.33253 0,3.08068 2.46454,5.54523 0,3.08068 -2.46455,-2.46455 -20.94867,-38.81664 -20.94867,-38.81664 l -3.69682,1.84842 c 0,0 -4.92909,-28.95845 -8.62592,-35.73596 -3.69682,-6.7775 -6.77751,-1.84841 -6.77751,-12.32274 0,-10.47433 0,-8.00978 0,-18.48411 0,-10.47433 -3.69682,-22.797075 -3.69682,-22.797075 0,0 -28.95844,43.745735 -35.73595,54.836205 -6.77751,11.09047 -5.54523,17.25184 -5.54523,17.25184 l -5.54524,-1.23228 c 0,0 -6.77751,-1.84841 -11.09047,10.47433 -4.31296,12.32275 -10.47433,35.11982 -11.7066,38.81664 -1.23228,3.69682 -1.23228,5.54524 -3.69682,5.54524 -2.46455,0 -2.46455,-4.31296 -4.9291,-3.08069 -2.46455,1.23227 -8.00978,-0.61614 -8.62592,8.00978 -0.61614,8.62592 6.77751,67.15895 4.31296,72.70418 -2.46455,5.54524 -3.69682,5.54524 -3.69682,5.54524 0,0 -11.70661,-3.69683 -12.32275,-0.61614 -0.61613,3.08068 -8.00978,9.24205 -3.08068,15.40343 4.9291,6.16137 11.09047,14.78729 11.09047,14.78729 l -8.62592,0 c 0,0 26.49389,31.42299 21.5648,34.50367 -4.9291,3.08069 -5.54524,-0.61613 -7.39365,5.54524 -1.84841,6.16137 3.69682,14.17115 9.85819,19.71639 6.16138,5.54523 44.97801,44.97801 44.97801,44.97801 l -0.61613,6.7775 c 0,0 -140.47926,104.12718 -140.47926,106.59172 0,2.46455 -83.794652,79.48169 -86.2592,86.87534 -2.464549,7.39364 -6.161371,19.10025 -5.545234,17.86797 z" id="path3911"/>
        <path style="fill:#ff9955;stroke:#000000;stroke-width:3;stroke-linecap:butt;stroke-linejoin:miter;stroke-miterlimit:4;stroke-opacity:1;stroke-dasharray:none" d="m 246.10338,347.20531 c 0,0 -7.98173,-53.21154 -11.9726,-81.1476 -3.99086,-27.93606 -15.96346,-18.62404 -3.99086,-51.88126 11.97259,-33.25721 5.32115,-73.16587 9.31202,-87.79904 3.99086,-14.63317 25.27548,-115.735102 25.27548,-115.735102" id="path3913" transform="translate(51.401877,93.983525)"/>
        <path style="fill:#ff9955;stroke:#000000;stroke-width:1px;stroke-linecap:butt;stroke-linejoin:miter;stroke-opacity:1" d="m 400.41685,214.17645 c 0,0 34.5875,9.31202 61.19327,-1.33028 26.60577,-10.64231 45.22981,-3.99087 54.54183,-7.98174 9.31202,-3.99086 15.96346,-7.98173 15.96346,-7.98173" id="path3915" transform="translate(51.401877,93.983525)"/>
        <path sodipodi:nodetypes="cssc" style="fill:#ff9955;stroke:#000000;stroke-width:1px;stroke-linecap:butt;stroke-linejoin:miter;stroke-opacity:1" d="m 358.54243,236.8991 c 0,0 -21.97943,-20.06207 -8.67655,-50.65871 13.30289,-30.59663 21.28462,-27.93605 30.59664,-50.55096 9.31202,-22.6149 30.59664,-59.862984 30.59664,-59.862984" id="path3917" transform="translate(51.401877,93.983525)"/>
        <path style="fill:#ff9955;stroke:#000000;stroke-width:1px;stroke-linecap:butt;stroke-linejoin:miter;stroke-opacity:1" d="m 333.79465,419.73714 c 0,0 -14.63317,-17.29375 -2.66058,-42.56924 11.9726,-25.27548 15.96347,-25.27548 11.9726,-38.57836 -3.99087,-13.30289 -6.65144,-63.85385 -6.65144,-63.85385" id="path3919"/>
        <path style="fill:#ff9955;stroke:#000000;stroke-width:1px;stroke-linecap:butt;stroke-linejoin:miter;stroke-opacity:1" d="m 305.96636,295.32405 c 0,0 55.87212,15.96347 71.83558,9.31202 15.96347,-6.65144 23.9452,-18.62404 45.22981,-25.27548 21.28462,-6.65144 18.62404,0 29.26635,1.33029 10.64231,1.33029 15.96346,2.66058 15.96346,2.66058" id="path3921" transform="translate(51.401877,93.983525)"/>
        <path transform="matrix(2.6687501,0,0,2.6687501,51.401877,-721.99778)" id="path3923" d="m 235.95337,445.12285 c 0,0 -39.53813,7.65254 -58.66948,3.18856 -19.13136,-4.46398 -61.85805,-8.92796 -66.95974,-9.56568 -5.1017,-0.63771 -14.667377,-3.18856 -14.667377,-3.18856" style="fill:#ff9955;stroke:#000000;stroke-width:1px;stroke-linecap:butt;stroke-linejoin:miter;stroke-opacity:1"/>
        <path transform="matrix(2.6687501,0,0,2.6687501,51.401877,-721.99778)" id="path3925" d="m 90.555079,437.47031 c 0,0 15.942791,-6.37712 22.319911,-17.21822 6.37712,-10.8411 0.63771,-12.75424 14.02966,-21.04449 13.39195,-8.29025 19.76907,-8.92797 23.59534,-14.02966 3.82627,-5.10169 35.07415,-36.98729 40.81356,-43.3644 5.7394,-6.37712 11.47881,-5.1017 14.02966,-10.20339 2.55084,-5.1017 11.47881,-19.76907 11.47881,-19.76907" style="fill:#ff9955;stroke:#000000;stroke-width:1px;stroke-linecap:butt;stroke-linejoin:miter;stroke-opacity:1"/>
      </g>
      <g id="g3927" transform="matrix(-0.37470724,0,0,0.37470724,630.69737,253.25088)" style="fill:#d45500">
        <path id="path3929" d="m 54.220066,658.03443 18.484113,1.23228 c 0,0 -1.232274,-8.62592 7.393645,-19.71639 8.62592,-11.09047 103.511036,-101.04649 123.227426,-117.06605 19.71638,-16.01957 82.56237,-69.00736 88.72374,-69.00736 6.16137,0 29.57458,13.55502 34.50368,25.87776 4.92909,12.32274 20.94866,39.43278 28.34231,43.1296 7.39364,3.69682 50.52324,24.64548 61.61371,24.64548 11.09046,0 4.92909,-20.94866 4.92909,-20.94866 0,0 34.50368,14.78729 40.66505,13.55502 6.16137,-1.23228 1.23228,-8.62592 7.39365,-7.39365 6.16137,1.23228 17.25184,11.09047 30.80685,4.9291 13.55502,-6.16137 -2.46455,-14.78729 14.78729,-19.71639 17.25184,-4.9291 14.78729,2.46455 23.41321,-3.69682 8.62592,-6.16137 -8.62592,-4.9291 9.8582,-6.16137 18.48411,-1.23228 18.48411,-1.23228 19.71639,-7.39365 1.23227,-6.16137 -12.32275,-4.92909 8.62591,-6.16137 20.94867,-1.23227 22.18094,2.46455 32.03913,-1.23227 9.8582,-3.69683 -7.39364,-8.62592 9.8582,-6.16137 17.25184,2.46454 8.62592,11.09046 25.87776,3.69682 17.25184,-7.39365 34.50367,-17.25184 38.2005,-20.94866 3.69682,-3.69683 4.92909,-7.39365 4.92909,-7.39365 0,0 -27.11003,3.69682 -36.96822,-2.46455 -9.8582,-6.16137 -18.48412,-12.32274 -18.48412,-12.32274 0,0 -7.39364,2.46455 -12.32274,-2.46455 -4.92909,-4.92909 -9.85819,-12.32274 -9.85819,-12.32274 l -14.78729,-2.46455 -11.09047,-11.09047 c 0,0 -13.55502,-7.39364 -19.71639,-9.85819 -6.16137,-2.46455 6.16137,-8.62592 0,-12.32274 -6.16137,-3.69682 -18.48411,-7.39365 -23.41321,-11.09047 -4.92909,-3.69682 -4.92909,-4.9291 -4.92909,-4.9291 l 19.75492,-24.99562 -4.96763,-11.9726 c 0,0 18.48411,-2.46455 27.11003,-20.94867 8.62592,-18.48411 8.62592,-32.03912 8.62592,-32.03912 l -13.55502,-6.16138 12.32274,-29.57458 -6.7775,-2.46455 c 0,0 9.24205,-12.32274 8.00978,-17.25184 -1.23228,-4.92909 -3.69682,-8.62591 -3.69682,-8.62591 0,0 17.25184,-27.11004 17.25184,-29.57459 0,-2.46454 -4.9291,-6.16137 -1.84842,-11.09046 3.08069,-4.9291 0.61614,-0.61614 9.24206,-6.77751 8.62592,-6.16137 2.46455,-13.55502 7.39365,-21.5648 4.92909,-8.00978 3.69682,-8.00978 7.39364,-16.6357 3.69682,-8.62592 8.62592,-15.40343 8.62592,-24.02935 0,-8.62592 0,-14.78729 0,-14.78729 0,0 -50.52324,57.91689 -54.22007,57.91689 -3.69682,0 -4.31295,2.46455 -7.39364,-1.23228 -3.08069,-3.69682 -3.69682,-3.69682 -3.69682,-3.69682 0,0 -22.18094,20.94866 -27.72617,20.94866 -5.54524,0 -4.31296,-6.77751 -9.24206,-8.62592 -4.9291,-1.84841 -3.08069,-1.84841 -15.40343,4.9291 -12.32274,6.77751 3.08069,11.7066 -6.16137,9.85819 -9.24206,-1.84841 -4.31296,-7.39364 -11.09047,-4.31296 -6.7775,3.08069 -9.24205,1.84841 -16.6357,8.00979 -7.39364,6.16137 -7.39364,9.24205 -7.39364,6.16137 0,-3.08069 -7.39365,-26.4939 -7.39365,-26.4939 0,0 -30.19072,8.62592 -37.58436,16.01957 -7.39365,7.39364 -12.32275,12.93888 -12.32275,14.78729 0,1.84841 -2.46454,4.92909 -2.46454,4.92909 0,0 -4.31296,-4.92909 -7.39365,-4.92909 -3.08068,0 0,-6.77751 -13.55502,3.08068 -13.55501,9.8582 -30.19071,17.25184 -30.19071,20.33253 0,3.08068 2.46454,5.54523 0,3.08068 -2.46455,-2.46455 -20.94867,-38.81664 -20.94867,-38.81664 l -3.69682,1.84842 c 0,0 -4.92909,-28.95845 -8.62592,-35.73596 -3.69682,-6.7775 -6.77751,-1.84841 -6.77751,-12.32274 0,-10.47433 0,-8.00978 0,-18.48411 0,-10.47433 -3.69682,-22.797075 -3.69682,-22.797075 0,0 -28.95844,43.745735 -35.73595,54.836205 -6.77751,11.09047 -5.54523,17.25184 -5.54523,17.25184 l -5.54524,-1.23228 c 0,0 -6.77751,-1.84841 -11.09047,10.47433 -4.31296,12.32275 -10.47433,35.11982 -11.7066,38.81664 -1.23228,3.69682 -1.23228,5.54524 -3.69682,5.54524 -2.46455,0 -2.46455,-4.31296 -4.9291,-3.08069 -2.46455,1.23227 -8.00978,-0.61614 -8.62592,8.00978 -0.61614,8.62592 6.77751,67.15895 4.31296,72.70418 -2.46455,5.54524 -3.69682,5.54524 -3.69682,5.54524 0,0 -11.70661,-3.69683 -12.32275,-0.61614 -0.61613,3.08068 -8.00978,9.24205 -3.08068,15.40343 4.9291,6.16137 11.09047,14.78729 11.09047,14.78729 l -8.62592,0 c 0,0 26.49389,31.42299 21.5648,34.50367 -4.9291,3.08069 -5.54524,-0.61613 -7.39365,5.54524 -1.84841,6.16137 3.69682,14.17115 9.85819,19.71639 6.16138,5.54523 44.97801,44.97801 44.97801,44.97801 l -0.61613,6.7775 c 0,0 -140.47926,104.12718 -140.47926,106.59172 0,2.46455 -83.794652,79.48169 -86.2592,86.87534 -2.464549,7.39364 -6.161371,19.10025 -5.545234,17.86797 z" style="fill:#d45500;stroke:#000000;stroke-width:5.50000000000000000;stroke-linecap:butt;stroke-linejoin:miter;stroke-miterlimit:4;stroke-opacity:1;stroke-dasharray:none" sodipodi:nodetypes="ccsssssscsssssssssssscscscccssscccsccccscsssssscsscssssssscsscssssccssscsccsssssscssccsssccssc"/>
        <path transform="translate(51.401877,93.983525)" id="path3931" d="m 246.10338,347.20531 c 0,0 -7.98173,-53.21154 -11.9726,-81.1476 -3.99086,-27.93606 -15.96346,-18.62404 -3.99086,-51.88126 11.97259,-33.25721 5.32115,-73.16587 9.31202,-87.79904 3.99086,-14.63317 25.27548,-115.735102 25.27548,-115.735102" style="fill:#d45500;stroke:#000000;stroke-width:3;stroke-linecap:butt;stroke-linejoin:miter;stroke-miterlimit:4;stroke-opacity:1;stroke-dasharray:none"/>
        <path transform="translate(51.401877,93.983525)" id="path3933" d="m 400.41685,214.17645 c 0,0 34.5875,9.31202 61.19327,-1.33028 26.60577,-10.64231 45.22981,-3.99087 54.54183,-7.98174 9.31202,-3.99086 15.96346,-7.98173 15.96346,-7.98173" style="fill:#d45500;stroke:#000000;stroke-width:1px;stroke-linecap:butt;stroke-linejoin:miter;stroke-opacity:1"/>
        <path transform="translate(51.401877,93.983525)" id="path3935" d="m 358.54243,236.8991 c 0,0 -21.97943,-20.06207 -8.67655,-50.65871 13.30289,-30.59663 21.28462,-27.93605 30.59664,-50.55096 9.31202,-22.6149 30.59664,-59.862984 30.59664,-59.862984" style="fill:#d45500;stroke:#000000;stroke-width:1px;stroke-linecap:butt;stroke-linejoin:miter;stroke-opacity:1" sodipodi:nodetypes="cssc"/>
        <path id="path3937" d="m 333.79465,419.73714 c 0,0 -14.63317,-17.29375 -2.66058,-42.56924 11.9726,-25.27548 15.96347,-25.27548 11.9726,-38.57836 -3.99087,-13.30289 -6.65144,-63.85385 -6.65144,-63.85385" style="fill:#d45500;stroke:#000000;stroke-width:1px;stroke-linecap:butt;stroke-linejoin:miter;stroke-opacity:1"/>
        <path transform="translate(51.401877,93.983525)" id="path3939" d="m 305.96636,295.32405 c 0,0 55.87212,15.96347 71.83558,9.31202 15.96347,-6.65144 23.9452,-18.62404 45.22981,-25.27548 21.28462,-6.65144 18.62404,0 29.26635,1.33029 10.64231,1.33029 15.96346,2.66058 15.96346,2.66058" style="fill:#d45500;stroke:#000000;stroke-width:1px;stroke-linecap:butt;stroke-linejoin:miter;stroke-opacity:1"/>
        <path style="fill:#d45500;stroke:#000000;stroke-width:1px;stroke-linecap:butt;stroke-linejoin:miter;stroke-opacity:1" d="m 235.95337,445.12285 c 0,0 -39.53813,7.65254 -58.66948,3.18856 -19.13136,-4.46398 -61.85805,-8.92796 -66.95974,-9.56568 -5.1017,-0.63771 -14.667377,-3.18856 -14.667377,-3.18856" id="path3941" transform="matrix(2.6687501,0,0,2.6687501,51.401877,-721.99778)"/>
        <path style="fill:#d45500;stroke:#000000;stroke-width:1px;stroke-linecap:butt;stroke-linejoin:miter;stroke-opacity:1" d="m 90.555079,437.47031 c 0,0 15.942791,-6.37712 22.319911,-17.21822 6.37712,-10.8411 0.63771,-12.75424 14.02966,-21.04449 13.39195,-8.29025 19.76907,-8.92797 23.59534,-14.02966 3.82627,-5.10169 35.07415,-36.98729 40.81356,-43.3644 5.7394,-6.37712 11.47881,-5.1017 14.02966,-10.20339 2.55084,-5.1017 11.47881,-19.76907 11.47881,-19.76907" id="path3943" transform="matrix(2.6687501,0,0,2.6687501,51.401877,-721.99778)"/>
      </g>
      <g transform="matrix(-0.25173725,0.27754977,0.27754977,0.25173725,528.51187,294.08821)" id="g3945" style="fill:#803300">
        <path sodipodi:nodetypes="ccsssssscsssssssssssscscscccssscccsccccscsssssscsscssssssscsscssssccssscsccsssssscssccsssccssc" style="fill:#803300;stroke:#000000;stroke-width:5.50000000000000000;stroke-linecap:butt;stroke-linejoin:miter;stroke-miterlimit:4;stroke-opacity:1;stroke-dasharray:none" d="m 54.220066,658.03443 18.484113,1.23228 c 0,0 -1.232274,-8.62592 7.393645,-19.71639 8.62592,-11.09047 103.511036,-101.04649 123.227426,-117.06605 19.71638,-16.01957 82.56237,-69.00736 88.72374,-69.00736 6.16137,0 29.57458,13.55502 34.50368,25.87776 4.92909,12.32274 20.94866,39.43278 28.34231,43.1296 7.39364,3.69682 50.52324,24.64548 61.61371,24.64548 11.09046,0 4.92909,-20.94866 4.92909,-20.94866 0,0 34.50368,14.78729 40.66505,13.55502 6.16137,-1.23228 1.23228,-8.62592 7.39365,-7.39365 6.16137,1.23228 17.25184,11.09047 30.80685,4.9291 13.55502,-6.16137 -2.46455,-14.78729 14.78729,-19.71639 17.25184,-4.9291 14.78729,2.46455 23.41321,-3.69682 8.62592,-6.16137 -8.62592,-4.9291 9.8582,-6.16137 18.48411,-1.23228 18.48411,-1.23228 19.71639,-7.39365 1.23227,-6.16137 -12.32275,-4.92909 8.62591,-6.16137 20.94867,-1.23227 22.18094,2.46455 32.03913,-1.23227 9.8582,-3.69683 -7.39364,-8.62592 9.8582,-6.16137 17.25184,2.46454 8.62592,11.09046 25.87776,3.69682 17.25184,-7.39365 34.50367,-17.25184 38.2005,-20.94866 3.69682,-3.69683 4.92909,-7.39365 4.92909,-7.39365 0,0 -27.11003,3.69682 -36.96822,-2.46455 -9.8582,-6.16137 -18.48412,-12.32274 -18.48412,-12.32274 0,0 -7.39364,2.46455 -12.32274,-2.46455 -4.92909,-4.92909 -9.85819,-12.32274 -9.85819,-12.32274 l -14.78729,-2.46455 -11.09047,-11.09047 c 0,0 -13.55502,-7.39364 -19.71639,-9.85819 -6.16137,-2.46455 6.16137,-8.62592 0,-12.32274 -6.16137,-3.69682 -18.48411,-7.39365 -23.41321,-11.09047 -4.92909,-3.69682 -4.92909,-4.9291 -4.92909,-4.9291 l 19.75492,-24.99562 -4.96763,-11.9726 c 0,0 18.48411,-2.46455 27.11003,-20.94867 8.62592,-18.48411 8.62592,-32.03912 8.62592,-32.03912 l -13.55502,-6.16138 12.32274,-29.57458 -6.7775,-2.46455 c 0,0 9.24205,-12.32274 8.00978,-17.25184 -1.23228,-4.92909 -3.69682,-8.62591 -3.69682,-8.62591 0,0 17.25184,-27.11004 17.25184,-29.57459 0,-2.46454 -4.9291,-6.16137 -1.84842,-11.09046 3.08069,-4.9291 0.61614,-0.61614 9.24206,-6.77751 8.62592,-6.16137 2.46455,-13.55502 7.39365,-21.5648 4.92909,-8.00978 3.69682,-8.00978 7.39364,-16.6357 3.69682,-8.62592 8.62592,-15.40343 8.62592,-24.02935 0,-8.62592 0,-14.78729 0,-14.78729 0,0 -50.52324,57.91689 -54.22007,57.91689 -3.69682,0 -4.31295,2.46455 -7.39364,-1.23228 -3.08069,-3.69682 -3.69682,-3.69682 -3.69682,-3.69682 0,0 -22.18094,20.94866 -27.72617,20.94866 -5.54524,0 -4.31296,-6.77751 -9.24206,-8.62592 -4.9291,-1.84841 -3.08069,-1.84841 -15.40343,4.9291 -12.32274,6.77751 3.08069,11.7066 -6.16137,9.85819 -9.24206,-1.84841 -4.31296,-7.39364 -11.09047,-4.31296 -6.7775,3.08069 -9.24205,1.84841 -16.6357,8.00979 -7.39364,6.16137 -7.39364,9.24205 -7.39364,6.16137 0,-3.08069 -7.39365,-26.4939 -7.39365,-26.4939 0,0 -30.19072,8.62592 -37.58436,16.01957 -7.39365,7.39364 -12.32275,12.93888 -12.32275,14.78729 0,1.84841 -2.46454,4.92909 -2.46454,4.92909 0,0 -4.31296,-4.92909 -7.39365,-4.92909 -3.08068,0 0,-6.77751 -13.55502,3.08068 -13.55501,9.8582 -30.19071,17.25184 -30.19071,20.33253 0,3.08068 2.46454,5.54523 0,3.08068 -2.46455,-2.46455 -20.94867,-38.81664 -20.94867,-38.81664 l -3.69682,1.84842 c 0,0 -4.92909,-28.95845 -8.62592,-35.73596 -3.69682,-6.7775 -6.77751,-1.84841 -6.77751,-12.32274 0,-10.47433 0,-8.00978 0,-18.48411 0,-10.47433 -3.69682,-22.797075 -3.69682,-22.797075 0,0 -28.95844,43.745735 -35.73595,54.836205 -6.77751,11.09047 -5.54523,17.25184 -5.54523,17.25184 l -5.54524,-1.23228 c 0,0 -6.77751,-1.84841 -11.09047,10.47433 -4.31296,12.32275 -10.47433,35.11982 -11.7066,38.81664 -1.23228,3.69682 -1.23228,5.54524 -3.69682,5.54524 -2.46455,0 -2.46455,-4.31296 -4.9291,-3.08069 -2.46455,1.23227 -8.00978,-0.61614 -8.62592,8.00978 -0.61614,8.62592 6.77751,67.15895 4.31296,72.70418 -2.46455,5.54524 -3.69682,5.54524 -3.69682,5.54524 0,0 -11.70661,-3.69683 -12.32275,-0.61614 -0.61613,3.08068 -8.00978,9.24205 -3.08068,15.40343 4.9291,6.16137 11.09047,14.78729 11.09047,14.78729 l -8.62592,0 c 0,0 26.49389,31.42299 21.5648,34.50367 -4.9291,3.08069 -5.54524,-0.61613 -7.39365,5.54524 -1.84841,6.16137 3.69682,14.17115 9.85819,19.71639 6.16138,5.54523 44.97801,44.97801 44.97801,44.97801 l -0.61613,6.7775 c 0,0 -140.47926,104.12718 -140.47926,106.59172 0,2.46455 -83.794652,79.48169 -86.2592,86.87534 -2.464549,7.39364 -6.161371,19.10025 -5.545234,17.86797 z" id="path3947"/>
        <path style="fill:#803300;stroke:#000000;stroke-width:3;stroke-linecap:butt;stroke-linejoin:miter;stroke-miterlimit:4;stroke-opacity:1;stroke-dasharray:none" d="m 246.10338,347.20531 c 0,0 -7.98173,-53.21154 -11.9726,-81.1476 -3.99086,-27.93606 -15.96346,-18.62404 -3.99086,-51.88126 11.97259,-33.25721 5.32115,-73.16587 9.31202,-87.79904 3.99086,-14.63317 25.27548,-115.735102 25.27548,-115.735102" id="path3949" transform="translate(51.401877,93.983525)"/>
        <path style="fill:#803300;stroke:#000000;stroke-width:1px;stroke-linecap:butt;stroke-linejoin:miter;stroke-opacity:1" d="m 400.41685,214.17645 c 0,0 34.5875,9.31202 61.19327,-1.33028 26.60577,-10.64231 45.22981,-3.99087 54.54183,-7.98174 9.31202,-3.99086 15.96346,-7.98173 15.96346,-7.98173" id="path3951" transform="translate(51.401877,93.983525)"/>
        <path sodipodi:nodetypes="cssc" style="fill:#803300;stroke:#000000;stroke-width:1px;stroke-linecap:butt;stroke-linejoin:miter;stroke-opacity:1" d="m 358.54243,236.8991 c 0,0 -21.97943,-20.06207 -8.67655,-50.65871 13.30289,-30.59663 21.28462,-27.93605 30.59664,-50.55096 9.31202,-22.6149 30.59664,-59.862984 30.59664,-59.862984" id="path3953" transform="translate(51.401877,93.983525)"/>
        <path style="fill:#803300;stroke:#000000;stroke-width:1px;stroke-linecap:butt;stroke-linejoin:miter;stroke-opacity:1" d="m 333.79465,419.73714 c 0,0 -14.63317,-17.29375 -2.66058,-42.56924 11.9726,-25.27548 15.96347,-25.27548 11.9726,-38.57836 -3.99087,-13.30289 -6.65144,-63.85385 -6.65144,-63.85385" id="path3955"/>
        <path style="fill:#803300;stroke:#000000;stroke-width:1px;stroke-linecap:butt;stroke-linejoin:miter;stroke-opacity:1" d="m 305.96636,295.32405 c 0,0 55.87212,15.96347 71.83558,9.31202 15.96347,-6.65144 23.9452,-18.62404 45.22981,-25.27548 21.28462,-6.65144 18.62404,0 29.26635,1.33029 10.64231,1.33029 15.96346,2.66058 15.96346,2.66058" id="path3957" transform="translate(51.401877,93.983525)"/>
        <path transform="matrix(2.6687501,0,0,2.6687501,51.401877,-721.99778)" id="path3959" d="m 235.95337,445.12285 c 0,0 -39.53813,7.65254 -58.66948,3.18856 -19.13136,-4.46398 -61.85805,-8.92796 -66.95974,-9.56568 -5.1017,-0.63771 -14.667377,-3.18856 -14.667377,-3.18856" style="fill:#803300;stroke:#000000;stroke-width:1px;stroke-linecap:butt;stroke-linejoin:miter;stroke-opacity:1"/>
        <path transform="matrix(2.6687501,0,0,2.6687501,51.401877,-721.99778)" id="path3961" d="m 90.555079,437.47031 c 0,0 15.942791,-6.37712 22.319911,-17.21822 6.37712,-10.8411 0.63771,-12.75424 14.02966,-21.04449 13.39195,-8.29025 19.76907,-8.92797 23.59534,-14.02966 3.82627,-5.10169 35.07415,-36.98729 40.81356,-43.3644 5.7394,-6.37712 11.47881,-5.1017 14.02966,-10.20339 2.55084,-5.1017 11.47881,-19.76907 11.47881,-19.76907" style="fill:#803300;stroke:#000000;stroke-width:1px;stroke-linecap:butt;stroke-linejoin:miter;stroke-opacity:1"/>
      </g>
      <g id="g3963" transform="matrix(-0.2887653,-0.23878885,-0.23878885,0.2887653,826.28579,380.52451)" style="fill:#aa4400">
        <path id="path3965" d="m 54.220066,658.03443 18.484113,1.23228 c 0,0 -1.232274,-8.62592 7.393645,-19.71639 8.62592,-11.09047 103.511036,-101.04649 123.227426,-117.06605 19.71638,-16.01957 82.56237,-69.00736 88.72374,-69.00736 6.16137,0 29.57458,13.55502 34.50368,25.87776 4.92909,12.32274 20.94866,39.43278 28.34231,43.1296 7.39364,3.69682 50.52324,24.64548 61.61371,24.64548 11.09046,0 4.92909,-20.94866 4.92909,-20.94866 0,0 34.50368,14.78729 40.66505,13.55502 6.16137,-1.23228 1.23228,-8.62592 7.39365,-7.39365 6.16137,1.23228 17.25184,11.09047 30.80685,4.9291 13.55502,-6.16137 -2.46455,-14.78729 14.78729,-19.71639 17.25184,-4.9291 14.78729,2.46455 23.41321,-3.69682 8.62592,-6.16137 -8.62592,-4.9291 9.8582,-6.16137 18.48411,-1.23228 18.48411,-1.23228 19.71639,-7.39365 1.23227,-6.16137 -12.32275,-4.92909 8.62591,-6.16137 20.94867,-1.23227 22.18094,2.46455 32.03913,-1.23227 9.8582,-3.69683 -7.39364,-8.62592 9.8582,-6.16137 17.25184,2.46454 8.62592,11.09046 25.87776,3.69682 17.25184,-7.39365 34.50367,-17.25184 38.2005,-20.94866 3.69682,-3.69683 4.92909,-7.39365 4.92909,-7.39365 0,0 -27.11003,3.69682 -36.96822,-2.46455 -9.8582,-6.16137 -18.48412,-12.32274 -18.48412,-12.32274 0,0 -7.39364,2.46455 -12.32274,-2.46455 -4.92909,-4.92909 -9.85819,-12.32274 -9.85819,-12.32274 l -14.78729,-2.46455 -11.09047,-11.09047 c 0,0 -13.55502,-7.39364 -19.71639,-9.85819 -6.16137,-2.46455 6.16137,-8.62592 0,-12.32274 -6.16137,-3.69682 -18.48411,-7.39365 -23.41321,-11.09047 -4.92909,-3.69682 -4.92909,-4.9291 -4.92909,-4.9291 l 19.75492,-24.99562 -4.96763,-11.9726 c 0,0 18.48411,-2.46455 27.11003,-20.94867 8.62592,-18.48411 8.62592,-32.03912 8.62592,-32.03912 l -13.55502,-6.16138 12.32274,-29.57458 -6.7775,-2.46455 c 0,0 9.24205,-12.32274 8.00978,-17.25184 -1.23228,-4.92909 -3.69682,-8.62591 -3.69682,-8.62591 0,0 17.25184,-27.11004 17.25184,-29.57459 0,-2.46454 -4.9291,-6.16137 -1.84842,-11.09046 3.08069,-4.9291 0.61614,-0.61614 9.24206,-6.77751 8.62592,-6.16137 2.46455,-13.55502 7.39365,-21.5648 4.92909,-8.00978 3.69682,-8.00978 7.39364,-16.6357 3.69682,-8.62592 8.62592,-15.40343 8.62592,-24.02935 0,-8.62592 0,-14.78729 0,-14.78729 0,0 -50.52324,57.91689 -54.22007,57.91689 -3.69682,0 -4.31295,2.46455 -7.39364,-1.23228 -3.08069,-3.69682 -3.69682,-3.69682 -3.69682,-3.69682 0,0 -22.18094,20.94866 -27.72617,20.94866 -5.54524,0 -4.31296,-6.77751 -9.24206,-8.62592 -4.9291,-1.84841 -3.08069,-1.84841 -15.40343,4.9291 -12.32274,6.77751 3.08069,11.7066 -6.16137,9.85819 -9.24206,-1.84841 -4.31296,-7.39364 -11.09047,-4.31296 -6.7775,3.08069 -9.24205,1.84841 -16.6357,8.00979 -7.39364,6.16137 -7.39364,9.24205 -7.39364,6.16137 0,-3.08069 -7.39365,-26.4939 -7.39365,-26.4939 0,0 -30.19072,8.62592 -37.58436,16.01957 -7.39365,7.39364 -12.32275,12.93888 -12.32275,14.78729 0,1.84841 -2.46454,4.92909 -2.46454,4.92909 0,0 -4.31296,-4.92909 -7.39365,-4.92909 -3.08068,0 0,-6.77751 -13.55502,3.08068 -13.55501,9.8582 -30.19071,17.25184 -30.19071,20.33253 0,3.08068 2.46454,5.54523 0,3.08068 -2.46455,-2.46455 -20.94867,-38.81664 -20.94867,-38.81664 l -3.69682,1.84842 c 0,0 -4.92909,-28.95845 -8.62592,-35.73596 -3.69682,-6.7775 -6.77751,-1.84841 -6.77751,-12.32274 0,-10.47433 0,-8.00978 0,-18.48411 0,-10.47433 -3.69682,-22.797075 -3.69682,-22.797075 0,0 -28.95844,43.745735 -35.73595,54.836205 -6.77751,11.09047 -5.54523,17.25184 -5.54523,17.25184 l -5.54524,-1.23228 c 0,0 -6.77751,-1.84841 -11.09047,10.47433 -4.31296,12.32275 -10.47433,35.11982 -11.7066,38.81664 -1.23228,3.69682 -1.23228,5.54524 -3.69682,5.54524 -2.46455,0 -2.46455,-4.31296 -4.9291,-3.08069 -2.46455,1.23227 -8.00978,-0.61614 -8.62592,8.00978 -0.61614,8.62592 6.77751,67.15895 4.31296,72.70418 -2.46455,5.54524 -3.69682,5.54524 -3.69682,5.54524 0,0 -11.70661,-3.69683 -12.32275,-0.61614 -0.61613,3.08068 -8.00978,9.24205 -3.08068,15.40343 4.9291,6.16137 11.09047,14.78729 11.09047,14.78729 l -8.62592,0 c 0,0 26.49389,31.42299 21.5648,34.50367 -4.9291,3.08069 -5.54524,-0.61613 -7.39365,5.54524 -1.84841,6.16137 3.69682,14.17115 9.85819,19.71639 6.16138,5.54523 44.97801,44.97801 44.97801,44.97801 l -0.61613,6.7775 c 0,0 -140.47926,104.12718 -140.47926,106.59172 0,2.46455 -83.794652,79.48169 -86.2592,86.87534 -2.464549,7.39364 -6.161371,19.10025 -5.545234,17.86797 z" style="fill:#aa4400;stroke:#000000;stroke-width:5.50000000000000000;stroke-linecap:butt;stroke-linejoin:miter;stroke-miterlimit:4;stroke-opacity:1;stroke-dasharray:none" sodipodi:nodetypes="ccsssssscsssssssssssscscscccssscccsccccscsssssscsscssssssscsscssssccssscsccsssssscssccsssccssc"/>
        <path transform="translate(51.401877,93.983525)" id="path3967" d="m 246.10338,347.20531 c 0,0 -7.98173,-53.21154 -11.9726,-81.1476 -3.99086,-27.93606 -15.96346,-18.62404 -3.99086,-51.88126 11.97259,-33.25721 5.32115,-73.16587 9.31202,-87.79904 3.99086,-14.63317 25.27548,-115.735102 25.27548,-115.735102" style="fill:#aa4400;stroke:#000000;stroke-width:3;stroke-linecap:butt;stroke-linejoin:miter;stroke-miterlimit:4;stroke-opacity:1;stroke-dasharray:none"/>
        <path transform="translate(51.401877,93.983525)" id="path3969" d="m 400.41685,214.17645 c 0,0 34.5875,9.31202 61.19327,-1.33028 26.60577,-10.64231 45.22981,-3.99087 54.54183,-7.98174 9.31202,-3.99086 15.96346,-7.98173 15.96346,-7.98173" style="fill:#aa4400;stroke:#000000;stroke-width:1px;stroke-linecap:butt;stroke-linejoin:miter;stroke-opacity:1"/>
        <path transform="translate(51.401877,93.983525)" id="path3971" d="m 358.54243,236.8991 c 0,0 -21.97943,-20.06207 -8.67655,-50.65871 13.30289,-30.59663 21.28462,-27.93605 30.59664,-50.55096 9.31202,-22.6149 30.59664,-59.862984 30.59664,-59.862984" style="fill:#aa4400;stroke:#000000;stroke-width:1px;stroke-linecap:butt;stroke-linejoin:miter;stroke-opacity:1" sodipodi:nodetypes="cssc"/>
        <path id="path3973" d="m 333.79465,419.73714 c 0,0 -14.63317,-17.29375 -2.66058,-42.56924 11.9726,-25.27548 15.96347,-25.27548 11.9726,-38.57836 -3.99087,-13.30289 -6.65144,-63.85385 -6.65144,-63.85385" style="fill:#aa4400;stroke:#000000;stroke-width:1px;stroke-linecap:butt;stroke-linejoin:miter;stroke-opacity:1"/>
        <path transform="translate(51.401877,93.983525)" id="path3975" d="m 305.96636,295.32405 c 0,0 55.87212,15.96347 71.83558,9.31202 15.96347,-6.65144 23.9452,-18.62404 45.22981,-25.27548 21.28462,-6.65144 18.62404,0 29.26635,1.33029 10.64231,1.33029 15.96346,2.66058 15.96346,2.66058" style="fill:#aa4400;stroke:#000000;stroke-width:1px;stroke-linecap:butt;stroke-linejoin:miter;stroke-opacity:1"/>
        <path style="fill:#aa4400;stroke:#000000;stroke-width:1px;stroke-linecap:butt;stroke-linejoin:miter;stroke-opacity:1" d="m 235.95337,445.12285 c 0,0 -39.53813,7.65254 -58.66948,3.18856 -19.13136,-4.46398 -61.85805,-8.92796 -66.95974,-9.56568 -5.1017,-0.63771 -14.667377,-3.18856 -14.667377,-3.18856" id="path3977" transform="matrix(2.6687501,0,0,2.6687501,51.401877,-721.99778)"/>
        <path style="fill:#aa4400;stroke:#000000;stroke-width:1px;stroke-linecap:butt;stroke-linejoin:miter;stroke-opacity:1" d="m 90.555079,437.47031 c 0,0 15.942791,-6.37712 22.319911,-17.21822 6.37712,-10.8411 0.63771,-12.75424 14.02966,-21.04449 13.39195,-8.29025 19.76907,-8.92797 23.59534,-14.02966 3.82627,-5.10169 35.07415,-36.98729 40.81356,-43.3644 5.7394,-6.37712 11.47881,-5.1017 14.02966,-10.20339 2.55084,-5.1017 11.47881,-19.76907 11.47881,-19.76907" id="path3979" transform="matrix(2.6687501,0,0,2.6687501,51.401877,-721.99778)"/>
      </g>
      <g transform="matrix(0.02239485,-0.37403741,-0.37403741,-0.02239485,729.71872,688.53154)" id="g3981" style="fill:#aa4400">
        <path sodipodi:nodetypes="ccsssssscsssssssssssscscscccssscccsccccscsssssscsscssssssscsscssssccssscsccsssssscssccsssccssc" style="fill:#aa4400;stroke:#000000;stroke-width:5.50000000000000000;stroke-linecap:butt;stroke-linejoin:miter;stroke-miterlimit:4;stroke-opacity:1;stroke-dasharray:none" d="m 54.220066,658.03443 18.484113,1.23228 c 0,0 -1.232274,-8.62592 7.393645,-19.71639 8.62592,-11.09047 103.511036,-101.04649 123.227426,-117.06605 19.71638,-16.01957 82.56237,-69.00736 88.72374,-69.00736 6.16137,0 29.57458,13.55502 34.50368,25.87776 4.92909,12.32274 20.94866,39.43278 28.34231,43.1296 7.39364,3.69682 50.52324,24.64548 61.61371,24.64548 11.09046,0 4.92909,-20.94866 4.92909,-20.94866 0,0 34.50368,14.78729 40.66505,13.55502 6.16137,-1.23228 1.23228,-8.62592 7.39365,-7.39365 6.16137,1.23228 17.25184,11.09047 30.80685,4.9291 13.55502,-6.16137 -2.46455,-14.78729 14.78729,-19.71639 17.25184,-4.9291 14.78729,2.46455 23.41321,-3.69682 8.62592,-6.16137 -8.62592,-4.9291 9.8582,-6.16137 18.48411,-1.23228 18.48411,-1.23228 19.71639,-7.39365 1.23227,-6.16137 -12.32275,-4.92909 8.62591,-6.16137 20.94867,-1.23227 22.18094,2.46455 32.03913,-1.23227 9.8582,-3.69683 -7.39364,-8.62592 9.8582,-6.16137 17.25184,2.46454 8.62592,11.09046 25.87776,3.69682 17.25184,-7.39365 34.50367,-17.25184 38.2005,-20.94866 3.69682,-3.69683 4.92909,-7.39365 4.92909,-7.39365 0,0 -27.11003,3.69682 -36.96822,-2.46455 -9.8582,-6.16137 -18.48412,-12.32274 -18.48412,-12.32274 0,0 -7.39364,2.46455 -12.32274,-2.46455 -4.92909,-4.92909 -9.85819,-12.32274 -9.85819,-12.32274 l -14.78729,-2.46455 -11.09047,-11.09047 c 0,0 -13.55502,-7.39364 -19.71639,-9.85819 -6.16137,-2.46455 6.16137,-8.62592 0,-12.32274 -6.16137,-3.69682 -18.48411,-7.39365 -23.41321,-11.09047 -4.92909,-3.69682 -4.92909,-4.9291 -4.92909,-4.9291 l 19.75492,-24.99562 -4.96763,-11.9726 c 0,0 18.48411,-2.46455 27.11003,-20.94867 8.62592,-18.48411 8.62592,-32.03912 8.62592,-32.03912 l -13.55502,-6.16138 12.32274,-29.57458 -6.7775,-2.46455 c 0,0 9.24205,-12.32274 8.00978,-17.25184 -1.23228,-4.92909 -3.69682,-8.62591 -3.69682,-8.62591 0,0 17.25184,-27.11004 17.25184,-29.57459 0,-2.46454 -4.9291,-6.16137 -1.84842,-11.09046 3.08069,-4.9291 0.61614,-0.61614 9.24206,-6.77751 8.62592,-6.16137 2.46455,-13.55502 7.39365,-21.5648 4.92909,-8.00978 3.69682,-8.00978 7.39364,-16.6357 3.69682,-8.62592 8.62592,-15.40343 8.62592,-24.02935 0,-8.62592 0,-14.78729 0,-14.78729 0,0 -50.52324,57.91689 -54.22007,57.91689 -3.69682,0 -4.31295,2.46455 -7.39364,-1.23228 -3.08069,-3.69682 -3.69682,-3.69682 -3.69682,-3.69682 0,0 -22.18094,20.94866 -27.72617,20.94866 -5.54524,0 -4.31296,-6.77751 -9.24206,-8.62592 -4.9291,-1.84841 -3.08069,-1.84841 -15.40343,4.9291 -12.32274,6.77751 3.08069,11.7066 -6.16137,9.85819 -9.24206,-1.84841 -4.31296,-7.39364 -11.09047,-4.31296 -6.7775,3.08069 -9.24205,1.84841 -16.6357,8.00979 -7.39364,6.16137 -7.39364,9.24205 -7.39364,6.16137 0,-3.08069 -7.39365,-26.4939 -7.39365,-26.4939 0,0 -30.19072,8.62592 -37.58436,16.01957 -7.39365,7.39364 -12.32275,12.93888 -12.32275,14.78729 0,1.84841 -2.46454,4.92909 -2.46454,4.92909 0,0 -4.31296,-4.92909 -7.39365,-4.92909 -3.08068,0 0,-6.77751 -13.55502,3.08068 -13.55501,9.8582 -30.19071,17.25184 -30.19071,20.33253 0,3.08068 2.46454,5.54523 0,3.08068 -2.46455,-2.46455 -20.94867,-38.81664 -20.94867,-38.81664 l -3.69682,1.84842 c 0,0 -4.92909,-28.95845 -8.62592,-35.73596 -3.69682,-6.7775 -6.77751,-1.84841 -6.77751,-12.32274 0,-10.47433 0,-8.00978 0,-18.48411 0,-10.47433 -3.69682,-22.797075 -3.69682,-22.797075 0,0 -28.95844,43.745735 -35.73595,54.836205 -6.77751,11.09047 -5.54523,17.25184 -5.54523,17.25184 l -5.54524,-1.23228 c 0,0 -6.77751,-1.84841 -11.09047,10.47433 -4.31296,12.32275 -10.47433,35.11982 -11.7066,38.81664 -1.23228,3.69682 -1.23228,5.54524 -3.69682,5.54524 -2.46455,0 -2.46455,-4.31296 -4.9291,-3.08069 -2.46455,1.23227 -8.00978,-0.61614 -8.62592,8.00978 -0.61614,8.62592 6.77751,67.15895 4.31296,72.70418 -2.46455,5.54524 -3.69682,5.54524 -3.69682,5.54524 0,0 -11.70661,-3.69683 -12.32275,-0.61614 -0.61613,3.08068 -8.00978,9.24205 -3.08068,15.40343 4.9291,6.16137 11.09047,14.78729 11.09047,14.78729 l -8.62592,0 c 0,0 26.49389,31.42299 21.5648,34.50367 -4.9291,3.08069 -5.54524,-0.61613 -7.39365,5.54524 -1.84841,6.16137 3.69682,14.17115 9.85819,19.71639 6.16138,5.54523 44.97801,44.97801 44.97801,44.97801 l -0.61613,6.7775 c 0,0 -140.47926,104.12718 -140.47926,106.59172 0,2.46455 -83.794652,79.48169 -86.2592,86.87534 -2.464549,7.39364 -6.161371,19.10025 -5.545234,17.86797 z" id="path3983"/>
        <path style="fill:#aa4400;stroke:#000000;stroke-width:3;stroke-linecap:butt;stroke-linejoin:miter;stroke-miterlimit:4;stroke-opacity:1;stroke-dasharray:none" d="m 246.10338,347.20531 c 0,0 -7.98173,-53.21154 -11.9726,-81.1476 -3.99086,-27.93606 -15.96346,-18.62404 -3.99086,-51.88126 11.97259,-33.25721 5.32115,-73.16587 9.31202,-87.79904 3.99086,-14.63317 25.27548,-115.735102 25.27548,-115.735102" id="path3985" transform="translate(51.401877,93.983525)"/>
        <path style="fill:#aa4400;stroke:#000000;stroke-width:1px;stroke-linecap:butt;stroke-linejoin:miter;stroke-opacity:1" d="m 400.41685,214.17645 c 0,0 34.5875,9.31202 61.19327,-1.33028 26.60577,-10.64231 45.22981,-3.99087 54.54183,-7.98174 9.31202,-3.99086 15.96346,-7.98173 15.96346,-7.98173" id="path3987" transform="translate(51.401877,93.983525)"/>
        <path sodipodi:nodetypes="cssc" style="fill:#aa4400;stroke:#000000;stroke-width:1px;stroke-linecap:butt;stroke-linejoin:miter;stroke-opacity:1" d="m 358.54243,236.8991 c 0,0 -21.97943,-20.06207 -8.67655,-50.65871 13.30289,-30.59663 21.28462,-27.93605 30.59664,-50.55096 9.31202,-22.6149 30.59664,-59.862984 30.59664,-59.862984" id="path3989" transform="translate(51.401877,93.983525)"/>
        <path style="fill:#aa4400;stroke:#000000;stroke-width:1px;stroke-linecap:butt;stroke-linejoin:miter;stroke-opacity:1" d="m 333.79465,419.73714 c 0,0 -14.63317,-17.29375 -2.66058,-42.56924 11.9726,-25.27548 15.96347,-25.27548 11.9726,-38.57836 -3.99087,-13.30289 -6.65144,-63.85385 -6.65144,-63.85385" id="path3991"/>
        <path style="fill:#aa4400;stroke:#000000;stroke-width:1px;stroke-linecap:butt;stroke-linejoin:miter;stroke-opacity:1" d="m 305.96636,295.32405 c 0,0 55.87212,15.96347 71.83558,9.31202 15.96347,-6.65144 23.9452,-18.62404 45.22981,-25.27548 21.28462,-6.65144 18.62404,0 29.26635,1.33029 10.64231,1.33029 15.96346,2.66058 15.96346,2.66058" id="path3993" transform="translate(51.401877,93.983525)"/>
        <path transform="matrix(2.6687501,0,0,2.6687501,51.401877,-721.99778)" id="path3995" d="m 235.95337,445.12285 c 0,0 -39.53813,7.65254 -58.66948,3.18856 -19.13136,-4.46398 -61.85805,-8.92796 -66.95974,-9.56568 -5.1017,-0.63771 -14.667377,-3.18856 -14.667377,-3.18856" style="fill:#aa4400;stroke:#000000;stroke-width:1px;stroke-linecap:butt;stroke-linejoin:miter;stroke-opacity:1"/>
        <path transform="matrix(2.6687501,0,0,2.6687501,51.401877,-721.99778)" id="path3997" d="m 90.555079,437.47031 c 0,0 15.942791,-6.37712 22.319911,-17.21822 6.37712,-10.8411 0.63771,-12.75424 14.02966,-21.04449 13.39195,-8.29025 19.76907,-8.92797 23.59534,-14.02966 3.82627,-5.10169 35.07415,-36.98729 40.81356,-43.3644 5.7394,-6.37712 11.47881,-5.1017 14.02966,-10.20339 2.55084,-5.1017 11.47881,-19.76907 11.47881,-19.76907" style="fill:#aa4400;stroke:#000000;stroke-width:1px;stroke-linecap:butt;stroke-linejoin:miter;stroke-opacity:1"/>
      </g>
      <g id="g4017" transform="matrix(-0.04532202,-0.37195622,-0.37195622,0.04532202,368.54113,389.44288)" style="fill:#ff7f2a">
        <path id="path4019" d="m 54.220066,658.03443 18.484113,1.23228 c 0,0 -1.232274,-8.62592 7.393645,-19.71639 8.62592,-11.09047 103.511036,-101.04649 123.227426,-117.06605 19.71638,-16.01957 82.56237,-69.00736 88.72374,-69.00736 6.16137,0 29.57458,13.55502 34.50368,25.87776 4.92909,12.32274 20.94866,39.43278 28.34231,43.1296 7.39364,3.69682 50.52324,24.64548 61.61371,24.64548 11.09046,0 4.92909,-20.94866 4.92909,-20.94866 0,0 34.50368,14.78729 40.66505,13.55502 6.16137,-1.23228 1.23228,-8.62592 7.39365,-7.39365 6.16137,1.23228 17.25184,11.09047 30.80685,4.9291 13.55502,-6.16137 -2.46455,-14.78729 14.78729,-19.71639 17.25184,-4.9291 14.78729,2.46455 23.41321,-3.69682 8.62592,-6.16137 -8.62592,-4.9291 9.8582,-6.16137 18.48411,-1.23228 18.48411,-1.23228 19.71639,-7.39365 1.23227,-6.16137 -12.32275,-4.92909 8.62591,-6.16137 20.94867,-1.23227 22.18094,2.46455 32.03913,-1.23227 9.8582,-3.69683 -7.39364,-8.62592 9.8582,-6.16137 17.25184,2.46454 8.62592,11.09046 25.87776,3.69682 17.25184,-7.39365 34.50367,-17.25184 38.2005,-20.94866 3.69682,-3.69683 4.92909,-7.39365 4.92909,-7.39365 0,0 -27.11003,3.69682 -36.96822,-2.46455 -9.8582,-6.16137 -18.48412,-12.32274 -18.48412,-12.32274 0,0 -7.39364,2.46455 -12.32274,-2.46455 -4.92909,-4.92909 -9.85819,-12.32274 -9.85819,-12.32274 l -14.78729,-2.46455 -11.09047,-11.09047 c 0,0 -13.55502,-7.39364 -19.71639,-9.85819 -6.16137,-2.46455 6.16137,-8.62592 0,-12.32274 -6.16137,-3.69682 -18.48411,-7.39365 -23.41321,-11.09047 -4.92909,-3.69682 -4.92909,-4.9291 -4.92909,-4.9291 l 19.75492,-24.99562 -4.96763,-11.9726 c 0,0 18.48411,-2.46455 27.11003,-20.94867 8.62592,-18.48411 8.62592,-32.03912 8.62592,-32.03912 l -13.55502,-6.16138 12.32274,-29.57458 -6.7775,-2.46455 c 0,0 9.24205,-12.32274 8.00978,-17.25184 -1.23228,-4.92909 -3.69682,-8.62591 -3.69682,-8.62591 0,0 17.25184,-27.11004 17.25184,-29.57459 0,-2.46454 -4.9291,-6.16137 -1.84842,-11.09046 3.08069,-4.9291 0.61614,-0.61614 9.24206,-6.77751 8.62592,-6.16137 2.46455,-13.55502 7.39365,-21.5648 4.92909,-8.00978 3.69682,-8.00978 7.39364,-16.6357 3.69682,-8.62592 8.62592,-15.40343 8.62592,-24.02935 0,-8.62592 0,-14.78729 0,-14.78729 0,0 -50.52324,57.91689 -54.22007,57.91689 -3.69682,0 -4.31295,2.46455 -7.39364,-1.23228 -3.08069,-3.69682 -3.69682,-3.69682 -3.69682,-3.69682 0,0 -22.18094,20.94866 -27.72617,20.94866 -5.54524,0 -4.31296,-6.77751 -9.24206,-8.62592 -4.9291,-1.84841 -3.08069,-1.84841 -15.40343,4.9291 -12.32274,6.77751 3.08069,11.7066 -6.16137,9.85819 -9.24206,-1.84841 -4.31296,-7.39364 -11.09047,-4.31296 -6.7775,3.08069 -9.24205,1.84841 -16.6357,8.00979 -7.39364,6.16137 -7.39364,9.24205 -7.39364,6.16137 0,-3.08069 -7.39365,-26.4939 -7.39365,-26.4939 0,0 -30.19072,8.62592 -37.58436,16.01957 -7.39365,7.39364 -12.32275,12.93888 -12.32275,14.78729 0,1.84841 -2.46454,4.92909 -2.46454,4.92909 0,0 -4.31296,-4.92909 -7.39365,-4.92909 -3.08068,0 0,-6.77751 -13.55502,3.08068 -13.55501,9.8582 -30.19071,17.25184 -30.19071,20.33253 0,3.08068 2.46454,5.54523 0,3.08068 -2.46455,-2.46455 -20.94867,-38.81664 -20.94867,-38.81664 l -3.69682,1.84842 c 0,0 -4.92909,-28.95845 -8.62592,-35.73596 -3.69682,-6.7775 -6.77751,-1.84841 -6.77751,-12.32274 0,-10.47433 0,-8.00978 0,-18.48411 0,-10.47433 -3.69682,-22.797075 -3.69682,-22.797075 0,0 -28.95844,43.745735 -35.73595,54.836205 -6.77751,11.09047 -5.54523,17.25184 -5.54523,17.25184 l -5.54524,-1.23228 c 0,0 -6.77751,-1.84841 -11.09047,10.47433 -4.31296,12.32275 -10.47433,35.11982 -11.7066,38.81664 -1.23228,3.69682 -1.23228,5.54524 -3.69682,5.54524 -2.46455,0 -2.46455,-4.31296 -4.9291,-3.08069 -2.46455,1.23227 -8.00978,-0.61614 -8.62592,8.00978 -0.61614,8.62592 6.77751,67.15895 4.31296,72.70418 -2.46455,5.54524 -3.69682,5.54524 -3.69682,5.54524 0,0 -11.70661,-3.69683 -12.32275,-0.61614 -0.61613,3.08068 -8.00978,9.24205 -3.08068,15.40343 4.9291,6.16137 11.09047,14.78729 11.09047,14.78729 l -8.62592,0 c 0,0 26.49389,31.42299 21.5648,34.50367 -4.9291,3.08069 -5.54524,-0.61613 -7.39365,5.54524 -1.84841,6.16137 3.69682,14.17115 9.85819,19.71639 6.16138,5.54523 44.97801,44.97801 44.97801,44.97801 l -0.61613,6.7775 c 0,0 -140.47926,104.12718 -140.47926,106.59172 0,2.46455 -83.794652,79.48169 -86.2592,86.87534 -2.464549,7.39364 -6.161371,19.10025 -5.545234,17.86797 z" style="fill:#ff7f2a;stroke:#000000;stroke-width:5.50000000000000000;stroke-linecap:butt;stroke-linejoin:miter;stroke-miterlimit:4;stroke-opacity:1;stroke-dasharray:none" sodipodi:nodetypes="ccsssssscsssssssssssscscscccssscccsccccscsssssscsscssssssscsscssssccssscsccsssssscssccsssccssc"/>
        <path transform="translate(51.401877,93.983525)" id="path4021" d="m 246.10338,347.20531 c 0,0 -7.98173,-53.21154 -11.9726,-81.1476 -3.99086,-27.93606 -15.96346,-18.62404 -3.99086,-51.88126 11.97259,-33.25721 5.32115,-73.16587 9.31202,-87.79904 3.99086,-14.63317 25.27548,-115.735102 25.27548,-115.735102" style="fill:#ff7f2a;stroke:#000000;stroke-width:3;stroke-linecap:butt;stroke-linejoin:miter;stroke-miterlimit:4;stroke-opacity:1;stroke-dasharray:none"/>
        <path transform="translate(51.401877,93.983525)" id="path4023" d="m 400.41685,214.17645 c 0,0 34.5875,9.31202 61.19327,-1.33028 26.60577,-10.64231 45.22981,-3.99087 54.54183,-7.98174 9.31202,-3.99086 15.96346,-7.98173 15.96346,-7.98173" style="fill:#ff7f2a;stroke:#000000;stroke-width:1px;stroke-linecap:butt;stroke-linejoin:miter;stroke-opacity:1"/>
        <path transform="translate(51.401877,93.983525)" id="path4025" d="m 358.54243,236.8991 c 0,0 -21.97943,-20.06207 -8.67655,-50.65871 13.30289,-30.59663 21.28462,-27.93605 30.59664,-50.55096 9.31202,-22.6149 30.59664,-59.862984 30.59664,-59.862984" style="fill:#ff7f2a;stroke:#000000;stroke-width:1px;stroke-linecap:butt;stroke-linejoin:miter;stroke-opacity:1" sodipodi:nodetypes="cssc"/>
        <path id="path4027" d="m 333.79465,419.73714 c 0,0 -14.63317,-17.29375 -2.66058,-42.56924 11.9726,-25.27548 15.96347,-25.27548 11.9726,-38.57836 -3.99087,-13.30289 -6.65144,-63.85385 -6.65144,-63.85385" style="fill:#ff7f2a;stroke:#000000;stroke-width:1px;stroke-linecap:butt;stroke-linejoin:miter;stroke-opacity:1"/>
        <path transform="translate(51.401877,93.983525)" id="path4029" d="m 305.96636,295.32405 c 0,0 55.87212,15.96347 71.83558,9.31202 15.96347,-6.65144 23.9452,-18.62404 45.22981,-25.27548 21.28462,-6.65144 18.62404,0 29.26635,1.33029 10.64231,1.33029 15.96346,2.66058 15.96346,2.66058" style="fill:#ff7f2a;stroke:#000000;stroke-width:1px;stroke-linecap:butt;stroke-linejoin:miter;stroke-opacity:1"/>
        <path style="fill:#ff7f2a;stroke:#000000;stroke-width:1px;stroke-linecap:butt;stroke-linejoin:miter;stroke-opacity:1" d="m 235.95337,445.12285 c 0,0 -39.53813,7.65254 -58.66948,3.18856 -19.13136,-4.46398 -61.85805,-8.92796 -66.95974,-9.56568 -5.1017,-0.63771 -14.667377,-3.18856 -14.667377,-3.18856" id="path4031" transform="matrix(2.6687501,0,0,2.6687501,51.401877,-721.99778)"/>
        <path style="fill:#ff7f2a;stroke:#000000;stroke-width:1px;stroke-linecap:butt;stroke-linejoin:miter;stroke-opacity:1" d="m 90.555079,437.47031 c 0,0 15.942791,-6.37712 22.319911,-17.21822 6.37712,-10.8411 0.63771,-12.75424 14.02966,-21.04449 13.39195,-8.29025 19.76907,-8.92797 23.59534,-14.02966 3.82627,-5.10169 35.07415,-36.98729 40.81356,-43.3644 5.7394,-6.37712 11.47881,-5.1017 14.02966,-10.20339 2.55084,-5.1017 11.47881,-19.76907 11.47881,-19.76907" id="path4033" transform="matrix(2.6687501,0,0,2.6687501,51.401877,-721.99778)"/>
      </g>
      <g id="g4035" transform="matrix(-0.13246962,0.35051008,-0.35051008,-0.13246962,608.30243,484.64133)" style="fill:#aa4400">
        <path id="path4037" d="m 54.220066,658.03443 18.484113,1.23228 c 0,0 -1.232274,-8.62592 7.393645,-19.71639 8.62592,-11.09047 103.511036,-101.04649 123.227426,-117.06605 19.71638,-16.01957 82.56237,-69.00736 88.72374,-69.00736 6.16137,0 29.57458,13.55502 34.50368,25.87776 4.92909,12.32274 20.94866,39.43278 28.34231,43.1296 7.39364,3.69682 50.52324,24.64548 61.61371,24.64548 11.09046,0 4.92909,-20.94866 4.92909,-20.94866 0,0 34.50368,14.78729 40.66505,13.55502 6.16137,-1.23228 1.23228,-8.62592 7.39365,-7.39365 6.16137,1.23228 17.25184,11.09047 30.80685,4.9291 13.55502,-6.16137 -2.46455,-14.78729 14.78729,-19.71639 17.25184,-4.9291 14.78729,2.46455 23.41321,-3.69682 8.62592,-6.16137 -8.62592,-4.9291 9.8582,-6.16137 18.48411,-1.23228 18.48411,-1.23228 19.71639,-7.39365 1.23227,-6.16137 -12.32275,-4.92909 8.62591,-6.16137 20.94867,-1.23227 22.18094,2.46455 32.03913,-1.23227 9.8582,-3.69683 -7.39364,-8.62592 9.8582,-6.16137 17.25184,2.46454 8.62592,11.09046 25.87776,3.69682 17.25184,-7.39365 34.50367,-17.25184 38.2005,-20.94866 3.69682,-3.69683 4.92909,-7.39365 4.92909,-7.39365 0,0 -27.11003,3.69682 -36.96822,-2.46455 -9.8582,-6.16137 -18.48412,-12.32274 -18.48412,-12.32274 0,0 -7.39364,2.46455 -12.32274,-2.46455 -4.92909,-4.92909 -9.85819,-12.32274 -9.85819,-12.32274 l -14.78729,-2.46455 -11.09047,-11.09047 c 0,0 -13.55502,-7.39364 -19.71639,-9.85819 -6.16137,-2.46455 6.16137,-8.62592 0,-12.32274 -6.16137,-3.69682 -18.48411,-7.39365 -23.41321,-11.09047 -4.92909,-3.69682 -4.92909,-4.9291 -4.92909,-4.9291 l 19.75492,-24.99562 -4.96763,-11.9726 c 0,0 18.48411,-2.46455 27.11003,-20.94867 8.62592,-18.48411 8.62592,-32.03912 8.62592,-32.03912 l -13.55502,-6.16138 12.32274,-29.57458 -6.7775,-2.46455 c 0,0 9.24205,-12.32274 8.00978,-17.25184 -1.23228,-4.92909 -3.69682,-8.62591 -3.69682,-8.62591 0,0 17.25184,-27.11004 17.25184,-29.57459 0,-2.46454 -4.9291,-6.16137 -1.84842,-11.09046 3.08069,-4.9291 0.61614,-0.61614 9.24206,-6.77751 8.62592,-6.16137 2.46455,-13.55502 7.39365,-21.5648 4.92909,-8.00978 3.69682,-8.00978 7.39364,-16.6357 3.69682,-8.62592 8.62592,-15.40343 8.62592,-24.02935 0,-8.62592 0,-14.78729 0,-14.78729 0,0 -50.52324,57.91689 -54.22007,57.91689 -3.69682,0 -4.31295,2.46455 -7.39364,-1.23228 -3.08069,-3.69682 -3.69682,-3.69682 -3.69682,-3.69682 0,0 -22.18094,20.94866 -27.72617,20.94866 -5.54524,0 -4.31296,-6.77751 -9.24206,-8.62592 -4.9291,-1.84841 -3.08069,-1.84841 -15.40343,4.9291 -12.32274,6.77751 3.08069,11.7066 -6.16137,9.85819 -9.24206,-1.84841 -4.31296,-7.39364 -11.09047,-4.31296 -6.7775,3.08069 -9.24205,1.84841 -16.6357,8.00979 -7.39364,6.16137 -7.39364,9.24205 -7.39364,6.16137 0,-3.08069 -7.39365,-26.4939 -7.39365,-26.4939 0,0 -30.19072,8.62592 -37.58436,16.01957 -7.39365,7.39364 -12.32275,12.93888 -12.32275,14.78729 0,1.84841 -2.46454,4.92909 -2.46454,4.92909 0,0 -4.31296,-4.92909 -7.39365,-4.92909 -3.08068,0 0,-6.77751 -13.55502,3.08068 -13.55501,9.8582 -30.19071,17.25184 -30.19071,20.33253 0,3.08068 2.46454,5.54523 0,3.08068 -2.46455,-2.46455 -20.94867,-38.81664 -20.94867,-38.81664 l -3.69682,1.84842 c 0,0 -4.92909,-28.95845 -8.62592,-35.73596 -3.69682,-6.7775 -6.77751,-1.84841 -6.77751,-12.32274 0,-10.47433 0,-8.00978 0,-18.48411 0,-10.47433 -3.69682,-22.797075 -3.69682,-22.797075 0,0 -28.95844,43.745735 -35.73595,54.836205 -6.77751,11.09047 -5.54523,17.25184 -5.54523,17.25184 l -5.54524,-1.23228 c 0,0 -6.77751,-1.84841 -11.09047,10.47433 -4.31296,12.32275 -10.47433,35.11982 -11.7066,38.81664 -1.23228,3.69682 -1.23228,5.54524 -3.69682,5.54524 -2.46455,0 -2.46455,-4.31296 -4.9291,-3.08069 -2.46455,1.23227 -8.00978,-0.61614 -8.62592,8.00978 -0.61614,8.62592 6.77751,67.15895 4.31296,72.70418 -2.46455,5.54524 -3.69682,5.54524 -3.69682,5.54524 0,0 -11.70661,-3.69683 -12.32275,-0.61614 -0.61613,3.08068 -8.00978,9.24205 -3.08068,15.40343 4.9291,6.16137 11.09047,14.78729 11.09047,14.78729 l -8.62592,0 c 0,0 26.49389,31.42299 21.5648,34.50367 -4.9291,3.08069 -5.54524,-0.61613 -7.39365,5.54524 -1.84841,6.16137 3.69682,14.17115 9.85819,19.71639 6.16138,5.54523 44.97801,44.97801 44.97801,44.97801 l -0.61613,6.7775 c 0,0 -140.47926,104.12718 -140.47926,106.59172 0,2.46455 -83.794652,79.48169 -86.2592,86.87534 -2.464549,7.39364 -6.161371,19.10025 -5.545234,17.86797 z" style="fill:#aa4400;stroke:#000000;stroke-width:5.50000000000000000;stroke-linecap:butt;stroke-linejoin:miter;stroke-miterlimit:4;stroke-opacity:1;stroke-dasharray:none" sodipodi:nodetypes="ccsssssscsssssssssssscscscccssscccsccccscsssssscsscssssssscsscssssccssscsccsssssscssccsssccssc"/>
        <path transform="translate(51.401877,93.983525)" id="path4039" d="m 246.10338,347.20531 c 0,0 -7.98173,-53.21154 -11.9726,-81.1476 -3.99086,-27.93606 -15.96346,-18.62404 -3.99086,-51.88126 11.97259,-33.25721 5.32115,-73.16587 9.31202,-87.79904 3.99086,-14.63317 25.27548,-115.735102 25.27548,-115.735102" style="fill:#aa4400;stroke:#000000;stroke-width:3;stroke-linecap:butt;stroke-linejoin:miter;stroke-miterlimit:4;stroke-opacity:1;stroke-dasharray:none"/>
        <path transform="translate(51.401877,93.983525)" id="path4041" d="m 400.41685,214.17645 c 0,0 34.5875,9.31202 61.19327,-1.33028 26.60577,-10.64231 45.22981,-3.99087 54.54183,-7.98174 9.31202,-3.99086 15.96346,-7.98173 15.96346,-7.98173" style="fill:#aa4400;stroke:#000000;stroke-width:1px;stroke-linecap:butt;stroke-linejoin:miter;stroke-opacity:1"/>
        <path transform="translate(51.401877,93.983525)" id="path4043" d="m 358.54243,236.8991 c 0,0 -21.97943,-20.06207 -8.67655,-50.65871 13.30289,-30.59663 21.28462,-27.93605 30.59664,-50.55096 9.31202,-22.6149 30.59664,-59.862984 30.59664,-59.862984" style="fill:#aa4400;stroke:#000000;stroke-width:1px;stroke-linecap:butt;stroke-linejoin:miter;stroke-opacity:1" sodipodi:nodetypes="cssc"/>
        <path id="path4045" d="m 333.79465,419.73714 c 0,0 -14.63317,-17.29375 -2.66058,-42.56924 11.9726,-25.27548 15.96347,-25.27548 11.9726,-38.57836 -3.99087,-13.30289 -6.65144,-63.85385 -6.65144,-63.85385" style="fill:#aa4400;stroke:#000000;stroke-width:1px;stroke-linecap:butt;stroke-linejoin:miter;stroke-opacity:1"/>
        <path transform="translate(51.401877,93.983525)" id="path4047" d="m 305.96636,295.32405 c 0,0 55.87212,15.96347 71.83558,9.31202 15.96347,-6.65144 23.9452,-18.62404 45.22981,-25.27548 21.28462,-6.65144 18.62404,0 29.26635,1.33029 10.64231,1.33029 15.96346,2.66058 15.96346,2.66058" style="fill:#aa4400;stroke:#000000;stroke-width:1px;stroke-linecap:butt;stroke-linejoin:miter;stroke-opacity:1"/>
        <path style="fill:#aa4400;stroke:#000000;stroke-width:1px;stroke-linecap:butt;stroke-linejoin:miter;stroke-opacity:1" d="m 235.95337,445.12285 c 0,0 -39.53813,7.65254 -58.66948,3.18856 -19.13136,-4.46398 -61.85805,-8.92796 -66.95974,-9.56568 -5.1017,-0.63771 -14.667377,-3.18856 -14.667377,-3.18856" id="path4049" transform="matrix(2.6687501,0,0,2.6687501,51.401877,-721.99778)"/>
        <path style="fill:#aa4400;stroke:#000000;stroke-width:1px;stroke-linecap:butt;stroke-linejoin:miter;stroke-opacity:1" d="m 90.555079,437.47031 c 0,0 15.942791,-6.37712 22.319911,-17.21822 6.37712,-10.8411 0.63771,-12.75424 14.02966,-21.04449 13.39195,-8.29025 19.76907,-8.92797 23.59534,-14.02966 3.82627,-5.10169 35.07415,-36.98729 40.81356,-43.3644 5.7394,-6.37712 11.47881,-5.1017 14.02966,-10.20339 2.55084,-5.1017 11.47881,-19.76907 11.47881,-19.76907" id="path4051" transform="matrix(2.6687501,0,0,2.6687501,51.401877,-721.99778)"/>
      </g>
    </g>
  </g>
  <metadata>
    <rdf:RDF>
      <cc:Work>
        <dc:format>image/svg+xml</dc:format>
        <dc:type rdf:resource="http://purl.org/dc/dcmitype/StillImage"/>
        <cc:license rdf:resource="http://creativecommons.org/licenses/publicdomain/"/>
        <dc:publisher>
          <cc:Agent rdf:about="http://openclipart.org/">
            <dc:title>Open Clip Art Library</dc:title>
          </cc:Agent>
        </dc:publisher>
        <dc:title>Fall2010-14</dc:title>
        <dc:date>2010-08-12T14:40:10</dc:date>
        <dc:description>fall2010,bujung,maple,leaf</dc:description>
        <dc:source>http://openclipart.org/detail/79627/fall2010-14-by-aungkarns</dc:source>
        <dc:creator>
          <cc:Agent>
            <dc:title>aungkarns</dc:title>
          </cc:Agent>
        </dc:creator>
        <dc:subject>
          <rdf:Bag>
            <rdf:li>autumn</rdf:li>
            <rdf:li>fall2010</rdf:li>
            <rdf:li>fall</rdf:li>
            <rdf:li>bujung</rdf:li>
            <rdf:li>maple</rdf:li>
            <rdf:li>leaf</rdf:li>
            <rdf:li>leaves</rdf:li>
            <rdf:li>plants</rdf:li>
          </rdf:Bag>
        </dc:subject>
      </cc:Work>
      <cc:License rdf:about="http://creativecommons.org/licenses/publicdomain/">
        <cc:permits rdf:resource="http://creativecommons.org/ns#Reproduction"/>
        <cc:permits rdf:resource="http://creativecommons.org/ns#Distribution"/>
        <cc:permits rdf:resource="http://creativecommons.org/ns#DerivativeWorks"/>
      </cc:License>
    </rdf:RDF>
  </metadata>
</svg>