<?xml version="1.0" encoding="UTF-8" standalone="no"?>
<!-- Created with Inkscape (http://www.inkscape.org/) -->
<svg xmlns:dc="http://purl.org/dc/elements/1.1/" xmlns:cc="http://creativecommons.org/ns#" xmlns:rdf="http://www.w3.org/1999/02/22-rdf-syntax-ns#" xmlns:svg="http://www.w3.org/2000/svg" xmlns="http://www.w3.org/2000/svg" xmlns:sodipodi="http://sodipodi.sourceforge.net/DTD/sodipodi-0.dtd" xmlns:inkscape="http://www.inkscape.org/namespaces/inkscape" width="403.57141" height="513.81909" id="svg2" version="1.1" inkscape:version="0.48.3.1 r9886" sodipodi:docname="Documento nuevo 1">
  <defs id="defs4"/>
  <sodipodi:namedview id="base" pagecolor="#ffffff" bordercolor="#666666" borderopacity="1.0" inkscape:pageopacity="0.0" inkscape:pageshadow="2" inkscape:zoom="0.7" inkscape:cx="39.336377" inkscape:cy="192.79639" inkscape:document-units="px" inkscape:current-layer="layer2" showgrid="false" fit-margin-top="0" fit-margin-left="0" fit-margin-right="0" fit-margin-bottom="0" inkscape:window-width="1358" inkscape:window-height="766" inkscape:window-x="0" inkscape:window-y="0" inkscape:window-maximized="0"/>
  <g inkscape:groupmode="layer" id="layer2" inkscape:label="Capa" style="display:inline" transform="translate(-175.71429,-157.11449)">
    <g id="g4218">
      <path inkscape:connector-curvature="0" id="path4216" d="m 305,234.50504 10,-22.14286 1.78571,22.85714 5,-23.92857 10.71429,15 2.5,-15 9.28571,16.78572 11.78572,-17.14286 5.71428,15.71429 10.71429,-13.92858 3.57143,35 -15,13.92858 -1.78572,-25.35715 -7.14285,21.78572 c 0,0 -12.14286,-35.35715 -10.71429,-28.92857 1.42857,6.42857 1.78572,24.28571 1.78572,24.28571 0,0 -17.85715,-16.07143 -16.42858,-15.35714 1.42858,0.71428 1.42858,21.07143 1.42858,21.07143 l -14.64286,-22.5 -1.78572,26.42857 z" style="fill:#000000;stroke:#000000;stroke-width:1px;stroke-linecap:butt;stroke-linejoin:miter;stroke-opacity:1"/>
      <g transform="matrix(-1,0,0,1,678.55787,5.7142857)" id="g4204">
        <path inkscape:connector-curvature="0" id="path4206" d="m 475.52931,307.87976 24.24366,-18.18275 -27.27412,3.283 14.39468,-15.90991 -12.37437,0.25254 9.34391,-8.83883 -12.12183,-4.04061 9.34391,-6.81853 -10.35406,-1.76777 8.83883,-10.35406 -14.39467,3.53553 14.64721,-13.38452 -9.84899,0.75761 6.06092,-10.35406 -9.09138,-0.25254 2.27285,-18.94036 3.53553,-3.03046 -5.3033,0.25254 3.03046,-6.31345 -2.27284,0 0.50507,-8.5863 -4.29315,-1.26269 2.52538,-5.05076 -3.28299,0.75761 0.75761,-6.81853 -3.78807,2.02031 -0.50508,-10.6066 -1.76776,2.0203 -1.51523,-7.57614 -3.283,2.52538 -4.29314,-8.08122 -1.2627,4.54568 -9.34391,-4.29314 1.01016,4.79822 -8.33376,-0.25254 1.51523,3.283 -7.07107,1.01015 3.53553,3.53554 -13.8896,2.52538 6.566,3.78807 -7.82869,2.52538 7.07107,5.05076 -9.34391,2.27285 3.78807,2.77792 -16.41498,5.80837 10.85914,5.55584 -12.6269,0.50508 5.3033,7.82868 -14.14214,-9.84899 3.03046,16.66752 -14.89975,-12.62691 6.06092,17.93021 -12.12184,-3.53553 2.02031,15.40482 -6.81853,-19.95051 1.01015,45.45686 83.08505,59.59901 z" style="fill:#63605f;fill-opacity:1;stroke:none"/>
        <path inkscape:connector-curvature="0" id="path4208" d="m 437.39605,180.348 c 1.51523,0.75761 9.84899,-0.25254 9.84899,-0.25254 l -8.83883,8.33376 12.37436,0.75761 -15.15228,6.81853 14.39467,0 -13.63706,9.09137 15.9099,2.77792 -16.66751,3.283 11.11167,6.31345 -25.50635,0.25254 28.28427,12.87945 -16.92005,1.26269 13.8896,6.56599 -10.60661,1.51523 11.36422,3.53553 -15.15229,5.05076 14.64721,3.03046 -21.46574,10.6066 18.43529,-0.25253 -19.44544,7.07106 -14.89975,-5.3033 3.283,-8.83883 -9.84899,0.75761 4.04061,-10.10152 -10.85914,1.76776 -2.02031,-10.85914 16.92006,-18.43528 4.79822,-12.37437 11.36422,-17.67767 5.05076,-5.55584 6.81853,-2.27284 z" style="fill:#969d98;fill-opacity:1;stroke:none"/>
        <path inkscape:connector-curvature="0" id="path4210" d="m 466.69048,218.48126 -1.26269,-25.75889 -12.62691,-21.46575 -10.6066,-2.27284 -8.33376,10.6066 -8.5863,12.87945 -4.04061,2.0203 6.81853,-14.89975 7.82868,-7.57614 7.32361,-7.07107 7.57614,-0.25254 7.32361,7.82868 9.09137,20.70813 z" style="fill:#000000;stroke:none"/>
        <path inkscape:connector-curvature="0" id="path4212" d="m 440.67905,163.93302 -27.7792,39.39595 1.01016,-8.33376 12.37436,-20.70813 7.32361,-8.33376 z" style="fill:#7c7166;fill-opacity:1;stroke:none"/>
        <path inkscape:connector-curvature="0" id="path4214" d="m 456.33641,278.83787 18.68782,-8.5863 -6.56599,0.25254 6.06092,-11.11168 -8.5863,2.52539 5.05076,-9.84899 -10.35406,2.27284 4.04061,-21.46574 -8.83883,1.51523 2.0203,10.85914 -7.82868,13.8896 8.33376,1.76776 z" style="fill:#7a7b72;fill-opacity:1;stroke:none"/>
      </g>
      <g id="g4197">
        <path style="fill:#63605f;fill-opacity:1;stroke:none" d="m 475.52931,307.87976 24.24366,-18.18275 -27.27412,3.283 14.39468,-15.90991 -12.37437,0.25254 9.34391,-8.83883 -12.12183,-4.04061 9.34391,-6.81853 -10.35406,-1.76777 8.83883,-10.35406 -14.39467,3.53553 14.64721,-13.38452 -9.84899,0.75761 6.06092,-10.35406 -9.09138,-0.25254 2.27285,-18.94036 3.53553,-3.03046 -5.3033,0.25254 3.03046,-6.31345 -2.27284,0 0.50507,-8.5863 -4.29315,-1.26269 2.52538,-5.05076 -3.28299,0.75761 0.75761,-6.81853 -3.78807,2.02031 -0.50508,-10.6066 -1.76776,2.0203 -1.51523,-7.57614 -3.283,2.52538 -4.29314,-8.08122 -1.2627,4.54568 -9.34391,-4.29314 1.01016,4.79822 -8.33376,-0.25254 1.51523,3.283 -7.07107,1.01015 3.53553,3.53554 -13.8896,2.52538 6.566,3.78807 -7.82869,2.52538 7.07107,5.05076 -9.34391,2.27285 3.78807,2.77792 -16.41498,5.80837 10.85914,5.55584 -12.6269,0.50508 5.3033,7.82868 -14.14214,-9.84899 3.03046,16.66752 -14.89975,-12.62691 6.06092,17.93021 -12.12184,-3.53553 2.02031,15.40482 -6.81853,-19.95051 1.01015,45.45686 83.08505,59.59901 z" id="path4187" inkscape:connector-curvature="0"/>
        <path style="fill:#969d98;fill-opacity:1;stroke:none" d="m 437.39605,180.348 c 1.51523,0.75761 9.84899,-0.25254 9.84899,-0.25254 l -8.83883,8.33376 12.37436,0.75761 -15.15228,6.81853 14.39467,0 -13.63706,9.09137 15.9099,2.77792 -16.66751,3.283 11.11167,6.31345 -25.50635,0.25254 28.28427,12.87945 -16.92005,1.26269 13.8896,6.56599 -10.60661,1.51523 11.36422,3.53553 -15.15229,5.05076 14.64721,3.03046 -21.46574,10.6066 18.43529,-0.25253 -19.44544,7.07106 -14.89975,-5.3033 3.283,-8.83883 -9.84899,0.75761 4.04061,-10.10152 -10.85914,1.76776 -2.02031,-10.85914 16.92006,-18.43528 4.79822,-12.37437 11.36422,-17.67767 5.05076,-5.55584 6.81853,-2.27284 z" id="path4189" inkscape:connector-curvature="0"/>
        <path style="fill:#000000;stroke:none" d="m 466.69048,218.48126 -1.26269,-25.75889 -12.62691,-21.46575 -10.6066,-2.27284 -8.33376,10.6066 -8.5863,12.87945 -4.04061,2.0203 6.81853,-14.89975 7.82868,-7.57614 7.32361,-7.07107 7.57614,-0.25254 7.32361,7.82868 9.09137,20.70813 z" id="path4191" inkscape:connector-curvature="0"/>
        <path style="fill:#7c7166;fill-opacity:1;stroke:none" d="m 440.67905,163.93302 -27.7792,39.39595 1.01016,-8.33376 12.37436,-20.70813 7.32361,-8.33376 z" id="path4193" inkscape:connector-curvature="0"/>
        <path style="fill:#7a7b72;fill-opacity:1;stroke:none" d="m 456.33641,278.83787 18.68782,-8.5863 -6.56599,0.25254 6.06092,-11.11168 -8.5863,2.52539 5.05076,-9.84899 -10.35406,2.27284 4.04061,-21.46574 -8.83883,1.51523 2.0203,10.85914 -7.82868,13.8896 8.33376,1.76776 z" id="path4195" inkscape:connector-curvature="0"/>
      </g>
      <path inkscape:connector-curvature="0" id="path4181" d="m 212.85714,315.93361 -28.57143,24.28571 25,0 -28.57142,34.28572 43.57142,-14.28572 -48.57142,40.71429 32.85714,4.28571 -17.14286,33.57143 L 210,427.36218 198.57143,483.07647 226.42857,470.21932 220,498.79075 l 6.42857,-5 16.42857,60.71429 L 260,526.6479 l -9.28571,53.57142 26.42857,-14.28571 -15.71429,37.85714 25,-10.71428 -10,40.71428 30.71429,-25.71428 -5,30.71428 16.42857,-17.85714 -8.57143,50 23.57143,-32.85714 25,20.71428 -12.14286,-41.42857 32.14286,28.57143 10.71428,-32.14286 0.71429,41.42858 22.85714,-50.71429 0,22.85714 30.71429,-38.57143 L 440,618.07647 467.85714,573.79075 465.71429,593.07647 480,554.50504 l 2.85714,33.57143 13.57143,-47.14286 9.28572,22.85714 13.57142,-35 18.57143,29.28572 0.71429,-32.85715 14.28571,20.71429 1.42857,-50 18.57143,16.42857 6.42857,-29.28571 -27.85714,0.71428 7.14286,-17.85714 L 536.42857,448.07647 555,435.93361 l -30.71429,-10.71429 24.28572,0 -20,-29.28571 17.85714,4.28571 -27.85714,-42.14285 -2.85714,-12.85715 -30,-21.42857 22.14285,0.71429 L 470,298.07647 z" style="fill:#939b93;fill-opacity:1;stroke:none"/>
      <path inkscape:connector-curvature="0" id="path4179" d="m 256.07367,526.57778 -5.05076,15.65737 21.71828,-9.09138 0.50507,20.70813 13.63706,-8.08122 -7.57614,22.22336 14.64721,-2.02031 -6.06091,14.64721 33.33503,-9.09137 -28.78935,28.28427 19.69798,-8.58629 -21.71828,33.84011 22.22335,-18.18275 -2.0203,13.13198 14.64721,-15.65736 -5.05076,18.68782 11.11168,-14.14214 13.13198,23.23351 0.50507,-22.22335 19.1929,-2.02031 -5.55584,-39.39595 43.43656,31.81981 -19.69797,-38.3858 41.41625,27.27412 -16.16244,-54.54824 40.4061,36.36549 -21.71828,-57.57869 48.48733,33.84011 c 0,0 -8.5863,-43.94164 -7.07107,-41.92133 1.51523,2.0203 28.28427,23.73858 28.28427,23.73858 l -3.03046,-33.84011 36.36549,8.08122 -12.6269,-29.7995 19.69797,3.03046 -17.67767,-21.71828 19.1929,-0.50507 -19.1929,-16.16245 -24.74874,-9.09137 19.69798,19.69798 -14.64721,4.54568 10.10152,17.67767 -28.78934,-9.09137 10.6066,18.18275 -16.66752,-8.5863 3.53553,24.24366 -22.72843,-19.1929 2.02031,26.26397 -19.69798,-10.6066 6.06092,19.19289 -31.81981,-25.25381 -3.03046,45.96194 -28.78934,-23.23351 8.08122,36.87057 -20.20305,-12.12183 6.06091,34.34519 -28.78935,-18.18275 4.04061,54.04316 -9.59644,-27.77919 -20.20306,19.69797 4.04061,-41.41625 -19.19289,5.05076 5.05076,-26.76904 -25.75889,4.54568 7.07107,-24.74873 -28.78935,7.07106 z" style="fill:#a7a599;fill-opacity:1;stroke:none"/>
      <path inkscape:connector-curvature="0" id="path4177" d="m 253.54829,520.51687 0.50508,10.6066 10.6066,-1.01015 -3.03046,10.6066 13.13198,-7.07107 -6.56599,14.64721 14.14214,-2.0203 -8.08122,15.65736 13.63706,-2.0203 -3.53554,13.63706 8.08122,-1.01016 0,15.15229 7.57615,-2.52538 -1.01016,15.65736 12.12183,-3.53553 2.52539,18.68782 15.65736,0 -6.06092,11.11168 5.55584,6.56599 6.566,-15.15229 5.55583,11.11168 11.11168,-18.68782 6.56599,10.6066 -6.06091,-41.92133 11.11168,20.70813 0.50507,-43.94164 9.09138,6.56599 6.06091,-50.00255 7.07107,31.31473 14.14213,-42.93148 3.03046,24.74874 9.59645,-30.80966 12.62691,17.67767 4.54568,-32.82995 14.64722,28.28427 5.05076,-22.72844 12.62691,13.13199 3.53553,-17.67767 16.16244,12.12183 -5.05076,-23.73859 15.65736,0.50508 1.01015,-14.14214 13.63706,10.60661 2.02031,-23.23351 16.66752,-6.56599 -4.54569,24.24366 6.06092,18.18274 -14.64722,-6.06091 5.05077,17.17259 -18.68783,-7.07107 7.57615,19.69798 -12.62691,-9.09138 7.07107,18.68783 -23.73859,-9.09138 10.60661,18.18275 -26.76905,-11.61675 9.59645,24.24366 -18.68782,-20.70813 -6.06091,31.31473 -11.61676,-22.72843 14.14214,41.92133 -20.70813,-12.62691 -0.50508,27.27412 -13.63706,-17.17259 -4.04061,24.24366 -15.15228,-20.20305 0,31.8198 -8.5863,-12.12183 6.06091,29.7995 -10.10152,-18.68782 -15.65737,45.45686 3.53554,-26.26396 -22.22336,32.82995 -18.18274,-12.12183 -10.10153,12.62691 -11.11168,-23.73858 -15.65736,-20.20306 -11.61676,1.01016 -1.01015,-22.22336 -11.11168,3.03046 -1.51523,-22.22336 -12.12183,4.54569 3.53554,-17.67767 -10.6066,4.04061 5.55584,-13.63706 -14.64722,-5.55584 z" style="fill:#45322d;fill-opacity:1;stroke:none"/>
      <path inkscape:connector-curvature="0" id="path4175" d="M 245.71429,390.93361 225,408.79075 l 25,7.14286 -18.57143,6.42857 25,2.85714 -25,9.28572 27.85714,6.42857 -25,5 50.71429,12.14286 -55.71429,0 25,13.57143 -15,11.42857 22.14286,-2.85715 -12.85714,12.85715 18.57143,-3.57143 -15.71429,24.28571 25.71429,-7.14285 -5,13.57142 20,-0.71428 L 290,532.36218 306.42857,530.93361 295.71429,543.07647 315,540.21932 l -14.28571,16.42858 12.85714,-5.71429 -17.85714,22.14286 20,-5 -15,27.85714 17.14285,-20 -7.85714,34.28572 6.42857,-22.14286 5.71429,31.42857 4.28571,-24.28572 17.85714,17.14286 -6.42857,-38.57143 25.71429,7.85715 -12.85714,-37.85715 22.85714,6.42857 9.28571,-21.42857 15,0.71429 L 405,500.93361 422.14286,514.50504 425,483.07647 l 12.85714,17.85714 3.57143,-42.14286 12.14286,14.28572 10,-22.85715 7.85714,12.85715 L 470,438.79075 l -11.42857,-10.71428 20,-12.14286 L 460.71429,406.6479 475,388.07647 z" style="fill:#c9bdb4;fill-opacity:1;stroke:none"/>
      <path inkscape:connector-curvature="0" id="path4173" d="m 284.28571,392.71932 -22.5,13.21429 19.28572,3.21429 -28.21429,16.78571 28.57143,3.92857 -12.85714,9.28572 18.57143,1.78571 -13.92857,13.57143 18.92857,-2.85714 -15,10.71428 13.57143,1.42857 -7.85715,9.28572 15.35715,1.42857 115.35714,1.07143 -7.14286,-25.71429 16.42857,3.92857 -10.71428,-17.5 19.28571,5.35715 L 425,427.00504 l 17.14286,4.64286 -11.07143,-16.42858 -10,-12.85714 z" style="fill:#a7acb1;fill-opacity:1;stroke:none"/>
      <path inkscape:connector-curvature="0" id="path4161" d="m 321.22851,454.85695 -16.66752,-39.90102 -12.6269,24.74873 7.07106,-30.30457 -14.14213,13.63706 5.05076,-20.70813 -13.13198,16.66752 4.54568,-22.22336 -23.2335,8.08122 9.09137,-10.6066 -19.1929,3.03046 5.55584,-9.59645 -16.16244,11.11168 9.09137,-14.14214 -17.17259,10.10153 9.59645,-15.65737 -18.18275,10.6066 8.08122,-13.63706 -19.69797,8.5863 10.6066,-14.64721 -19.69798,5.05076 14.64722,-11.61675 -20.70813,-6.06092 17.67767,-1.51523 -15.19839,-1.89268 15,-8.57142 -10.89286,-1.96429 12.5,-2.85714 -11.25,-6.60715 11.60715,2.5 L 205,327.8979 l 14.46429,1.07142 -9.82143,-8.92857 13.57143,0.89286 -7.32143,-10.53571 14.10714,3.39285 -8.39286,-11.96428 18.21429,3.21428 -10.71429,-12.67857 15,5.17857 -1.60714,-14.10714 11.96429,4.64286 -2.85715,-12.67857 12.14286,5.53571 0.40489,-16.99549 16.66752,1.26269 -4.04061,-15.40483 21.71828,5.55584 -2.52538,-12.12183 13.38452,7.07107 5.80837,-12.62691 8.5863,10.85914 3.78807,-13.63706 8.5863,9.34392 5.3033,-9.09138 8.33376,9.09138 4.79822,-10.35407 5.55584,9.59645 11.8693,-8.08122 -1.2627,10.10153 7.32361,-4.54569 -2.27284,7.57614 12.12183,-4.29314 -0.50508,9.09137 8.33376,-3.53554 2.27284,8.5863 9.84899,-3.53553 0.50508,12.87944 10.35406,-4.54568 -4.79822,13.63706 25.25381,-11.11168 -12.37437,14.89975 20.20305,-5.55584 -9.59645,13.63706 19.95052,-7.32361 -9.84899,20.45559 15.15229,-13.13198 -5.3033,12.37437 20.45558,-3.283 -18.68782,7.07107 21.71828,-3.283 c 0,0 -17.17259,12.12183 -15.9099,12.12183 1.26269,0 15.9099,-2.52538 15.9099,-2.52538 l -8.33376,7.82868 21.46575,-5.3033 c 0,0 -21.97082,12.12183 -20.45559,11.8693 1.51522,-0.25254 22.98097,7.82868 22.98097,7.82868 l -19.44544,-1.01015 9.84899,8.08122 c 0,0 21.2132,8.33375 20.20305,8.58629 -1.01015,0.25254 -26.26397,-2.0203 -26.26397,-2.0203 l 17.67767,17.17259 -18.43528,-7.82868 13.38452,13.63706 -19.95051,-4.79823 15.9099,10.10153 -18.94036,-0.75762 13.38452,10.85914 -26.01143,-6.81853 1.76777,7.57615 -12.62691,-1.26269 19.44544,6.31345 c 0,0 -20.20305,-0.25254 -19.1929,-0.25254 1.01015,0 10.35406,5.05077 10.35406,5.05077 l -14.64721,-3.03046 12.37437,12.37437 -18.43528,-3.53554 10.85914,12.37437 -16.41498,-4.04061 20.70812,14.14214 -15.40482,0.25254 -28.53681,-22.72844 10.6066,18.68783 -19.69797,-3.03046 7.57614,10.6066 c 0,0 -17.17259,0.50508 -14.64721,0.50508 2.52538,0 16.16244,11.61675 16.16244,11.61675 l -21.2132,-0.50508 15.65736,9.59645 -18.18275,9.59645 z" style="fill:#7a7e76;fill-opacity:1;stroke:none"/>
      <path inkscape:connector-curvature="0" id="path4165" d="m 397.14286,329.1479 9.64285,-1.42858 15,5.35715 -6.07142,18.57143 10.35714,-11.42858 13.92857,-6.42857 16.42857,4.64286 -12.5,-8.21429 -13.21428,0.71429 -20.35715,-7.14286 -9.28571,2.5 10,-7.5 -20.71429,12.85715 z" style="fill:#000000;stroke:none"/>
      <path sodipodi:nodetypes="sssssssssssssssssssssssssss" inkscape:connector-curvature="0" id="path4154" d="m 315.53571,357.54075 c -10.77122,-14.41949 -17.41253,-21.40066 -32.67857,-24.82143 -11.25055,-2.52099 -20.11113,10.24978 -20.97699,21.72797 -4.55072,60.32612 33.1899,29.92857 52.1074,25.96809 12.2415,-2.56282 4.2557,23.46978 0.0333,34.07719 -7.42078,18.64228 -16.12728,37.65732 -14.90876,58.29138 0.55514,9.40054 1.14761,18.85766 6.95797,27.44109 7.00702,10.35121 18.88081,12.83096 28.85415,17.92019 12.95282,6.60962 29.01574,4.49619 41.49282,-2.44703 8.24758,-4.5896 14.60094,-11.10721 19.95625,-19.32018 6.0917,-9.34231 8.60381,-19.74906 7.48624,-30.14177 -1.26789,-11.79059 -11.72892,-19.7175 -16.37029,-30.70003 -4.80417,-11.36777 -5.95736,-23.40688 -8.00089,-35.31242 -1.6787,-9.78006 2.54496,-19.91134 13.05814,-14 4.1957,2.35915 6.5669,9.49418 11.38209,8.99552 12.05339,-1.24824 21.03927,-13.77505 23.45651,-26.38827 1.73085,-9.03161 2.02513,-19.62142 -4.52794,-25.0403 -8.453,-6.98996 -22.53655,-6.13051 -32.56302,-0.46903 -9.19305,5.19089 -18.10525,14.46739 -20.44566,24.77691 -2.99355,13.18661 -3.33741,26.64674 -2.68828,40.17972 0.44032,9.17969 3.12993,18.51134 10.23073,25.17039 3.40253,3.19086 8.61893,22.25383 4.05418,20.12919 -8.91573,-4.14978 -17.8986,-13.19388 -28.17362,-12.8254 -20.5572,0.73721 -40.33615,21.68574 -38.04508,9.47935 1.93981,-10.33496 3.38634,-23.13212 7.37497,-32.64845 4.28999,-10.23533 11.37938,-21.01244 6.70952,-32.49065 -3.87229,-9.51783 -7.62115,-19.31361 -13.77517,-27.55203 z" style="fill:#dddcf9;fill-opacity:1;stroke:none"/>
      <path sodipodi:nodetypes="csscscc" inkscape:connector-curvature="0" id="path3115" d="m 273.38213,353.29914 9.62408,-2.75436 c 6.48386,-1.85565 15.33908,-0.90938 17.53095,0.67927 8.05083,5.83518 6.05357,16.50879 9.29501,24.74124 -3.70027,-3.23114 -5.16314,-5.19217 -10.49802,-6.27583 -1.54387,-0.31361 -4.67446,0.4166 -7.20669,-0.29479 -7.11527,-1.34505 -12.04648,-9.78252 -18.74533,-16.09553 z" style="fill:#000000;stroke:#000000;stroke-width:1px;stroke-linecap:butt;stroke-linejoin:miter;stroke-opacity:1"/>
      <path id="path3122" d="m 285.65249,351.0932 c -1.4734,1.47905 -2.3775,3.48044 -2.3775,5.68267 0,4.5543 3.85891,8.25483 8.62946,8.25483 4.77056,0 8.62947,-3.70053 8.62947,-8.25483 0,-1.94942 -0.69386,-3.7627 -1.87853,-5.17422 l -13.0029,-0.50845 z" style="fill:#9e9868;fill-opacity:1;fill-rule:nonzero;stroke:none" inkscape:connector-curvature="0"/>
      <path transform="translate(-104.10714,6.0714286)" sodipodi:type="arc" style="fill:#000000;fill-opacity:1;fill-rule:nonzero;stroke:none" id="path4075" sodipodi:cx="396.33929" sodipodi:cy="348.70148" sodipodi:rx="3.8392856" sodipodi:ry="3.8392856" d="m 400.17858,348.70148 c 0,2.12038 -1.71891,3.83928 -3.83929,3.83928 -2.12037,0 -3.83928,-1.7189 -3.83928,-3.83928 0,-2.12038 1.71891,-3.83929 3.83928,-3.83929 2.12038,0 3.83929,1.71891 3.83929,3.83929 z"/>
      <path transform="matrix(1.5545805,0,0,1.5545805,-160.35902,-195.76692)" d="m 291.42858,353.32199 c 0,0.45613 -0.36976,0.82589 -0.82589,0.82589 -0.45613,0 -0.82589,-0.36976 -0.82589,-0.82589 0,-0.45613 0.36976,-0.82589 0.82589,-0.82589 0.45613,0 0.82589,0.36976 0.82589,0.82589 z" sodipodi:ry="0.82589287" sodipodi:rx="0.82589287" sodipodi:cy="353.32199" sodipodi:cx="290.60269" id="path3925" style="fill:#ffffff;fill-opacity:1;fill-rule:nonzero;stroke:none" sodipodi:type="arc"/>
      <path sodipodi:nodetypes="ccccssc" inkscape:connector-curvature="0" id="path3945" d="m 419.36878,347.19813 c -4.14244,-3.25113 -12.26868,-3.12291 -27.65572,-1.7235 -5.78946,3.39787 -4.74887,12.04946 -6.82395,18.94759 -0.43525,3.76673 -4.39524,10.9195 -3.46388,10.48961 2.24543,-1.99736 5.53034,-7.01472 10.92421,-8.66268 6.72559,-2.05483 11.01497,-4.70569 18.49344,-13.94651 2.85194,-3.52402 7.57417,-5.47743 8.5259,-5.10451 z" style="fill:#000000;stroke:#000000;stroke-width:1px;stroke-linecap:butt;stroke-linejoin:miter;stroke-opacity:1"/>
      <path inkscape:connector-curvature="0" id="path3953" d="m 402.53125,345.18313 c -3.14161,0.15197 -6.69284,0.43783 -10.8125,0.8125 -0.0382,0.037 -0.0875,0.0561 -0.125,0.0937 -1.53496,1.54305 -2.5,3.67664 -2.5,6.03125 0,4.70922 3.81544,8.53125 8.5,8.53125 4.68456,0 8.46875,-3.82203 8.46875,-8.53125 0,-2.86303 -1.37799,-5.39111 -3.53125,-6.9375 z" style="fill:#9e9868;fill-opacity:1;fill-rule:nonzero;stroke:none"/>
      <path d="m 400.17858,348.70148 c 0,2.12038 -1.71891,3.83928 -3.83929,3.83928 -2.12037,0 -3.83928,-1.7189 -3.83928,-3.83928 0,-2.12038 1.71891,-3.83929 3.83928,-3.83929 2.12038,0 3.83929,1.71891 3.83929,3.83929 z" sodipodi:ry="3.8392856" sodipodi:rx="3.8392856" sodipodi:cy="348.70148" sodipodi:cx="396.33929" id="path3955" style="fill:#000000;fill-opacity:1;fill-rule:nonzero;stroke:none" sodipodi:type="arc"/>
      <path d="m 396.96428,347.54074 c 0,0.73967 -0.75952,1.33929 -1.69643,1.33929 -0.93691,0 -1.69643,-0.59962 -1.69643,-1.33929 0,-0.73967 0.75952,-1.33928 1.69643,-1.33928 0.93691,0 1.69643,0.59961 1.69643,1.33928 z" sodipodi:ry="1.3392857" sodipodi:rx="1.6964285" sodipodi:cy="347.54074" sodipodi:cx="395.26785" id="path3957" style="fill:#ffffff;fill-opacity:1;fill-rule:nonzero;stroke:none" sodipodi:type="arc"/>
      <path sodipodi:nodetypes="cc" inkscape:connector-curvature="0" id="path4077" d="m 397.6213,463.94832 c 14.86647,-11.63601 27.76446,-11.13304 40.65864,-10.6066" style="fill:none;stroke:#000000;stroke-width:1px;stroke-linecap:butt;stroke-linejoin:miter;stroke-opacity:1"/>
      <path sodipodi:nodetypes="cc" inkscape:connector-curvature="0" id="path4079" d="m 400.02041,456.24591 c 18.00552,-11.74885 34.24059,-7.85873 50.25509,-2.0203" style="fill:none;stroke:#000000;stroke-width:1px;stroke-linecap:butt;stroke-linejoin:miter;stroke-opacity:1"/>
      <path sodipodi:nodetypes="cc" inkscape:connector-curvature="0" id="path4081" d="m 399.51533,453.34172 c 8.11072,-4.24652 11.51751,-9.21672 27.52666,-12.2481" style="fill:none;stroke:#000000;stroke-width:1px;stroke-linecap:butt;stroke-linejoin:miter;stroke-opacity:1"/>
      <path sodipodi:nodetypes="cc" inkscape:connector-curvature="0" id="path4083" d="m 394.84338,477.08031 c 3.86376,-5.91196 13.3425,-8.73568 23.86485,-10.98541" style="fill:none;stroke:#000000;stroke-width:1px;stroke-linecap:butt;stroke-linejoin:miter;stroke-opacity:1"/>
      <path sodipodi:nodetypes="cc" inkscape:connector-curvature="0" id="path4085" d="m 393.32815,481.12092 c 6.65952,-5.13964 15.50602,-1.53134 23.35978,-1.89404" style="fill:none;stroke:#000000;stroke-width:1px;stroke-linecap:butt;stroke-linejoin:miter;stroke-opacity:1"/>
      <path sodipodi:nodetypes="cc" inkscape:connector-curvature="0" id="path4087" d="m 309.61176,477.58538 c -13.28662,0.20388 -23.14682,1.01962 -27.02158,2.90419" style="fill:none;stroke:#000000;stroke-width:1px;stroke-linecap:butt;stroke-linejoin:miter;stroke-opacity:1"/>
      <path sodipodi:nodetypes="cc" inkscape:connector-curvature="0" id="path4089" d="m 311.37952,487.43437 c -16.27918,0.074 -26.64363,1.27455 -28.78934,4.04061" style="fill:none;stroke:#000000;stroke-width:1px;stroke-linecap:butt;stroke-linejoin:miter;stroke-opacity:1"/>
      <path sodipodi:nodetypes="cc" inkscape:connector-curvature="0" id="path4091" d="m 304.9398,482.63615 c -7.71778,-0.28782 -15.28108,-0.39025 -19.69797,3.28299" style="fill:none;stroke:#000000;stroke-width:1px;stroke-linecap:butt;stroke-linejoin:miter;stroke-opacity:1"/>
      <path sodipodi:nodetypes="cc" inkscape:connector-curvature="0" id="path4093" d="m 319.33447,491.47498 c -9.03353,-0.0211 -17.4293,1.0511 -24.11739,5.05076" style="fill:none;stroke:#000000;stroke-width:1px;stroke-linecap:butt;stroke-linejoin:miter;stroke-opacity:1"/>
      <path sodipodi:nodetypes="cc" inkscape:connector-curvature="0" id="path4095" d="m 306.20249,473.0397 c -4.41615,-4.53015 -14.63366,-6.73977 -23.86485,-9.34391" style="fill:none;stroke:#000000;stroke-width:1px;stroke-linecap:butt;stroke-linejoin:miter;stroke-opacity:1"/>
      <path sodipodi:nodetypes="cccsc" inkscape:connector-curvature="0" id="path4106" d="m 380.34106,467.22456 c -0.86435,-15.05195 -13.72204,-16.88513 -28.1766,-17.2921 -15.56841,-0.68948 -27.91915,5.56774 -29.30972,15.88339 -3.53763,18.50816 15.98471,33.43877 29.93782,33.30791 13.888,-0.13025 27.85966,-10.4502 27.5485,-31.8992 z" style="fill:#2c1822;fill-opacity:1;stroke:none"/>
      <path sodipodi:nodetypes="ccccccccsscsccc" inkscape:connector-curvature="0" id="path4097" d="m 416.96031,458.86357 c 1.80298,7.14192 -5.18564,13.06496 -6.84417,19.7708 -5.123,11.66256 -13.017,24.46459 -25.25625,28.80478 -34.9908,14.46934 -39.3065,8.3851 -58.86113,4.3077 -8.35409,-2.13346 -16.95332,-5.19277 -22.30751,-12.44963 -7.17376,-7.42359 -11.2364,-17.74605 -18.43031,-24.71841 -8.33644,-6.92097 5.99653,-8.0842 8.15219,-1.51916 4.59962,7.51586 5.86683,17.9542 11.08696,25.21644 5.36806,7.18123 13.89906,10.40566 22.64642,11.29315 9.08604,0.92185 18.40552,-0.67771 24.6562,-2.98329 2.92701,-1.07963 1.87938,-13.69167 1.96874,-18.30881 -0.28184,5.09871 -2.43912,17.17268 1.12915,18.46608 8.43311,3.05677 27.03805,2.47153 35.61944,-3.64485 10.08212,-6.89969 16.37904,-20.20131 12.6988,-31.99683 4.80222,-8.46519 9.9122,-14.87696 13.74147,-12.23797 z" style="fill:#000000;stroke:none"/>
      <path sodipodi:nodetypes="cccsccc" inkscape:connector-curvature="0" id="path4130" d="m 336.75961,486.80303 c 4.04834,-0.15632 6.61736,-0.54413 10.17397,-4.39221 0.36329,-3.21198 -5.32152,-6.50051 -7.90113,-5.33051 -1.20184,0.79041 -1.36199,2.61034 -1.51523,4.04061 -0.11093,1.03531 1.61113,2.43406 0.75761,3.03045 -5.21214,1.70462 -11.73537,-2.65519 -13.51079,-4.04061 1.96745,5.76864 6.72662,6.60233 11.99557,6.69227 z" style="fill:#000000;stroke:#000000;stroke-width:1px;stroke-linecap:butt;stroke-linejoin:miter;stroke-opacity:1"/>
      <path inkscape:connector-curvature="0" id="path4138" d="m 333.0978,468.62028 c 1.91752,-1.01422 4.47887,-0.48332 5.7934,1.25751 1.36819,1.45221 3.02212,3.17308 5.21415,2.89692 2.77229,0.005 5.54593,0.0666 8.31708,-0.0429 1.65641,-0.6563 3.3961,-2.00381 5.21321,-0.98601 1.42605,0.47378 3.28488,0.95739 4.45202,-0.3047 1.22013,-1.0592 3.0373,-1.69996 4.58246,-0.9797 1.79878,0.4034 1.81014,-1.90767 1.4777,-3.08572 -0.23556,-2.01214 -2.15417,-3.22476 -3.98023,-3.63379 -2.04118,-0.27094 -3.15927,-1.91496 -4.19868,-3.43695 -1.44823,-1.18208 -3.44534,-0.58892 -4.83051,0.37653 -1.68782,1.07688 -3.50079,2.72625 -5.66468,2.17119 -2.14662,-0.5597 -4.17444,-2.23689 -6.50049,-1.59494 -1.51088,0.77394 -2.39139,2.69524 -4.30383,2.6295 -2.05291,0.41945 -4.36088,0.37154 -6.06594,1.76594 -0.72845,0.92495 -0.11354,2.16052 0.49434,2.96708 z" style="fill:#ffffff;stroke:none"/>
      <path sodipodi:nodetypes="cccccccccccc" inkscape:connector-curvature="0" id="path4143" d="m 377.67078,481.49972 c -0.47195,-0.75569 -1.37189,-0.15695 -1.96357,0.10447 -1.24986,0.5062 -2.67145,0.20296 -3.86651,-0.31368 -1.00915,-0.54912 -0.70137,-1.80956 -0.0741,-2.52587 0.63855,-0.78594 0.38633,-1.88955 -0.35761,-2.50016 -0.81375,-0.79972 -2.07186,-1.03683 -3.13699,-0.65221 -2.96085,0.75864 -5.17308,3.19054 -6.55191,5.8146 -1.30549,3.50257 1.00795,5.501 3.93276,5.85783 2.40642,0.16995 4.82982,0.0807 7.22583,-0.17607 1.15219,-0.21735 2.34442,-0.56337 3.25839,-1.32257 0.61306,-0.81766 0.71677,-1.88085 1.2082,-2.76271 0.1836,-0.48713 0.32618,-0.99922 0.32551,-1.52363 z" style="fill:#000000;fill-opacity:1;stroke:#000000;stroke-width:1px;stroke-linecap:butt;stroke-linejoin:miter;stroke-opacity:1"/>
      <path inkscape:connector-curvature="0" id="path4163" d="m 361.42857,337.36218 1.78572,21.42857 10,-42.14285 L 352.5,300.57647 357.14286,283.43361 345,297.00504 l -5,-14.64286 28.57143,-2.14286 -30.71429,-5 -48.21428,14.28572 25.35714,-3.92857 13.57143,0 -0.71429,13.21428 -10.35714,-10 -5.71429,14.64286 -10,1.78571 8.57143,15.35715 2.85715,-10.35715 6.42857,20.71429 4.64285,17.14286 3.57143,-19.64286 2.14286,19.28571 6.07143,-33.57142 6.78571,21.42857 1.07143,-20 4.28572,20 10,-11.78572 -7.5,-17.5 17.85714,18.57143 -12.14286,12.5 z" style="fill:#000000;stroke:none"/>
      <path inkscape:connector-curvature="0" id="path4167" d="m 427.5,358.07647 9.64286,16.07143 -3.57143,-18.92858 -10,-7.5 z" style="fill:#000000;stroke:none"/>
      <path inkscape:connector-curvature="0" id="path4171" d="m 281.07143,333.43361 c 0,0 -29.64286,3.92857 -26.78572,4.64286 2.85715,0.71429 18.21429,1.42857 18.21429,1.42857 0,0 -18.57143,4.64286 -16.42857,5.35714 2.14286,0.71429 14.64286,1.78572 14.64286,1.78572 l -16.07143,8.21428 8.92857,-1.42857 -8.92857,12.14286 14.64285,-0.71429 -16.78571,8.57143 11.07143,1.07143 -6.07143,7.85714 11.42857,-0.71428 -9.64286,8.92857 14.28572,-2.5 -10.71429,-9.28571 -1.07143,-8.21429 0.35715,-9.28571 5,-17.5 5,-6.78572 z" style="fill:#000000;stroke:none"/>
      <path inkscape:connector-curvature="0" id="path4183" d="m 464.28572,415.57647 15.35714,-10.71429 -0.71429,12.14286 13.92857,-18.21429 7.85715,17.5 5,-24.28571 16.78571,12.85714 6.78572,-11.42857 10.35714,18.92857 -26.07143,-5.35714 4.64286,20.71428 -26.78572,-8.21428 -3.92857,23.21428 -11.42857,-21.07142 -3.21429,15 z" style="fill:#000000;stroke:none"/>
    </g>
  </g>
  <metadata>
    <rdf:RDF>
      <cc:Work>
        <dc:format>image/svg+xml</dc:format>
        <dc:type rdf:resource="http://purl.org/dc/dcmitype/StillImage"/>
        <cc:license rdf:resource="http://creativecommons.org/licenses/publicdomain/"/>
        <dc:publisher>
          <cc:Agent rdf:about="http://openclipart.org/">
            <dc:title>Open Clip Art Library</dc:title>
          </cc:Agent>
        </dc:publisher>
        <dc:title>wolf</dc:title>
        <dc:date>2013-04-01T00:05:24</dc:date>
        <dc:description/>
        <dc:source>http://openclipart.org/detail/176662/wolf-by-stilg4r-176662</dc:source>
        <dc:creator>
          <cc:Agent>
            <dc:title>stilg4r</dc:title>
          </cc:Agent>
        </dc:creator>
        <dc:subject>
          <rdf:Bag>
            <rdf:li>wolf</rdf:li>
          </rdf:Bag>
        </dc:subject>
      </cc:Work>
      <cc:License rdf:about="http://creativecommons.org/licenses/publicdomain/">
        <cc:permits rdf:resource="http://creativecommons.org/ns#Reproduction"/>
        <cc:permits rdf:resource="http://creativecommons.org/ns#Distribution"/>
        <cc:permits rdf:resource="http://creativecommons.org/ns#DerivativeWorks"/>
      </cc:License>
    </rdf:RDF>
  </metadata>
</svg>
